<?xml version="1.0" encoding="UTF-8" standalone="no"?>
<!-- Created with Inkscape (http://www.inkscape.org/) -->

<svg xmlns:dc="http://purl.org/dc/elements/1.1/" xmlns:cc="http://creativecommons.org/ns#" xmlns:rdf="http://www.w3.org/1999/02/22-rdf-syntax-ns#" xmlns:svg="http://www.w3.org/2000/svg" xmlns="http://www.w3.org/2000/svg" xmlns:sodipodi="http://sodipodi.sourceforge.net/DTD/sodipodi-0.dtd" xmlns:inkscape="http://www.inkscape.org/namespaces/inkscape" width="1072.9569" height="552.02429" id="svg2" version="1.1" inkscape:version="0.47 r22583" sodipodi:docname="temporal-dec.svg">
  <defs id="defs4">
    <marker inkscape:stockid="Arrow2Mend" orient="auto" refY="0" refX="0" id="Arrow2Mend" style="overflow:visible">
      <path id="path4115" style="font-size:12px;fill-rule:evenodd;stroke-width:0.625;stroke-linejoin:round" d="M 8.7185878,4.0337352 -2.2072895,0.01601326 8.7185884,-4.0017078 c -1.7454984,2.3720609 -1.7354408,5.6174519 -6e-7,8.035443 z" transform="scale(-0.6,-0.6)" />
    </marker>
    <inkscape:perspective sodipodi:type="inkscape:persp3d" inkscape:vp_x="0 : 526.18109 : 1" inkscape:vp_y="0 : 1000 : 0" inkscape:vp_z="744.09448 : 526.18109 : 1" inkscape:persp3d-origin="372.04724 : 350.78739 : 1" id="perspective10" />
    <inkscape:perspective id="perspective2824" inkscape:persp3d-origin="0.5 : 0.33333333 : 1" inkscape:vp_z="1 : 0.5 : 1" inkscape:vp_y="0 : 1000 : 0" inkscape:vp_x="0 : 0.5 : 1" sodipodi:type="inkscape:persp3d" />
    <inkscape:perspective id="perspective3612" inkscape:persp3d-origin="0.5 : 0.33333333 : 1" inkscape:vp_z="1 : 0.5 : 1" inkscape:vp_y="0 : 1000 : 0" inkscape:vp_x="0 : 0.5 : 1" sodipodi:type="inkscape:persp3d" />
    <inkscape:perspective id="perspective3612-4" inkscape:persp3d-origin="0.5 : 0.33333333 : 1" inkscape:vp_z="1 : 0.5 : 1" inkscape:vp_y="0 : 1000 : 0" inkscape:vp_x="0 : 0.5 : 1" sodipodi:type="inkscape:persp3d" />
    <inkscape:perspective id="perspective3612-47" inkscape:persp3d-origin="0.5 : 0.33333333 : 1" inkscape:vp_z="1 : 0.5 : 1" inkscape:vp_y="0 : 1000 : 0" inkscape:vp_x="0 : 0.5 : 1" sodipodi:type="inkscape:persp3d" />
    <inkscape:perspective id="perspective3612-5" inkscape:persp3d-origin="0.5 : 0.33333333 : 1" inkscape:vp_z="1 : 0.5 : 1" inkscape:vp_y="0 : 1000 : 0" inkscape:vp_x="0 : 0.5 : 1" sodipodi:type="inkscape:persp3d" />
    <inkscape:perspective id="perspective3612-8" inkscape:persp3d-origin="0.5 : 0.33333333 : 1" inkscape:vp_z="1 : 0.5 : 1" inkscape:vp_y="0 : 1000 : 0" inkscape:vp_x="0 : 0.5 : 1" sodipodi:type="inkscape:persp3d" />
    <inkscape:perspective id="perspective3612-3" inkscape:persp3d-origin="0.5 : 0.33333333 : 1" inkscape:vp_z="1 : 0.5 : 1" inkscape:vp_y="0 : 1000 : 0" inkscape:vp_x="0 : 0.5 : 1" sodipodi:type="inkscape:persp3d" />
    <inkscape:perspective id="perspective3679" inkscape:persp3d-origin="0.5 : 0.33333333 : 1" inkscape:vp_z="1 : 0.5 : 1" inkscape:vp_y="0 : 1000 : 0" inkscape:vp_x="0 : 0.5 : 1" sodipodi:type="inkscape:persp3d" />
    <inkscape:perspective id="perspective3679-0" inkscape:persp3d-origin="0.5 : 0.33333333 : 1" inkscape:vp_z="1 : 0.5 : 1" inkscape:vp_y="0 : 1000 : 0" inkscape:vp_x="0 : 0.5 : 1" sodipodi:type="inkscape:persp3d" />
    <inkscape:perspective id="perspective3679-1" inkscape:persp3d-origin="0.5 : 0.33333333 : 1" inkscape:vp_z="1 : 0.5 : 1" inkscape:vp_y="0 : 1000 : 0" inkscape:vp_x="0 : 0.5 : 1" sodipodi:type="inkscape:persp3d" />
    <inkscape:perspective id="perspective3679-11" inkscape:persp3d-origin="0.5 : 0.33333333 : 1" inkscape:vp_z="1 : 0.5 : 1" inkscape:vp_y="0 : 1000 : 0" inkscape:vp_x="0 : 0.5 : 1" sodipodi:type="inkscape:persp3d" />
    <inkscape:perspective id="perspective3679-3" inkscape:persp3d-origin="0.5 : 0.33333333 : 1" inkscape:vp_z="1 : 0.5 : 1" inkscape:vp_y="0 : 1000 : 0" inkscape:vp_x="0 : 0.5 : 1" sodipodi:type="inkscape:persp3d" />
    <inkscape:perspective id="perspective3679-03" inkscape:persp3d-origin="0.5 : 0.33333333 : 1" inkscape:vp_z="1 : 0.5 : 1" inkscape:vp_y="0 : 1000 : 0" inkscape:vp_x="0 : 0.5 : 1" sodipodi:type="inkscape:persp3d" />
    <inkscape:perspective id="perspective3679-9" inkscape:persp3d-origin="0.5 : 0.33333333 : 1" inkscape:vp_z="1 : 0.5 : 1" inkscape:vp_y="0 : 1000 : 0" inkscape:vp_x="0 : 0.5 : 1" sodipodi:type="inkscape:persp3d" />
    <inkscape:perspective id="perspective3679-93" inkscape:persp3d-origin="0.5 : 0.33333333 : 1" inkscape:vp_z="1 : 0.5 : 1" inkscape:vp_y="0 : 1000 : 0" inkscape:vp_x="0 : 0.5 : 1" sodipodi:type="inkscape:persp3d" />
    <inkscape:perspective id="perspective3679-05" inkscape:persp3d-origin="0.5 : 0.33333333 : 1" inkscape:vp_z="1 : 0.5 : 1" inkscape:vp_y="0 : 1000 : 0" inkscape:vp_x="0 : 0.5 : 1" sodipodi:type="inkscape:persp3d" />
    <inkscape:perspective id="perspective3679-4" inkscape:persp3d-origin="0.5 : 0.33333333 : 1" inkscape:vp_z="1 : 0.5 : 1" inkscape:vp_y="0 : 1000 : 0" inkscape:vp_x="0 : 0.5 : 1" sodipodi:type="inkscape:persp3d" />
    <inkscape:perspective id="perspective3679-46" inkscape:persp3d-origin="0.5 : 0.33333333 : 1" inkscape:vp_z="1 : 0.5 : 1" inkscape:vp_y="0 : 1000 : 0" inkscape:vp_x="0 : 0.5 : 1" sodipodi:type="inkscape:persp3d" />
    <inkscape:perspective id="perspective3835" inkscape:persp3d-origin="0.5 : 0.33333333 : 1" inkscape:vp_z="1 : 0.5 : 1" inkscape:vp_y="0 : 1000 : 0" inkscape:vp_x="0 : 0.5 : 1" sodipodi:type="inkscape:persp3d" />
    <inkscape:perspective id="perspective3835-0" inkscape:persp3d-origin="0.5 : 0.33333333 : 1" inkscape:vp_z="1 : 0.5 : 1" inkscape:vp_y="0 : 1000 : 0" inkscape:vp_x="0 : 0.5 : 1" sodipodi:type="inkscape:persp3d" />
    <inkscape:perspective id="perspective3835-01" inkscape:persp3d-origin="0.5 : 0.33333333 : 1" inkscape:vp_z="1 : 0.5 : 1" inkscape:vp_y="0 : 1000 : 0" inkscape:vp_x="0 : 0.5 : 1" sodipodi:type="inkscape:persp3d" />
    <inkscape:perspective id="perspective3835-6" inkscape:persp3d-origin="0.5 : 0.33333333 : 1" inkscape:vp_z="1 : 0.5 : 1" inkscape:vp_y="0 : 1000 : 0" inkscape:vp_x="0 : 0.5 : 1" sodipodi:type="inkscape:persp3d" />
    <inkscape:perspective id="perspective3835-2" inkscape:persp3d-origin="0.5 : 0.33333333 : 1" inkscape:vp_z="1 : 0.5 : 1" inkscape:vp_y="0 : 1000 : 0" inkscape:vp_x="0 : 0.5 : 1" sodipodi:type="inkscape:persp3d" />
    <inkscape:perspective id="perspective3893" inkscape:persp3d-origin="0.5 : 0.33333333 : 1" inkscape:vp_z="1 : 0.5 : 1" inkscape:vp_y="0 : 1000 : 0" inkscape:vp_x="0 : 0.5 : 1" sodipodi:type="inkscape:persp3d" />
    <inkscape:perspective id="perspective3893-1" inkscape:persp3d-origin="0.5 : 0.33333333 : 1" inkscape:vp_z="1 : 0.5 : 1" inkscape:vp_y="0 : 1000 : 0" inkscape:vp_x="0 : 0.5 : 1" sodipodi:type="inkscape:persp3d" />
    <inkscape:perspective id="perspective3924" inkscape:persp3d-origin="0.5 : 0.33333333 : 1" inkscape:vp_z="1 : 0.5 : 1" inkscape:vp_y="0 : 1000 : 0" inkscape:vp_x="0 : 0.5 : 1" sodipodi:type="inkscape:persp3d" />
    <inkscape:perspective id="perspective3924-4" inkscape:persp3d-origin="0.5 : 0.33333333 : 1" inkscape:vp_z="1 : 0.5 : 1" inkscape:vp_y="0 : 1000 : 0" inkscape:vp_x="0 : 0.5 : 1" sodipodi:type="inkscape:persp3d" />
    <inkscape:perspective id="perspective3924-48" inkscape:persp3d-origin="0.5 : 0.33333333 : 1" inkscape:vp_z="1 : 0.5 : 1" inkscape:vp_y="0 : 1000 : 0" inkscape:vp_x="0 : 0.5 : 1" sodipodi:type="inkscape:persp3d" />
    <inkscape:perspective id="perspective3924-8" inkscape:persp3d-origin="0.5 : 0.33333333 : 1" inkscape:vp_z="1 : 0.5 : 1" inkscape:vp_y="0 : 1000 : 0" inkscape:vp_x="0 : 0.5 : 1" sodipodi:type="inkscape:persp3d" />
    <inkscape:perspective id="perspective3924-6" inkscape:persp3d-origin="0.5 : 0.33333333 : 1" inkscape:vp_z="1 : 0.5 : 1" inkscape:vp_y="0 : 1000 : 0" inkscape:vp_x="0 : 0.5 : 1" sodipodi:type="inkscape:persp3d" />
    <inkscape:perspective id="perspective3924-66" inkscape:persp3d-origin="0.5 : 0.33333333 : 1" inkscape:vp_z="1 : 0.5 : 1" inkscape:vp_y="0 : 1000 : 0" inkscape:vp_x="0 : 0.5 : 1" sodipodi:type="inkscape:persp3d" />
    <inkscape:perspective id="perspective3924-62" inkscape:persp3d-origin="0.5 : 0.33333333 : 1" inkscape:vp_z="1 : 0.5 : 1" inkscape:vp_y="0 : 1000 : 0" inkscape:vp_x="0 : 0.5 : 1" sodipodi:type="inkscape:persp3d" />
    <inkscape:perspective id="perspective3924-9" inkscape:persp3d-origin="0.5 : 0.33333333 : 1" inkscape:vp_z="1 : 0.5 : 1" inkscape:vp_y="0 : 1000 : 0" inkscape:vp_x="0 : 0.5 : 1" sodipodi:type="inkscape:persp3d" />
    <inkscape:perspective id="perspective3924-7" inkscape:persp3d-origin="0.5 : 0.33333333 : 1" inkscape:vp_z="1 : 0.5 : 1" inkscape:vp_y="0 : 1000 : 0" inkscape:vp_x="0 : 0.5 : 1" sodipodi:type="inkscape:persp3d" />
    <inkscape:perspective id="perspective3924-0" inkscape:persp3d-origin="0.5 : 0.33333333 : 1" inkscape:vp_z="1 : 0.5 : 1" inkscape:vp_y="0 : 1000 : 0" inkscape:vp_x="0 : 0.5 : 1" sodipodi:type="inkscape:persp3d" />
    <inkscape:perspective id="perspective3924-3" inkscape:persp3d-origin="0.5 : 0.33333333 : 1" inkscape:vp_z="1 : 0.5 : 1" inkscape:vp_y="0 : 1000 : 0" inkscape:vp_x="0 : 0.5 : 1" sodipodi:type="inkscape:persp3d" />
    <inkscape:perspective id="perspective3924-2" inkscape:persp3d-origin="0.5 : 0.33333333 : 1" inkscape:vp_z="1 : 0.5 : 1" inkscape:vp_y="0 : 1000 : 0" inkscape:vp_x="0 : 0.5 : 1" sodipodi:type="inkscape:persp3d" />
    <inkscape:perspective id="perspective3924-5" inkscape:persp3d-origin="0.5 : 0.33333333 : 1" inkscape:vp_z="1 : 0.5 : 1" inkscape:vp_y="0 : 1000 : 0" inkscape:vp_x="0 : 0.5 : 1" sodipodi:type="inkscape:persp3d" />
    <inkscape:perspective id="perspective3924-29" inkscape:persp3d-origin="0.5 : 0.33333333 : 1" inkscape:vp_z="1 : 0.5 : 1" inkscape:vp_y="0 : 1000 : 0" inkscape:vp_x="0 : 0.5 : 1" sodipodi:type="inkscape:persp3d" />
    <inkscape:perspective id="perspective4733" inkscape:persp3d-origin="0.5 : 0.33333333 : 1" inkscape:vp_z="1 : 0.5 : 1" inkscape:vp_y="0 : 1000 : 0" inkscape:vp_x="0 : 0.5 : 1" sodipodi:type="inkscape:persp3d" />
    <inkscape:perspective id="perspective4758" inkscape:persp3d-origin="0.5 : 0.33333333 : 1" inkscape:vp_z="1 : 0.5 : 1" inkscape:vp_y="0 : 1000 : 0" inkscape:vp_x="0 : 0.5 : 1" sodipodi:type="inkscape:persp3d" />
    <inkscape:perspective id="perspective4787" inkscape:persp3d-origin="0.5 : 0.33333333 : 1" inkscape:vp_z="1 : 0.5 : 1" inkscape:vp_y="0 : 1000 : 0" inkscape:vp_x="0 : 0.5 : 1" sodipodi:type="inkscape:persp3d" />
    <inkscape:perspective id="perspective4818" inkscape:persp3d-origin="0.5 : 0.33333333 : 1" inkscape:vp_z="1 : 0.5 : 1" inkscape:vp_y="0 : 1000 : 0" inkscape:vp_x="0 : 0.5 : 1" sodipodi:type="inkscape:persp3d" />
  </defs>
  <sodipodi:namedview id="base" pagecolor="#ffffff" bordercolor="#666666" borderopacity="1.0" inkscape:pageopacity="0.0" inkscape:pageshadow="2" inkscape:zoom="1.4" inkscape:cx="563.56396" inkscape:cy="352.871" inkscape:document-units="px" inkscape:current-layer="layer1" showgrid="false" inkscape:window-width="1920" inkscape:window-height="1032" inkscape:window-x="1920" inkscape:window-y="0" inkscape:window-maximized="1" />
  <metadata id="metadata7">
    <rdf:RDF>
      <cc:Work rdf:about="">
        <dc:format>image/svg+xml</dc:format>
        <dc:type rdf:resource="http://purl.org/dc/dcmitype/StillImage" />
        <dc:title></dc:title>
      </cc:Work>
    </rdf:RDF>
  </metadata>
  <g inkscape:label="Layer 1" inkscape:groupmode="layer" id="layer1" transform="translate(-78.21886,-62.215317)">
    <path style="fill:none;stroke:#000000;stroke-width:2.5;stroke-linecap:butt;stroke-linejoin:round;stroke-miterlimit:4;stroke-opacity:1;stroke-dasharray:7.5, 7.5;stroke-dashoffset:0" d="m 303.78572,374.57647 625,0" id="path4719" />
    <path style="fill:none;stroke:#000000;stroke-width:3;stroke-linecap:butt;stroke-linejoin:round;stroke-miterlimit:4;stroke-opacity:1;stroke-dasharray:none;stroke-dashoffset:0" d="m 397.14286,182.28571 c 7.48085,-5.55603 4.08115,-52.7037 12.85714,-53.57142 9.87184,-0.96777 12.29595,55.60366 49.28571,52.85714" id="path2830" transform="translate(51.642857,13.719325)" sodipodi:nodetypes="ccc" />
    <path style="fill:none;stroke:#000000;stroke-width:3;stroke-linecap:butt;stroke-linejoin:round;stroke-miterlimit:4;stroke-opacity:1;stroke-dasharray:none;stroke-dashoffset:0" d="m 488.12992,196.07196 c 7.48085,-5.55603 4.08115,-52.7037 12.85714,-53.57142 9.87184,-0.96777 12.29595,55.60366 49.28572,52.85714" id="path2830-3" sodipodi:nodetypes="ccc" />
    <path style="fill:none;stroke:#000000;stroke-width:3;stroke-linecap:butt;stroke-linejoin:round;stroke-miterlimit:4;stroke-opacity:1;stroke-dasharray:none;stroke-dashoffset:0" d="m 726.52592,195.12271 c 7.48085,-5.55603 4.08115,-52.7037 12.85714,-53.57142 9.87184,-0.96777 12.29595,55.60366 49.28572,52.85714" id="path2830-6" sodipodi:nodetypes="ccc" />
    <path style="fill:none;stroke:#000000;stroke-width:3;stroke-linecap:butt;stroke-linejoin:round;stroke-miterlimit:4;stroke-opacity:1;stroke-dasharray:none;stroke-dashoffset:0" d="m 753.25436,195.12272 c 7.48085,-5.55603 4.08115,-52.7037 12.85714,-53.57142 9.87184,-0.96777 12.29595,55.60366 49.28571,52.85714" id="path2830-7" sodipodi:nodetypes="ccc" />
    <path style="fill:none;stroke:#000000;stroke-width:3;stroke-linecap:butt;stroke-linejoin:round;stroke-miterlimit:4;stroke-opacity:1;stroke-dasharray:none;stroke-dashoffset:0" d="m 778.00309,195.14302 c 7.48085,-5.55603 4.08115,-52.7037 12.85714,-53.57142 9.87184,-0.96777 12.29595,55.60366 49.28571,52.85714" id="path2830-4" sodipodi:nodetypes="ccc" />
    <path style="fill:none;stroke:#000000;stroke-width:3;stroke-linecap:butt;stroke-linejoin:round;stroke-miterlimit:4;stroke-opacity:1;stroke-dasharray:none;stroke-dashoffset:0" d="m 802.93458,195.66842 c 7.48085,-5.55603 4.08115,-52.7037 12.85714,-53.57142 9.87184,-0.96777 12.29595,55.60366 49.28571,52.85714" id="path2830-1" sodipodi:nodetypes="ccc" />
    <path style="fill:none;stroke:#000000;stroke-width:3;stroke-linecap:butt;stroke-linejoin:round;stroke-miterlimit:4;stroke-opacity:1;stroke-dasharray:none;stroke-dashoffset:0" d="m 360.99285,557.66095 c 7.48085,5.55603 4.08115,52.7037 12.85714,53.57142 9.87184,0.96777 12.29595,-55.60366 49.28571,-52.85714" id="path2830-68" sodipodi:nodetypes="ccc" />
    <path style="fill:none;stroke:#000000;stroke-width:3;stroke-linecap:butt;stroke-linejoin:round;stroke-miterlimit:4;stroke-opacity:1;stroke-dasharray:none;stroke-dashoffset:0" d="m 381.05375,557.66096 c 7.48085,5.55603 4.08115,52.7037 12.85714,53.57142 9.87184,0.96777 12.29595,-55.60366 49.28571,-52.85714" id="path2830-68-9" sodipodi:nodetypes="ccc" />
    <path style="fill:none;stroke:#000000;stroke-width:3;stroke-linecap:butt;stroke-linejoin:round;stroke-miterlimit:4;stroke-opacity:1;stroke-dasharray:none;stroke-dashoffset:0" d="m 419.54107,557.11527 c 7.48085,5.55603 4.08115,52.7037 12.85714,53.57142 9.87184,0.96777 12.29595,-55.60366 49.28571,-52.85714" id="path2830-68-8" sodipodi:nodetypes="ccc" />
    <path style="fill:none;stroke:#000000;stroke-width:3;stroke-linecap:butt;stroke-linejoin:round;stroke-miterlimit:4;stroke-opacity:1;stroke-dasharray:none;stroke-dashoffset:0" d="m 522.69847,558.67111 c 7.48085,5.55603 4.08115,52.7037 12.85714,53.57142 9.87184,0.96777 12.29595,-55.60366 49.28571,-52.85714" id="path2830-68-3" sodipodi:nodetypes="ccc" />
    <path style="fill:none;stroke:#000000;stroke-width:3;stroke-linecap:butt;stroke-linejoin:round;stroke-miterlimit:4;stroke-opacity:1;stroke-dasharray:none;stroke-dashoffset:0" d="m 547.30507,557.68126 c 7.48085,5.55603 4.08115,52.7037 12.85714,53.57142 9.87184,0.96777 12.29595,-55.60366 49.28571,-52.85714" id="path2830-68-0" sodipodi:nodetypes="ccc" />
    <path style="fill:none;stroke:#000000;stroke-width:3;stroke-linecap:butt;stroke-linejoin:round;stroke-miterlimit:4;stroke-opacity:1;stroke-dasharray:none;stroke-dashoffset:0" d="m 567.4472,559.15588 c 7.48085,5.55603 4.08115,52.7037 12.85714,53.57142 9.87184,0.96777 12.29595,-55.60366 49.28571,-52.85714" id="path2830-68-4" sodipodi:nodetypes="ccc" />
    <path style="fill:none;stroke:#000000;stroke-width:3;stroke-linecap:butt;stroke-linejoin:round;stroke-miterlimit:4;stroke-opacity:1;stroke-dasharray:none;stroke-dashoffset:0" d="m 584.15534,557.64065 c 7.48085,5.55603 4.08115,52.7037 12.85714,53.57142 9.87184,0.96777 12.29595,-55.60366 49.28571,-52.85714" id="path2830-68-91" sodipodi:nodetypes="ccc" />
    <path style="fill:none;stroke:#000000;stroke-width:3;stroke-linecap:butt;stroke-linejoin:round;stroke-miterlimit:4;stroke-opacity:1;stroke-dasharray:none;stroke-dashoffset:0" d="m 600.27716,557.66096 c 7.48085,5.55603 4.08115,52.7037 12.85714,53.57142 9.87184,0.96777 12.29595,-55.60366 49.28571,-52.85714" id="path2830-68-6" sodipodi:nodetypes="ccc" />
    <path style="fill:none;stroke:#000000;stroke-width:3;stroke-linecap:butt;stroke-linejoin:round;stroke-miterlimit:4;stroke-opacity:1;stroke-dasharray:none;stroke-dashoffset:0" d="m 616.45991,557.66095 c 7.48085,5.55603 4.08115,52.7037 12.85714,53.57142 9.87184,0.96777 12.29595,-55.60366 49.28572,-52.85714" id="path2830-68-38" sodipodi:nodetypes="ccc" />
    <path style="fill:none;stroke:#000000;stroke-width:3;stroke-linecap:butt;stroke-linejoin:round;stroke-miterlimit:4;stroke-opacity:1;stroke-dasharray:none;stroke-dashoffset:0" d="m 631.63252,558.18634 c 7.48085,5.55603 4.08115,52.7037 12.85714,53.57142 9.87184,0.96777 12.29595,-55.60366 49.28571,-52.85714" id="path2830-68-66" sodipodi:nodetypes="ccc" />
    <path style="fill:none;stroke:#000000;stroke-width:3;stroke-linecap:butt;stroke-linejoin:round;stroke-miterlimit:4;stroke-opacity:1;stroke-dasharray:none;stroke-dashoffset:0" d="m 649.77463,557.68126 c 7.48085,5.55603 4.08115,52.7037 12.85714,53.57142 9.87184,0.96777 12.29595,-55.60366 49.28572,-52.85714" id="path2830-68-00" sodipodi:nodetypes="ccc" />
    <path style="fill:none;stroke:#000000;stroke-width:3;stroke-linecap:butt;stroke-linejoin:round;stroke-miterlimit:4;stroke-opacity:1;stroke-dasharray:none;stroke-dashoffset:0" d="m 668.07922,557.1965 c 7.48085,5.55603 4.08115,52.7037 12.85714,53.57142 9.87184,0.96777 12.29595,-55.60366 49.28571,-52.85714" id="path2830-68-2" sodipodi:nodetypes="ccc" />
    <path sodipodi:type="arc" style="fill:#646464;fill-opacity:1;stroke:#646464;stroke-width:3;stroke-linecap:butt;stroke-linejoin:round;stroke-miterlimit:4;stroke-opacity:1;stroke-dasharray:none;stroke-dashoffset:0" id="path3825" sodipodi:cx="402.04071" sodipodi:cy="193.9872" sodipodi:rx="3.0304577" sodipodi:ry="3.0304577" d="m 405.07117,193.9872 c 0,1.67367 -1.35678,3.03046 -3.03046,3.03046 -1.67368,0 -3.03046,-1.35679 -3.03046,-3.03046 0,-1.67368 1.35678,-3.03046 3.03046,-3.03046 1.67368,0 3.03046,1.35678 3.03046,3.03046 z" transform="translate(51.642857,12.204097)" />
    <path sodipodi:type="arc" style="fill:#646464;fill-opacity:1;stroke:#646464;stroke-width:3;stroke-linecap:butt;stroke-linejoin:round;stroke-miterlimit:4;stroke-opacity:1;stroke-dasharray:none;stroke-dashoffset:0" id="path3825-7" sodipodi:cx="402.04071" sodipodi:cy="193.9872" sodipodi:rx="3.0304577" sodipodi:ry="3.0304577" d="m 405.07117,193.9872 c 0,1.67367 -1.35678,3.03046 -3.03046,3.03046 -1.67368,0 -3.03046,-1.35679 -3.03046,-3.03046 0,-1.67368 1.35678,-3.03046 3.03046,-3.03046 1.67368,0 3.03046,1.35678 3.03046,3.03046 z" transform="translate(90.028657,11.951553)" />
    <path sodipodi:type="arc" style="fill:#646464;fill-opacity:1;stroke:#646464;stroke-width:3;stroke-linecap:butt;stroke-linejoin:round;stroke-miterlimit:4;stroke-opacity:1;stroke-dasharray:none;stroke-dashoffset:0" id="path3825-2" sodipodi:cx="402.04071" sodipodi:cy="193.9872" sodipodi:rx="3.0304577" sodipodi:ry="3.0304577" d="m 405.07117,193.9872 c 0,1.67367 -1.35678,3.03046 -3.03046,3.03046 -1.67368,0 -3.03046,-1.35679 -3.03046,-3.03046 0,-1.67368 1.35678,-3.03046 3.03046,-3.03046 1.67368,0 3.03046,1.35678 3.03046,3.03046 z" transform="translate(329.39418,12.183787)" />
    <path sodipodi:type="arc" style="fill:#646464;fill-opacity:1;stroke:#646464;stroke-width:3;stroke-linecap:butt;stroke-linejoin:round;stroke-miterlimit:4;stroke-opacity:1;stroke-dasharray:none;stroke-dashoffset:0" id="path3825-9" sodipodi:cx="402.04071" sodipodi:cy="193.9872" sodipodi:rx="3.0304577" sodipodi:ry="3.0304577" d="m 405.07117,193.9872 c 0,1.67367 -1.35678,3.03046 -3.03046,3.03046 -1.67368,0 -3.03046,-1.35679 -3.03046,-3.03046 0,-1.67368 1.35678,-3.03046 3.03046,-3.03046 1.67368,0 3.03046,1.35678 3.03046,3.03046 z" transform="translate(355.44624,11.951553)" />
    <path sodipodi:type="arc" style="fill:#646464;fill-opacity:1;stroke:#646464;stroke-width:3;stroke-linecap:butt;stroke-linejoin:round;stroke-miterlimit:4;stroke-opacity:1;stroke-dasharray:none;stroke-dashoffset:0" id="path3825-21" sodipodi:cx="402.04071" sodipodi:cy="193.9872" sodipodi:rx="3.0304577" sodipodi:ry="3.0304577" d="m 405.07117,193.9872 c 0,1.67367 -1.35678,3.03046 -3.03046,3.03046 -1.67368,0 -3.03046,-1.35679 -3.03046,-3.03046 0,-1.67368 1.35678,-3.03046 3.03046,-3.03046 1.67368,0 3.03046,1.35678 3.03046,3.03046 z" transform="translate(378.70006,11.951553)" />
    <path sodipodi:type="arc" style="fill:#646464;fill-opacity:1;stroke:#646464;stroke-width:3;stroke-linecap:butt;stroke-linejoin:round;stroke-miterlimit:4;stroke-opacity:1;stroke-dasharray:none;stroke-dashoffset:0" id="path3825-0" sodipodi:cx="402.04071" sodipodi:cy="193.9872" sodipodi:rx="3.0304577" sodipodi:ry="3.0304577" d="m 405.07117,193.9872 c 0,1.67367 -1.35678,3.03046 -3.03046,3.03046 -1.67368,0 -3.03046,-1.35679 -3.03046,-3.03046 0,-1.67368 1.35678,-3.03046 3.03046,-3.03046 1.67368,0 3.03046,1.35678 3.03046,3.03046 z" transform="translate(405.70133,11.951553)" />
    <path style="fill:none;stroke:#000000;stroke-width:3;stroke-linecap:butt;stroke-linejoin:round;stroke-miterlimit:4;stroke-opacity:1;stroke-dasharray:none;stroke-dashoffset:0" d="m 854.71429,558.4989 c 7.48085,5.55603 4.08115,52.7037 12.85714,53.57142 9.87184,0.96777 12.29595,-55.60366 49.28572,-52.85714" id="path2830-68-2-1" sodipodi:nodetypes="ccc" />
    <path style="fill:none;stroke:#000000;stroke-width:3;stroke-linecap:butt;stroke-linejoin:round;stroke-miterlimit:4;stroke-opacity:1;stroke-dasharray:none;stroke-dashoffset:0" d="m 884.14286,557.78461 c 7.48085,5.55603 4.08115,52.7037 12.85714,53.57142 9.87184,0.96777 12.29595,-55.60366 49.28571,-52.85714" id="path2830-68-2-9" sodipodi:nodetypes="ccc" />
    <path sodipodi:type="arc" style="fill:#646464;fill-opacity:1;stroke:#646464;stroke-width:3;stroke-linecap:butt;stroke-linejoin:round;stroke-miterlimit:4;stroke-opacity:1;stroke-dasharray:none;stroke-dashoffset:0" id="path3825-0-6" sodipodi:cx="402.04071" sodipodi:cy="193.9872" sodipodi:rx="3.0304577" sodipodi:ry="3.0304577" d="m 405.07117,193.9872 c 0,1.67367 -1.35678,3.03046 -3.03046,3.03046 -1.67368,0 -3.03046,-1.35679 -3.03046,-3.03046 0,-1.67368 1.35678,-3.03046 3.03046,-3.03046 1.67368,0 3.03046,1.35678 3.03046,3.03046 z" transform="translate(-36.826424,354.51784)" />
    <path sodipodi:type="arc" style="fill:#646464;fill-opacity:1;stroke:#646464;stroke-width:3;stroke-linecap:butt;stroke-linejoin:round;stroke-miterlimit:4;stroke-opacity:1;stroke-dasharray:none;stroke-dashoffset:0" id="path3825-0-7" sodipodi:cx="402.04071" sodipodi:cy="193.9872" sodipodi:rx="3.0304577" sodipodi:ry="3.0304577" d="m 405.07117,193.9872 c 0,1.67367 -1.35678,3.03046 -3.03046,3.03046 -1.67368,0 -3.03046,-1.35679 -3.03046,-3.03046 0,-1.67368 1.35678,-3.03046 3.03046,-3.03046 1.67368,0 3.03046,1.35678 3.03046,3.03046 z" transform="translate(-15.754996,354.51784)" />
    <path sodipodi:type="arc" style="fill:#646464;fill-opacity:1;stroke:#646464;stroke-width:3;stroke-linecap:butt;stroke-linejoin:round;stroke-miterlimit:4;stroke-opacity:1;stroke-dasharray:none;stroke-dashoffset:0" id="path3825-0-5" sodipodi:cx="402.04071" sodipodi:cy="193.9872" sodipodi:rx="3.0304577" sodipodi:ry="3.0304577" d="m 405.07117,193.9872 c 0,1.67367 -1.35678,3.03046 -3.03046,3.03046 -1.67368,0 -3.03046,-1.35679 -3.03046,-3.03046 0,-1.67368 1.35678,-3.03046 3.03046,-3.03046 1.67368,0 3.03046,1.35678 3.03046,3.03046 z" transform="translate(22.816433,354.51784)" />
    <path sodipodi:type="arc" style="fill:#646464;fill-opacity:1;stroke:#646464;stroke-width:3;stroke-linecap:butt;stroke-linejoin:round;stroke-miterlimit:4;stroke-opacity:1;stroke-dasharray:none;stroke-dashoffset:0" id="path3825-0-2" sodipodi:cx="402.04071" sodipodi:cy="193.9872" sodipodi:rx="3.0304577" sodipodi:ry="3.0304577" d="m 405.07117,193.9872 c 0,1.67367 -1.35678,3.03046 -3.03046,3.03046 -1.67368,0 -3.03046,-1.35679 -3.03046,-3.03046 0,-1.67368 1.35678,-3.03046 3.03046,-3.03046 1.67368,0 3.03046,1.35678 3.03046,3.03046 z" transform="translate(124.06643,354.69642)" />
    <path sodipodi:type="arc" style="fill:#646464;fill-opacity:1;stroke:#646464;stroke-width:3;stroke-linecap:butt;stroke-linejoin:round;stroke-miterlimit:4;stroke-opacity:1;stroke-dasharray:none;stroke-dashoffset:0" id="path3825-0-0" sodipodi:cx="402.04071" sodipodi:cy="193.9872" sodipodi:rx="3.0304577" sodipodi:ry="3.0304577" d="m 405.07117,193.9872 c 0,1.67367 -1.35678,3.03046 -3.03046,3.03046 -1.67368,0 -3.03046,-1.35679 -3.03046,-3.03046 0,-1.67368 1.35678,-3.03046 3.03046,-3.03046 1.67368,0 3.03046,1.35678 3.03046,3.03046 z" transform="translate(149.60215,354.51785)" />
    <path sodipodi:type="arc" style="fill:#646464;fill-opacity:1;stroke:#646464;stroke-width:3;stroke-linecap:butt;stroke-linejoin:round;stroke-miterlimit:4;stroke-opacity:1;stroke-dasharray:none;stroke-dashoffset:0" id="path3825-0-4" sodipodi:cx="402.04071" sodipodi:cy="193.9872" sodipodi:rx="3.0304577" sodipodi:ry="3.0304577" d="m 405.07117,193.9872 c 0,1.67367 -1.35678,3.03046 -3.03046,3.03046 -1.67368,0 -3.03046,-1.35679 -3.03046,-3.03046 0,-1.67368 1.35678,-3.03046 3.03046,-3.03046 1.67368,0 3.03046,1.35678 3.03046,3.03046 z" transform="translate(169.245,354.51784)" />
    <path sodipodi:type="arc" style="fill:#646464;fill-opacity:1;stroke:#646464;stroke-width:3;stroke-linecap:butt;stroke-linejoin:round;stroke-miterlimit:4;stroke-opacity:1;stroke-dasharray:none;stroke-dashoffset:0" id="path3825-0-8" sodipodi:cx="402.04071" sodipodi:cy="193.9872" sodipodi:rx="3.0304577" sodipodi:ry="3.0304577" d="m 405.07117,193.9872 c 0,1.67367 -1.35678,3.03046 -3.03046,3.03046 -1.67368,0 -3.03046,-1.35679 -3.03046,-3.03046 0,-1.67368 1.35678,-3.03046 3.03046,-3.03046 1.67368,0 3.03046,1.35678 3.03046,3.03046 z" transform="translate(186.20929,354.69641)" />
    <path sodipodi:type="arc" style="fill:#646464;fill-opacity:1;stroke:#646464;stroke-width:3;stroke-linecap:butt;stroke-linejoin:round;stroke-miterlimit:4;stroke-opacity:1;stroke-dasharray:none;stroke-dashoffset:0" id="path3825-0-60" sodipodi:cx="402.04071" sodipodi:cy="193.9872" sodipodi:rx="3.0304577" sodipodi:ry="3.0304577" d="m 405.07117,193.9872 c 0,1.67367 -1.35678,3.03046 -3.03046,3.03046 -1.67368,0 -3.03046,-1.35679 -3.03046,-3.03046 0,-1.67368 1.35678,-3.03046 3.03046,-3.03046 1.67368,0 3.03046,1.35678 3.03046,3.03046 z" transform="translate(201.03072,354.33927)" />
    <path sodipodi:type="arc" style="fill:#646464;fill-opacity:1;stroke:#646464;stroke-width:3;stroke-linecap:butt;stroke-linejoin:round;stroke-miterlimit:4;stroke-opacity:1;stroke-dasharray:none;stroke-dashoffset:0" id="path3825-0-01" sodipodi:cx="402.04071" sodipodi:cy="193.9872" sodipodi:rx="3.0304577" sodipodi:ry="3.0304577" d="m 405.07117,193.9872 c 0,1.67367 -1.35678,3.03046 -3.03046,3.03046 -1.67368,0 -3.03046,-1.35679 -3.03046,-3.03046 0,-1.67368 1.35678,-3.03046 3.03046,-3.03046 1.67368,0 3.03046,1.35678 3.03046,3.03046 z" transform="translate(217.10215,354.51784)" />
    <path sodipodi:type="arc" style="fill:#646464;fill-opacity:1;stroke:#646464;stroke-width:3;stroke-linecap:butt;stroke-linejoin:round;stroke-miterlimit:4;stroke-opacity:1;stroke-dasharray:none;stroke-dashoffset:0" id="path3825-0-1" sodipodi:cx="402.04071" sodipodi:cy="193.9872" sodipodi:rx="3.0304577" sodipodi:ry="3.0304577" d="m 405.07117,193.9872 c 0,1.67367 -1.35678,3.03046 -3.03046,3.03046 -1.67368,0 -3.03046,-1.35679 -3.03046,-3.03046 0,-1.67368 1.35678,-3.03046 3.03046,-3.03046 1.67368,0 3.03046,1.35678 3.03046,3.03046 z" transform="translate(233.17358,354.33927)" />
    <path sodipodi:type="arc" style="fill:#646464;fill-opacity:1;stroke:#646464;stroke-width:3;stroke-linecap:butt;stroke-linejoin:round;stroke-miterlimit:4;stroke-opacity:1;stroke-dasharray:none;stroke-dashoffset:0" id="path3825-0-77" sodipodi:cx="402.04071" sodipodi:cy="193.9872" sodipodi:rx="3.0304577" sodipodi:ry="3.0304577" d="m 405.07117,193.9872 c 0,1.67367 -1.35678,3.03046 -3.03046,3.03046 -1.67368,0 -3.03046,-1.35679 -3.03046,-3.03046 0,-1.67368 1.35678,-3.03046 3.03046,-3.03046 1.67368,0 3.03046,1.35678 3.03046,3.03046 z" transform="translate(250.495,354.33927)" />
    <path sodipodi:type="arc" style="fill:#646464;fill-opacity:1;stroke:#646464;stroke-width:3;stroke-linecap:butt;stroke-linejoin:round;stroke-miterlimit:4;stroke-opacity:1;stroke-dasharray:none;stroke-dashoffset:0" id="path3825-0-64" sodipodi:cx="402.04071" sodipodi:cy="193.9872" sodipodi:rx="3.0304577" sodipodi:ry="3.0304577" d="m 405.07117,193.9872 c 0,1.67367 -1.35678,3.03046 -3.03046,3.03046 -1.67368,0 -3.03046,-1.35679 -3.03046,-3.03046 0,-1.67368 1.35678,-3.03046 3.03046,-3.03046 1.67368,0 3.03046,1.35678 3.03046,3.03046 z" transform="translate(270.31644,354.51784)" />
    <path sodipodi:type="arc" style="fill:#646464;fill-opacity:1;stroke:#646464;stroke-width:3;stroke-linecap:butt;stroke-linejoin:round;stroke-miterlimit:4;stroke-opacity:1;stroke-dasharray:none;stroke-dashoffset:0" id="path3825-0-20" sodipodi:cx="402.04071" sodipodi:cy="193.9872" sodipodi:rx="3.0304577" sodipodi:ry="3.0304577" d="m 405.07117,193.9872 c 0,1.67367 -1.35678,3.03046 -3.03046,3.03046 -1.67368,0 -3.03046,-1.35679 -3.03046,-3.03046 0,-1.67368 1.35678,-3.03046 3.03046,-3.03046 1.67368,0 3.03046,1.35678 3.03046,3.03046 z" transform="translate(456.56643,354.51784)" />
    <path sodipodi:type="arc" style="fill:#646464;fill-opacity:1;stroke:#646464;stroke-width:3;stroke-linecap:butt;stroke-linejoin:round;stroke-miterlimit:4;stroke-opacity:1;stroke-dasharray:none;stroke-dashoffset:0" id="path3825-0-09" sodipodi:cx="402.04071" sodipodi:cy="193.9872" sodipodi:rx="3.0304577" sodipodi:ry="3.0304577" d="m 405.07117,193.9872 c 0,1.67367 -1.35678,3.03046 -3.03046,3.03046 -1.67368,0 -3.03046,-1.35679 -3.03046,-3.03046 0,-1.67368 1.35678,-3.03046 3.03046,-3.03046 1.67368,0 3.03046,1.35678 3.03046,3.03046 z" transform="translate(486.03072,354.33927)" />
    <path style="fill:none;stroke:#000000;stroke-width:5;stroke-linecap:butt;stroke-linejoin:round;stroke-miterlimit:4;stroke-opacity:1;stroke-dasharray:none;stroke-dashoffset:0" d="m 296.78571,441.57143 c 1.97092,0.23142 5.73833,0.42784 11.42858,-11.42857 6.53954,1.94643 12.75588,13.36654 22.31005,-9.78361 0.64797,-1.57005 2.3778,-5.08976 3.04709,-4.14496 16.72039,31.54938 22.88581,-48.18766 35.71429,-50.00001 8.04506,-1.13657 5.44745,19.09278 18.92857,15.35715 16.68514,3.10314 12.39543,-73.1072 27.85714,-99.64286 1.48745,-2.5528 5.01836,-3.5605 7.95137,-3.91654 3.83988,-0.46612 7.8541,4.17612 11.33434,2.48797 11.7847,-5.71639 4.00198,-31.08252 17.14287,-35.35715 20.81999,-8.2552 23.36188,82.08899 35.35713,98.21429 14.76539,2.36421 10.47581,29.52318 20.71429,41.07143 11.58602,0.55257 7.00668,17.12221 15.35714,23.21429 6.22695,2.80277 11.93387,10.13139 15.71429,19.28571 5.46625,1.13604 11.34421,1.02452 15,12.5 5.07888,-0.558 9.37215,-5.04403 17.14286,7.85714 6.21786,-7.14168 11.49635,-2.07166 16.78571,2.85715 4.0709,-4.74604 7.36401,-11.15875 17.85714,-2.14286 2.8125,-4.84375 1.98661,-11.14955 8.21429,-14.28571 3.41877,1.10504 5.69997,5.13336 12.5,2.85714 10.58652,-8.21207 22.53071,-67.59204 37.5,-95.35714 4.23753,-4.01219 7.30781,-8.608 9.64286,-13.57143 6.51245,-11.12066 4.6712,-38.47108 14.64285,-57.85715 2.48346,-4.82814 9.71151,-5.57468 12.85714,-10 4.95115,-6.96535 3.70552,-17.02617 8.21429,-24.28571 1.59888,-2.57435 3.4668,-5.78702 6.42857,-6.42857 2.98227,-0.64599 5.66514,4.14417 8.57143,3.21428 6.69837,-2.14319 4.77565,-16.934 11.78572,-17.5 7.97507,-0.64391 8.44474,18.02433 16.42857,17.5 5.70324,-0.37455 4.29484,-14.27264 10,-13.92857 11.70831,0.70611 16.67944,27.34051 26.07143,43.57143 3.72364,6.61396 6.97445,12.28224 12.5,22.5 7.36264,25.2772 6.91609,71.85221 23.57142,71.78572 10,-3.56026 20.71429,-21.11537 30,-29.64286" transform="translate(51.642857,13.719325)" sodipodi:nodetypes="ccscscsaacccccccccccccsaaaaaascccc" />
    <path style="fill:none;stroke:#c8c8c8;stroke-width:5;stroke-linecap:butt;stroke-linejoin:round;stroke-miterlimit:4;stroke-opacity:1;stroke-dasharray:none;stroke-dashoffset:0" d="m 300.01531,469.25376 c 38.97153,-48.82866 73.08422,-209.5674 112.12693,-208.5965 56.71739,1.39787 96.92918,261.80741 145.96704,261.62951 61.53904,-0.22325 98.38427,-320.99352 156.57365,-321.22851 50.66301,-0.20459 75.34534,178.79969 121.2183,178.29193 11.59009,-0.12829 22.22336,-18.18275 22.22336,-18.18275" id="path4067" transform="translate(51.642857,13.719325)" sodipodi:nodetypes="cssssa" />
    <text xml:space="preserve" style="font-size:30px;font-style:normal;font-variant:normal;font-weight:normal;font-stretch:normal;fill:#000000;fill-opacity:1;stroke:none;font-family:LMSans12;-inkscape-font-specification:LMSans12" x="515.95264" y="92.566879" id="text4069"><tspan sodipodi:role="line" id="tspan4071" x="515.95264" y="92.566879" style="font-size:40px;font-style:italic;font-variant:normal;font-weight:normal;font-stretch:normal;font-family:LMMathItalic12;-inkscape-font-specification:LMMathItalic12 Bold Italic">h(t)=PSC(t)</tspan></text>
    <path style="fill:none;stroke:#000000;stroke-width:3;stroke-linecap:butt;stroke-linejoin:round;stroke-miterlimit:4;stroke-opacity:1;stroke-dasharray:none;stroke-dashoffset:0;marker-end:url(#Arrow2Mend)" d="M 551.54329,85.395795 487.90368,140.95418" id="path4083" transform="translate(51.642857,13.719325)" sodipodi:nodetypes="cc" />
    <path style="fill:none;stroke:#000000;stroke-width:3;stroke-linecap:butt;stroke-linejoin:round;stroke-miterlimit:4;stroke-opacity:1;stroke-dasharray:none;stroke-dashoffset:0;marker-end:url(#Arrow2Mend)" d="M 601.20646,99.852429 716.24202,141.48062" id="path4533" sodipodi:nodetypes="cc" />
    <text xml:space="preserve" style="font-size:30px;font-style:normal;font-variant:normal;font-weight:bold;font-stretch:normal;text-align:center;text-anchor:middle;fill:#000000;fill-opacity:1;stroke:none;font-family:LMRomanDemi10;-inkscape-font-specification:LMRomanDemi10 Semi-Bold" x="195.92857" y="175.71933" id="text4721"><tspan sodipodi:role="line" id="tspan4723" x="195.92857" y="175.71933" style="font-size:32px;font-style:normal;font-variant:normal;font-weight:normal;font-stretch:normal;text-align:center;text-anchor:middle;font-family:LMRoman12;-inkscape-font-specification:LMRoman12">Spikes for neuron</tspan><tspan sodipodi:role="line" x="195.92857" y="215.71933" style="font-size:32px;font-style:normal;font-variant:normal;font-weight:normal;font-stretch:normal;text-align:center;text-anchor:middle;font-family:LMRoman12;-inkscape-font-specification:LMRoman12" id="tspan4804">with <tspan style="font-weight:bold" id="tspan4838">e</tspan> = 1</tspan></text>
    <text xml:space="preserve" style="font-size:30px;font-style:normal;font-variant:normal;font-weight:bold;font-stretch:normal;fill:#000000;fill-opacity:1;stroke:none;font-family:LMRomanDemi10;-inkscape-font-specification:LMRomanDemi10 Semi-Bold" x="265.75296" y="388.16791" id="text4721-8-2"><tspan sodipodi:role="line" id="tspan4723-7-7" x="265.75296" y="388.16791" style="font-size:40px">0</tspan></text>
    <text xml:space="preserve" style="font-size:30px;font-style:normal;font-variant:normal;font-weight:bold;font-stretch:normal;fill:#000000;fill-opacity:1;stroke:none;font-family:LMRomanDemi10;-inkscape-font-specification:LMRomanDemi10 Semi-Bold" x="910.21423" y="329.57648" id="text4775"><tspan sodipodi:role="line" id="tspan4777" x="910.21423" y="329.57648" style="font-size:32px;font-style:normal;font-variant:normal;font-weight:normal;font-stretch:normal;font-family:LMRoman12;-inkscape-font-specification:LMRoman12">Decoded estimate</tspan></text>
    <text xml:space="preserve" style="font-size:30px;font-style:normal;font-variant:normal;font-weight:bold;font-stretch:normal;fill:#646464;fill-opacity:1;stroke:none;font-family:LMRomanDemi10;-inkscape-font-specification:LMRomanDemi10 Semi-Bold" x="910.40588" y="416.94904" id="text4775-0"><tspan sodipodi:role="line" id="tspan4777-4" x="910.40588" y="416.94904" style="font-size:32px;font-style:normal;font-variant:normal;font-weight:normal;font-stretch:normal;fill:#646464;fill-opacity:1;font-family:LMRoman12;-inkscape-font-specification:LMRoman12">Input signal</tspan></text>
    <text xml:space="preserve" style="font-size:30px;font-style:normal;font-variant:normal;font-weight:bold;font-stretch:normal;text-align:center;text-anchor:middle;fill:#000000;fill-opacity:1;stroke:none;font-family:LMRomanDemi10;-inkscape-font-specification:LMRomanDemi10 Semi-Bold" x="195.92836" y="558.31012" id="text4721-7"><tspan sodipodi:role="line" id="tspan4723-9" x="195.92836" y="558.31012" style="font-size:32px;font-style:normal;font-variant:normal;font-weight:normal;font-stretch:normal;text-align:center;text-anchor:middle;font-family:LMRoman12;-inkscape-font-specification:LMRoman12">Spikes for neuron</tspan><tspan sodipodi:role="line" x="195.92836" y="598.31012" style="font-size:32px;font-style:normal;font-variant:normal;font-weight:normal;font-stretch:normal;text-align:center;text-anchor:middle;font-family:LMRoman12;-inkscape-font-specification:LMRoman12" id="tspan4804-0">with <tspan style="font-weight:bold" id="tspan4840">e</tspan> = -1</tspan></text>
  </g>
</svg>
