<?xml version="1.0" encoding="UTF-8" standalone="no"?>
<!-- Created with Inkscape (http://www.inkscape.org/) -->

<svg xmlns:dc="http://purl.org/dc/elements/1.1/" xmlns:cc="http://creativecommons.org/ns#" xmlns:rdf="http://www.w3.org/1999/02/22-rdf-syntax-ns#" xmlns:svg="http://www.w3.org/2000/svg" xmlns="http://www.w3.org/2000/svg" xmlns:sodipodi="http://sodipodi.sourceforge.net/DTD/sodipodi-0.dtd" xmlns:inkscape="http://www.inkscape.org/namespaces/inkscape" version="1.0" width="926.25555" height="556.00482" id="svg2" sodipodi:version="0.32" inkscape:version="0.47 r22583" sodipodi:docname="synapse-cartoon.svg" inkscape:output_extension="org.inkscape.output.svg.inkscape">
  <metadata id="metadata108">
    <rdf:RDF>
      <cc:Work rdf:about="">
        <dc:format>image/svg+xml</dc:format>
        <dc:type rdf:resource="http://purl.org/dc/dcmitype/StillImage" />
      </cc:Work>
    </rdf:RDF>
  </metadata>
  <sodipodi:namedview inkscape:window-height="1032" inkscape:window-width="1920" inkscape:pageshadow="2" inkscape:pageopacity="0.0" guidetolerance="10.0" gridtolerance="10.0" objecttolerance="10.0" borderopacity="1.0" bordercolor="#666666" pagecolor="#ffffff" id="base" inkscape:zoom="1.3618611" inkscape:cx="381.25154" inkscape:cy="285.76962" inkscape:window-x="0" inkscape:window-y="0" inkscape:current-layer="svg2" showgrid="false" inkscape:window-maximized="1" />
  <defs id="defs5">
    <inkscape:perspective sodipodi:type="inkscape:persp3d" inkscape:vp_x="0 : 277.56134 : 1" inkscape:vp_y="0 : 1000 : 0" inkscape:vp_z="862.46259 : 277.56134 : 1" inkscape:persp3d-origin="431.23129 : 185.04089 : 1" id="perspective3326" />
    <inkscape:perspective id="perspective3354" inkscape:persp3d-origin="0.5 : 0.33333333 : 1" inkscape:vp_z="1 : 0.5 : 1" inkscape:vp_y="0 : 1000 : 0" inkscape:vp_x="0 : 0.5 : 1" sodipodi:type="inkscape:persp3d" />
    <inkscape:perspective id="perspective3381" inkscape:persp3d-origin="0.5 : 0.33333333 : 1" inkscape:vp_z="1 : 0.5 : 1" inkscape:vp_y="0 : 1000 : 0" inkscape:vp_x="0 : 0.5 : 1" sodipodi:type="inkscape:persp3d" />
    <inkscape:perspective id="perspective3410" inkscape:persp3d-origin="0.5 : 0.33333333 : 1" inkscape:vp_z="1 : 0.5 : 1" inkscape:vp_y="0 : 1000 : 0" inkscape:vp_x="0 : 0.5 : 1" sodipodi:type="inkscape:persp3d" />
    <inkscape:perspective id="perspective3436" inkscape:persp3d-origin="0.5 : 0.33333333 : 1" inkscape:vp_z="1 : 0.5 : 1" inkscape:vp_y="0 : 1000 : 0" inkscape:vp_x="0 : 0.5 : 1" sodipodi:type="inkscape:persp3d" />
    <inkscape:perspective id="perspective3465" inkscape:persp3d-origin="0.5 : 0.33333333 : 1" inkscape:vp_z="1 : 0.5 : 1" inkscape:vp_y="0 : 1000 : 0" inkscape:vp_x="0 : 0.5 : 1" sodipodi:type="inkscape:persp3d" />
    <inkscape:perspective id="perspective3494" inkscape:persp3d-origin="0.5 : 0.33333333 : 1" inkscape:vp_z="1 : 0.5 : 1" inkscape:vp_y="0 : 1000 : 0" inkscape:vp_x="0 : 0.5 : 1" sodipodi:type="inkscape:persp3d" />
    <inkscape:perspective id="perspective3530" inkscape:persp3d-origin="0.5 : 0.33333333 : 1" inkscape:vp_z="1 : 0.5 : 1" inkscape:vp_y="0 : 1000 : 0" inkscape:vp_x="0 : 0.5 : 1" sodipodi:type="inkscape:persp3d" />
  </defs>
  <path d="M 393.85313,2.5 260.82496,3.63203 c 1.26904,12.41311 3.66529,84.412309 4.04662,110.00714 -0.0378,20.51464 2.02428,49.65162 -4.26691,63.70252 -11.28146,27.31231 -61.64251,60.11315 -75.21498,89.93784 -7.76417,17.72346 -8.54662,40.04874 -8.54662,58.90591 4.91156,34.78596 15.15193,41.07134 34.34375,58.9375 23.41106,13.46972 42.77997,21.30863 71.59375,23.84375 22.17717,3.5712 45.14822,4.67449 67.53125,3.375 8.18941,-0.37959 15.68963,-0.49834 22.625,-0.5 -1.52601,-7.63274 0.33234,-17.20432 4.84375,-19.8125 2.49199,-4.62521 10.94062,-8.1325 18.4375,-8.71875 5.67842,0.27909 9.55875,0.50795 17.15625,7.9375 1.85247,4.22611 7.20307,10.24322 4.75,16.59375 1.36559,2.03391 3.29661,2.80015 5.4375,3.1875 4.57421,-0.81799 8.45592,-2.16048 11.78125,-4.28125 15.44355,-4.63993 27.97711,-14.72905 35.8125,-28.34375 20.39972,-34.53937 24.68682,-78.97691 -5.55017,-125.62945 -12.31696,-21.1384 -52.03542,-42.5324 -67.12505,-80.9807 -4.51111,-11.82545 -5.51404,-38.83166 -6.23463,-54.38951 C 393.1548,71.895985 394.10824,41.648517 393.85313,2.5 z" style="fill:#fede58;fill-opacity:1;fill-rule:evenodd;stroke:#000000;stroke-width:5;stroke-linecap:butt;stroke-linejoin:miter;stroke-miterlimit:4;stroke-opacity:1;stroke-dasharray:none" id="path2161" sodipodi:nodetypes="ccccccccccccccccccccc" />
  <path d="m 273.18659,326.35206 a 23.606705,23.606705 0 1 1 -8.3e-4,-0.19753" style="fill:#ffffff;fill-opacity:1;fill-rule:evenodd;stroke:#000000;stroke-width:2;stroke-linecap:square;stroke-linejoin:miter;stroke-miterlimit:4;stroke-opacity:1;stroke-dasharray:none;stroke-dashoffset:7" id="path5140" />
  <path d="m 314.59723,382.53337 a 23.606705,23.606705 0 1 1 -8.3e-4,-0.19753" style="fill:#ffffff;fill-opacity:1;fill-rule:evenodd;stroke:#000000;stroke-width:2;stroke-linecap:square;stroke-linejoin:miter;stroke-miterlimit:4;stroke-opacity:1;stroke-dasharray:none;stroke-dashoffset:7" id="path5168" />
  <path d="m 469.1389,324.15724 a 23.606705,23.606705 0 1 1 -8.3e-4,-0.19753" style="fill:#ffffff;fill-opacity:1;fill-rule:evenodd;stroke:#000000;stroke-width:2;stroke-linecap:square;stroke-linejoin:miter;stroke-miterlimit:4;stroke-opacity:1;stroke-dasharray:none;stroke-dashoffset:7" id="path5184" />
  <path d="m 126.12482,553.33871 c 51.64975,-29.56781 31.81061,-41.58708 76.46825,-83.18254 11.30795,-9.41385 23.95179,-10.90909 37.6746,-13.05555 22.96241,3.73982 53.63007,-0.7055 80.19842,7.0873 25.43142,4.03051 43.97871,4.90955 66.76984,1.49206 17.62811,0.68923 34.55666,-6.10177 52.22222,-3.73016 22.98066,-4.14671 53.51341,15.40491 66.76984,35.0635 9.14242,14.41192 33.66306,57.44701 52.66569,56.47531" style="fill:#abda4e;fill-opacity:1;fill-rule:evenodd;stroke:#000000;stroke-width:5;stroke-linecap:butt;stroke-linejoin:miter;stroke-miterlimit:4;stroke-opacity:1;stroke-dasharray:none" id="path5263" sodipodi:nodetypes="cccccccc" />
  <path d="m 383.69228,476.68395 c -2.26485,16.24133 -1.57628,32.20734 53.71428,43.08334 0.49155,1.93388 1.92873,3.57362 0,6.15476 -52.22022,-9.43637 -64.91371,-27.65645 -59.12301,-49.98413 1.56774,-0.33926 2.89858,-1.27075 5.40873,0.74603 z" style="fill:#0a51a1;fill-opacity:1;fill-rule:evenodd;stroke:#0a51a1;stroke-width:1px;stroke-linecap:butt;stroke-linejoin:miter;stroke-opacity:1" id="path6234" />
  <path d="m 347.96313,284.80954 a 23.606705,23.606705 0 1 1 -8.3e-4,-0.19753" style="fill:#ffffff;fill-opacity:1;fill-rule:evenodd;stroke:#000000;stroke-width:2;stroke-linecap:square;stroke-linejoin:miter;stroke-miterlimit:4;stroke-opacity:1;stroke-dasharray:none;stroke-dashoffset:7" id="path3188" />
  <path d="M 432.36699,291.00794 C 407.07723,261.5137 370.65842,261.6161 371.43795,262.7854 l 0,-7.12157 c -5.53722,6.33386 -12.95976,8.89707 -20.57344,11.078 6.66264,1.75404 12.39722,1.18794 20.30968,6.06653 l 0,-4.48396 c 25.46196,1.48214 39.51649,12.35862 53.27993,23.47483 3.05716,3.30232 6.21789,7.48496 7.91287,-0.79129 z" style="fill:#000000;fill-rule:evenodd;stroke:#000000;stroke-width:1px;stroke-linecap:butt;stroke-linejoin:miter;stroke-opacity:1" id="path3151" />
  <path d="m 100.32005,306.92806 108.78277,60.8653 c -0.20105,-2.5608 0.40119,-5.93558 0.96852,-9.27497 2.68032,5.74687 5.592,11.32768 9.97069,15.85542 -5.556,-0.17647 -10.93977,0.42572 -16.13548,1.87799 1.74899,-1.9915 3.34827,-4.05091 4.59282,-6.2712 L 98.935862,309.40882 c 0.0828,-0.90947 -0.17656,-1.89358 1.384188,-2.48076 z" style="fill:#ff0000;fill-opacity:1;fill-rule:evenodd;stroke:#ff0000;stroke-width:1px;stroke-linecap:butt;stroke-linejoin:miter;stroke-opacity:1" id="path3156" inkscape:transform-center-x="13.217207" />
  <path d="m 531.92054,204.23512 -63.85278,158.93535 c -2.94195,-0.18186 -5.41371,-2.05953 -7.9713,-3.62765 2.60915,5.01408 2.86319,10.33225 2.85078,15.68484 5.2527,-4.8618 10.55692,-8.98197 15.95802,-11.70717 -3.26105,0.66672 -6.44525,1.08734 -9.14642,-0.0386 l 64.902,-158.82442 c -0.51904,-1.78788 -1.55447,-1.41912 -2.7403,-0.42232 z" style="fill:#ff0000;fill-opacity:1;fill-rule:evenodd;stroke:#ff0000;stroke-width:1px;stroke-linecap:butt;stroke-linejoin:miter;stroke-opacity:1" id="path3181" inkscape:transform-center-x="-15.194298" inkscape:transform-center-y="16.603351" sodipodi:nodetypes="cccccccc" />
  <path d="m 322.24633,383.7203 27.03561,3.42891 c -0.0602,-2.11484 -0.12375,-4.23975 -0.52753,-7.38534 3.4298,5.52884 8.97563,10.11722 15.56197,14.24315 -9.60968,0.89755 -15.94332,3.16011 -21.36473,5.80277 2.28101,-2.19802 4.33415,-4.39603 4.8796,-6.59405 l -25.58492,-3.42891 c -1.2309,-2.02218 -1.23087,-4.04435 0,-6.06653 z" style="fill:#000000;fill-rule:evenodd;stroke:#000000;stroke-width:1px;stroke-linecap:butt;stroke-linejoin:miter;stroke-opacity:1" id="path3185" />
  <path d="m 314.99286,280.98498 a 3.1651447,3.1651447 0 1 1 -1.1e-4,-0.0265" style="fill:#ffffff;fill-opacity:1;fill-rule:evenodd;stroke:#000000;stroke-width:2;stroke-linecap:square;stroke-linejoin:miter;stroke-miterlimit:4;stroke-opacity:1;stroke-dasharray:none;stroke-dashoffset:7" id="path4159" />
  <path d="m 323.30137,286.58992 a 3.1651447,3.1651447 0 1 1 -1.1e-4,-0.0265" style="fill:#ffffff;fill-opacity:1;fill-rule:evenodd;stroke:#000000;stroke-width:2;stroke-linecap:square;stroke-linejoin:miter;stroke-miterlimit:4;stroke-opacity:1;stroke-dasharray:none;stroke-dashoffset:7" id="path5130" />
  <path d="m 338.3358,288.8319 a 3.1651447,3.1651447 0 1 1 -1.1e-4,-0.0265" style="fill:#ffffff;fill-opacity:1;fill-rule:evenodd;stroke:#000000;stroke-width:2;stroke-linecap:square;stroke-linejoin:miter;stroke-miterlimit:4;stroke-opacity:1;stroke-dasharray:none;stroke-dashoffset:7" id="path5132" />
  <path d="m 331.67581,298.9208 a 3.1651447,3.1651447 0 1 1 -1.1e-4,-0.0265" style="fill:#ffffff;fill-opacity:1;fill-rule:evenodd;stroke:#000000;stroke-width:2;stroke-linecap:square;stroke-linejoin:miter;stroke-miterlimit:4;stroke-opacity:1;stroke-dasharray:none;stroke-dashoffset:7" id="path5134" />
  <path d="m 327.71938,274.52281 a 3.1651447,3.1651447 0 1 1 -1.1e-4,-0.0265" style="fill:#ffffff;fill-opacity:1;fill-rule:evenodd;stroke:#000000;stroke-width:2;stroke-linecap:square;stroke-linejoin:miter;stroke-miterlimit:4;stroke-opacity:1;stroke-dasharray:none;stroke-dashoffset:7" id="path5136" />
  <path d="m 339.98432,273.99528 a 3.1651447,3.1651447 0 1 1 -1.1e-4,-0.0265" style="fill:#ffffff;fill-opacity:1;fill-rule:evenodd;stroke:#000000;stroke-width:2;stroke-linecap:square;stroke-linejoin:miter;stroke-miterlimit:4;stroke-opacity:1;stroke-dasharray:none;stroke-dashoffset:7" id="path5138" />
  <path d="m 237.97822,324.48582 a 3.1651447,3.1651447 0 1 1 -1.1e-4,-0.0265" style="fill:#ffffff;fill-opacity:1;fill-rule:evenodd;stroke:#000000;stroke-width:2;stroke-linecap:square;stroke-linejoin:miter;stroke-miterlimit:4;stroke-opacity:1;stroke-dasharray:none;stroke-dashoffset:7" id="path5142" />
  <path d="m 246.28673,330.93005 a 3.1651447,3.1651447 0 1 1 -1.1e-4,-0.0265" style="fill:#ffffff;fill-opacity:1;fill-rule:evenodd;stroke:#000000;stroke-width:2;stroke-linecap:square;stroke-linejoin:miter;stroke-miterlimit:4;stroke-opacity:1;stroke-dasharray:none;stroke-dashoffset:7" id="path5144" />
  <path d="m 260.76164,332.70576 a 3.1651447,3.1651447 0 1 1 -1.1e-4,-0.0265" style="fill:#ffffff;fill-opacity:1;fill-rule:evenodd;stroke:#000000;stroke-width:2;stroke-linecap:square;stroke-linejoin:miter;stroke-miterlimit:4;stroke-opacity:1;stroke-dasharray:none;stroke-dashoffset:7" id="path5146" />
  <path d="m 254.56792,342.98117 a 3.1651447,3.1651447 0 1 1 -1.1e-4,-0.0265" style="fill:#ffffff;fill-opacity:1;fill-rule:evenodd;stroke:#000000;stroke-width:2;stroke-linecap:square;stroke-linejoin:miter;stroke-miterlimit:4;stroke-opacity:1;stroke-dasharray:none;stroke-dashoffset:7" id="path5148" />
  <path d="m 250.33172,318.30341 a 3.1651447,3.1651447 0 1 1 -1.1e-4,-0.0265" style="fill:#ffffff;fill-opacity:1;fill-rule:evenodd;stroke:#000000;stroke-width:2;stroke-linecap:square;stroke-linejoin:miter;stroke-miterlimit:4;stroke-opacity:1;stroke-dasharray:none;stroke-dashoffset:7" id="path5150" />
  <path d="m 262.96968,318.14891 a 3.1651447,3.1651447 0 1 1 -1.1e-4,-0.0265" style="fill:#ffffff;fill-opacity:1;fill-rule:evenodd;stroke:#000000;stroke-width:2;stroke-linecap:square;stroke-linejoin:miter;stroke-miterlimit:4;stroke-opacity:1;stroke-dasharray:none;stroke-dashoffset:7" id="path5152" />
  <path d="m 281.62696,378.70881 a 3.1651447,3.1651447 0 1 1 -1.1e-4,-0.0265" style="fill:#ffffff;fill-opacity:1;fill-rule:evenodd;stroke:#000000;stroke-width:2;stroke-linecap:square;stroke-linejoin:miter;stroke-miterlimit:4;stroke-opacity:1;stroke-dasharray:none;stroke-dashoffset:7" id="path5170" />
  <path d="m 289.93546,384.31374 a 3.1651447,3.1651447 0 1 1 -1.1e-4,-0.0265" style="fill:#ffffff;fill-opacity:1;fill-rule:evenodd;stroke:#000000;stroke-width:2;stroke-linecap:square;stroke-linejoin:miter;stroke-miterlimit:4;stroke-opacity:1;stroke-dasharray:none;stroke-dashoffset:7" id="path5172" />
  <path d="m 304.9699,386.55572 a 3.1651447,3.1651447 0 1 1 -1.1e-4,-0.0265" style="fill:#ffffff;fill-opacity:1;fill-rule:evenodd;stroke:#000000;stroke-width:2;stroke-linecap:square;stroke-linejoin:miter;stroke-miterlimit:4;stroke-opacity:1;stroke-dasharray:none;stroke-dashoffset:7" id="path5174" />
  <path d="m 298.30991,396.64462 a 3.1651447,3.1651447 0 1 1 -1.1e-4,-0.0265" style="fill:#ffffff;fill-opacity:1;fill-rule:evenodd;stroke:#000000;stroke-width:2;stroke-linecap:square;stroke-linejoin:miter;stroke-miterlimit:4;stroke-opacity:1;stroke-dasharray:none;stroke-dashoffset:7" id="path5176" />
  <path d="m 294.35348,372.24664 a 3.1651447,3.1651447 0 1 1 -1.1e-4,-0.0265" style="fill:#ffffff;fill-opacity:1;fill-rule:evenodd;stroke:#000000;stroke-width:2;stroke-linecap:square;stroke-linejoin:miter;stroke-miterlimit:4;stroke-opacity:1;stroke-dasharray:none;stroke-dashoffset:7" id="path5178" />
  <path d="m 306.61841,371.71911 a 3.1651447,3.1651447 0 1 1 -1.1e-4,-0.0265" style="fill:#ffffff;fill-opacity:1;fill-rule:evenodd;stroke:#000000;stroke-width:2;stroke-linecap:square;stroke-linejoin:miter;stroke-miterlimit:4;stroke-opacity:1;stroke-dasharray:none;stroke-dashoffset:7" id="path5180" />
  <path d="m 433.93053,318.09458 a 3.1651447,3.1651447 0 1 1 -1.1e-4,-0.0265" style="fill:#ffffff;fill-opacity:1;fill-rule:evenodd;stroke:#000000;stroke-width:2;stroke-linecap:square;stroke-linejoin:miter;stroke-miterlimit:4;stroke-opacity:1;stroke-dasharray:none;stroke-dashoffset:7" id="path5186" />
  <path d="m 441.42741,329.15884 c -6e-5,1.74548 -1.41316,3.16144 -3.15863,3.16504 -1.74547,0.004 -3.16439,-1.40654 -3.17163,-3.152 -0.007,-1.74546 1.39991,-3.16732 3.14535,-3.17822 1.74544,-0.0109 3.17025,1.39328 3.1848,3.13869" style="fill:#ffffff;fill-opacity:1;fill-rule:evenodd;stroke:#000000;stroke-width:2;stroke-linecap:square;stroke-linejoin:miter;stroke-miterlimit:4;stroke-opacity:1;stroke-dasharray:none;stroke-dashoffset:7" id="path5188" />
  <path d="m 456.34094,326.68753 a 3.1651447,3.1651447 0 1 1 -1.1e-4,-0.0265" style="fill:#ffffff;fill-opacity:1;fill-rule:evenodd;stroke:#000000;stroke-width:2;stroke-linecap:square;stroke-linejoin:miter;stroke-miterlimit:4;stroke-opacity:1;stroke-dasharray:none;stroke-dashoffset:7" id="path5190" />
  <path d="m 451.17301,336.77643 a 3.1651447,3.1651447 0 1 1 -1.1e-4,-0.0265" style="fill:#ffffff;fill-opacity:1;fill-rule:evenodd;stroke:#000000;stroke-width:2;stroke-linecap:square;stroke-linejoin:miter;stroke-miterlimit:4;stroke-opacity:1;stroke-dasharray:none;stroke-dashoffset:7" id="path5192" />
  <path d="m 446.65705,312.19193 a 3.1651447,3.1651447 0 1 1 -1.1e-4,-0.0265" style="fill:#ffffff;fill-opacity:1;fill-rule:evenodd;stroke:#000000;stroke-width:2;stroke-linecap:square;stroke-linejoin:miter;stroke-miterlimit:4;stroke-opacity:1;stroke-dasharray:none;stroke-dashoffset:7" id="path5194" />
  <path d="m 459.295,312.22393 a 3.1651447,3.1651447 0 1 1 -1.1e-4,-0.0265" style="fill:#ffffff;fill-opacity:1;fill-rule:evenodd;stroke:#000000;stroke-width:2;stroke-linecap:square;stroke-linejoin:miter;stroke-miterlimit:4;stroke-opacity:1;stroke-dasharray:none;stroke-dashoffset:7" id="path5196" />
  <path d="m 336.47915,273.34365 c 2.46192,-4.72504 2.52067,-7.89429 3.39823,-13.26811 0.8459,1.87898 2.22536,2.30458 3.71654,3.36304 L 426.57218,60.742047 c 0.87927,-0.251613 1.66689,-0.312081 1.96747,0.64341 L 344.44904,264.92458 c 1.32312,0.99016 2.70265,1.87668 4.49581,2.00326 -5.68963,1.6043 -9.24008,3.9535 -12.4657,6.41581 z" style="fill:#ff0000;fill-opacity:1;fill-rule:evenodd;stroke:#ff0000;stroke-width:0.89072275px;stroke-linecap:butt;stroke-linejoin:miter;stroke-opacity:1" id="path3183" sodipodi:nodetypes="cccccccc" />
  <path d="m 390.29693,403.8981 a 3.1651447,3.1651447 0 1 1 -1.1e-4,-0.0265" style="fill:#ffffff;fill-opacity:1;fill-rule:evenodd;stroke:#000000;stroke-width:2;stroke-linecap:square;stroke-linejoin:miter;stroke-miterlimit:4;stroke-opacity:1;stroke-dasharray:none;stroke-dashoffset:7" id="path5198" />
  <path d="m 406.5183,416.29491 a 3.1651447,3.1651447 0 1 1 -1.1e-4,-0.0265" style="fill:#ffffff;fill-opacity:1;fill-rule:evenodd;stroke:#000000;stroke-width:2;stroke-linecap:square;stroke-linejoin:miter;stroke-miterlimit:4;stroke-opacity:1;stroke-dasharray:none;stroke-dashoffset:7" id="path5200" />
  <path d="m 415.09057,438.31905 a 3.1651447,3.1651447 0 1 1 -1.1e-4,-0.0265" style="fill:#ffffff;fill-opacity:1;fill-rule:evenodd;stroke:#000000;stroke-width:2;stroke-linecap:square;stroke-linejoin:miter;stroke-miterlimit:4;stroke-opacity:1;stroke-dasharray:none;stroke-dashoffset:7" id="path5202" />
  <path d="m 412.98047,447.41883 a 3.1651447,3.1651447 0 1 1 -1.1e-4,-0.0265" style="fill:#ffffff;fill-opacity:1;fill-rule:evenodd;stroke:#000000;stroke-width:2;stroke-linecap:square;stroke-linejoin:miter;stroke-miterlimit:4;stroke-opacity:1;stroke-dasharray:none;stroke-dashoffset:7" id="path5204" />
  <path d="m 387.92308,430.93371 a 3.1651447,3.1651447 0 1 1 -1.1e-4,-0.0265" style="fill:#ffffff;fill-opacity:1;fill-rule:evenodd;stroke:#000000;stroke-width:2;stroke-linecap:square;stroke-linejoin:miter;stroke-miterlimit:4;stroke-opacity:1;stroke-dasharray:none;stroke-dashoffset:7" id="path5206" />
  <path d="m 381.59279,438.84657 a 3.1651447,3.1651447 0 1 1 -1.1e-4,-0.0265" style="fill:#ffffff;fill-opacity:1;fill-rule:evenodd;stroke:#000000;stroke-width:2;stroke-linecap:square;stroke-linejoin:miter;stroke-miterlimit:4;stroke-opacity:1;stroke-dasharray:none;stroke-dashoffset:7" id="path5208" />
  <path d="m 371.70171,430.80183 a 3.1651447,3.1651447 0 1 1 -1.1e-4,-0.0265" style="fill:#ffffff;fill-opacity:1;fill-rule:evenodd;stroke:#000000;stroke-width:2;stroke-linecap:square;stroke-linejoin:miter;stroke-miterlimit:4;stroke-opacity:1;stroke-dasharray:none;stroke-dashoffset:7" id="path5210" />
  <path d="m 361.0423,430.80183 a 3.1651447,3.1651447 0 1 1 -1.1e-4,-0.0265" style="fill:#ffffff;fill-opacity:1;fill-rule:evenodd;stroke:#000000;stroke-width:2;stroke-linecap:square;stroke-linejoin:miter;stroke-miterlimit:4;stroke-opacity:1;stroke-dasharray:none;stroke-dashoffset:7" id="path5212" />
  <path d="m 369.45973,451.24338 a 3.1651447,3.1651447 0 1 1 -1.1e-4,-0.0265" style="fill:#ffffff;fill-opacity:1;fill-rule:evenodd;stroke:#000000;stroke-width:2;stroke-linecap:square;stroke-linejoin:miter;stroke-miterlimit:4;stroke-opacity:1;stroke-dasharray:none;stroke-dashoffset:7" id="path5214" />
  <path d="m 350.46179,449.46817 a 3.1651447,3.1651447 0 1 1 -1.1e-4,-0.0265" style="fill:#ffffff;fill-opacity:1;fill-rule:evenodd;stroke:#000000;stroke-width:2;stroke-linecap:square;stroke-linejoin:miter;stroke-miterlimit:4;stroke-opacity:1;stroke-dasharray:none;stroke-dashoffset:7" id="path5216" />
  <path d="m 323.03761,449.52894 a 3.1651447,3.1651447 0 1 1 -1.1e-4,-0.0265" style="fill:#ffffff;fill-opacity:1;fill-rule:evenodd;stroke:#000000;stroke-width:2;stroke-linecap:square;stroke-linejoin:miter;stroke-miterlimit:4;stroke-opacity:1;stroke-dasharray:none;stroke-dashoffset:7" id="path5218" />
  <path d="m 388.7225,454.303 a 3.1651447,3.1651447 0 1 1 -1.1e-4,-0.0265" style="fill:#ffffff;fill-opacity:1;fill-rule:evenodd;stroke:#000000;stroke-width:2;stroke-linecap:square;stroke-linejoin:miter;stroke-miterlimit:4;stroke-opacity:1;stroke-dasharray:none;stroke-dashoffset:7" id="path5220" />
  <path d="m 410.21099,465.8822 a 6.3302894,15.034437 0 1 1 -2.2e-4,-0.12581" style="fill:#f0037f;fill-opacity:1;fill-rule:evenodd;stroke:#000000;stroke-width:2;stroke-linecap:square;stroke-linejoin:miter;stroke-miterlimit:4;stroke-opacity:1;stroke-dasharray:none;stroke-dashoffset:7" id="path5223" />
  <path d="m 395.26604,466.01408 a 6.3302894,15.034437 0 1 1 -2.2e-4,-0.12581" style="fill:#f0037f;fill-opacity:1;fill-rule:evenodd;stroke:#000000;stroke-width:2;stroke-linecap:square;stroke-linejoin:miter;stroke-miterlimit:4;stroke-opacity:1;stroke-dasharray:none;stroke-dashoffset:7" id="path5225" />
  <path d="m 364.40352,466.08001 a 6.3302894,15.034437 0 1 1 -2.2e-4,-0.12581" style="fill:#f0037f;fill-opacity:1;fill-rule:evenodd;stroke:#000000;stroke-width:2;stroke-linecap:square;stroke-linejoin:miter;stroke-miterlimit:4;stroke-opacity:1;stroke-dasharray:none;stroke-dashoffset:7" id="path5227" />
  <path d="m 334.77503,475.90514 c 15.25321,22.66719 22.72857,43.04548 56.70884,54.86251 3.27389,-1.09636 3.75773,-3.38846 2.11009,-6.59405 -28.36811,-5.30551 -38.54747,-28.79978 -51.4336,-49.58727 -5.21322,-3.96271 -5.3413,0.21081 -7.38533,1.31881 z" style="fill:#0a51a1;fill-opacity:1;fill-rule:evenodd;stroke:#0a51a1;stroke-width:1px;stroke-linecap:butt;stroke-linejoin:miter;stroke-opacity:1" id="path6238" />
  <path d="m 349.45857,466.21189 a 6.3302894,15.034437 0 1 1 -2.2e-4,-0.12581" style="fill:#f0037f;fill-opacity:1;fill-rule:evenodd;stroke:#000000;stroke-width:2;stroke-linecap:square;stroke-linejoin:miter;stroke-miterlimit:4;stroke-opacity:1;stroke-dasharray:none;stroke-dashoffset:7" id="path5229" />
  <path d="m 322.69788,463.39438 a 6.3302894,15.034437 0 1 1 -2.2e-4,-0.12581" style="fill:#f0037f;fill-opacity:1;fill-rule:evenodd;stroke:#000000;stroke-width:2;stroke-linecap:square;stroke-linejoin:miter;stroke-miterlimit:4;stroke-opacity:1;stroke-dasharray:none;stroke-dashoffset:7" id="path5231" />
  <path d="m 307.75293,463.52626 a 6.3302894,15.034437 0 1 1 -2.2e-4,-0.12581" style="fill:#f0037f;fill-opacity:1;fill-rule:evenodd;stroke:#000000;stroke-width:2;stroke-linecap:square;stroke-linejoin:miter;stroke-miterlimit:4;stroke-opacity:1;stroke-dasharray:none;stroke-dashoffset:7" id="path5233" />
  <path d="m 345.61578,409.19802 a 15.034438,6.3302897 84.893745 1 1 -0.0114,-0.1253" style="fill:#8a0a07;fill-opacity:1;fill-rule:evenodd;stroke:#000000;stroke-width:2;stroke-linecap:square;stroke-linejoin:miter;stroke-miterlimit:4;stroke-opacity:1;stroke-dasharray:none;stroke-dashoffset:7" id="path5236" />
  <path d="m 330.74188,410.65952 a 15.034438,6.3302897 84.893745 1 1 -0.0114,-0.12529" style="fill:#8a0a07;fill-opacity:1;fill-rule:evenodd;stroke:#000000;stroke-width:2;stroke-linecap:square;stroke-linejoin:miter;stroke-miterlimit:4;stroke-opacity:1;stroke-dasharray:none;stroke-dashoffset:7" id="path5238" />
  <path d="m 257.57127,396.07691 a 6.3302896,15.034437 11.678123 1 1 0.0253,-0.12325" style="fill:#8a0a07;fill-opacity:1;fill-rule:evenodd;stroke:#000000;stroke-width:2;stroke-linecap:square;stroke-linejoin:miter;stroke-miterlimit:4;stroke-opacity:1;stroke-dasharray:none;stroke-dashoffset:7" id="path5244" />
  <path d="m 242.90899,393.181 a 6.3302896,15.034437 11.678123 1 1 0.0253,-0.12325" style="fill:#8a0a07;fill-opacity:1;fill-rule:evenodd;stroke:#000000;stroke-width:2;stroke-linecap:square;stroke-linejoin:miter;stroke-miterlimit:4;stroke-opacity:1;stroke-dasharray:none;stroke-dashoffset:7" id="path5246" />
  <path d="m 466.50181,389.02523 a 12.68254,11.563492 0 1 1 -4.5e-4,-0.0968" style="fill:#34a02c;fill-opacity:1;fill-rule:evenodd;stroke:#000000;stroke-width:2;stroke-linecap:square;stroke-linejoin:miter;stroke-miterlimit:4;stroke-opacity:1;stroke-dasharray:none;stroke-dashoffset:7" id="path5248" />
  <path d="M 483.0093,396.11712 451.7535,367.7627 c 1.2697,-1.27743 3.49229,-2.07841 5.40712,-3.03327 -5.43881,-0.55207 -10.29108,-2.27722 -15.03444,-4.22019 2.49124,4.04424 3.91784,8.88696 5.01148,13.97939 0.65598,-2.47206 1.63649,-3.9705 2.63762,-5.40712 l 31.51957,28.75006 c 0.70414,-0.17351 1.35777,-0.49857 1.71445,-1.71445 z" style="fill:#000000;fill-rule:evenodd;stroke:#000000;stroke-width:1px;stroke-linecap:butt;stroke-linejoin:miter;stroke-opacity:1" id="path5250" />
  <path d="m 426.2812,383.69683 31.2558,28.35442 c -1.2697,1.27743 -3.49229,2.07841 -5.40712,3.03327 5.43881,0.55207 10.29108,2.27722 15.03444,4.22019 -2.49124,-4.04424 -3.91784,-8.88696 -5.01148,-13.97939 -0.65598,2.47206 -1.63649,3.9705 -2.63762,5.40712 l -31.51957,-28.75006 c -0.70414,0.17351 -1.35777,0.49857 -1.71445,1.71445 z" style="fill:#000000;fill-rule:evenodd;stroke:#000000;stroke-width:1px;stroke-linecap:butt;stroke-linejoin:miter;stroke-opacity:1" id="path5252" />
  <path d="m 268.29426,458.14262 a 12.68254,11.563492 0 1 1 -4.5e-4,-0.0968" style="fill:#34a02c;fill-opacity:1;fill-rule:evenodd;stroke:#000000;stroke-width:2;stroke-linecap:square;stroke-linejoin:miter;stroke-miterlimit:4;stroke-opacity:1;stroke-dasharray:none;stroke-dashoffset:7" id="path5256" />
  <path d="m 284.80175,465.23452 -31.2558,-28.35442 c 1.2697,-1.27743 3.49229,-2.07841 5.40712,-3.03327 -5.43881,-0.55207 -10.29108,-2.27722 -15.03444,-4.22019 2.49124,4.04424 3.91784,8.88696 5.01148,13.97939 0.65598,-2.47206 1.63649,-3.9705 2.63762,-5.40712 l 31.51957,28.75006 c 0.70414,-0.17351 1.35777,-0.49857 1.71445,-1.71445 z" style="fill:#000000;fill-rule:evenodd;stroke:#000000;stroke-width:1px;stroke-linecap:butt;stroke-linejoin:miter;stroke-opacity:1" id="path5258" />
  <path d="m 228.07365,452.81423 31.2558,28.35442 c -1.2697,1.27743 -3.49229,2.07841 -5.40712,3.03327 5.43881,0.55207 10.29108,2.27722 15.03444,4.22019 -2.49124,-4.04424 -3.91784,-8.88696 -5.01148,-13.97939 -0.65598,2.47206 -1.63649,3.9705 -2.63762,5.40712 L 229.7881,451.09978 c -0.70414,0.17351 -1.35777,0.49857 -1.71445,1.71445 z" style="fill:#000000;fill-rule:evenodd;stroke:#000000;stroke-width:1px;stroke-linecap:butt;stroke-linejoin:miter;stroke-opacity:1" id="path5260" />
  <path d="m 292.04557,520.74469 c 35.62138,-9.63514 24.93877,-10.19256 125.55074,-18.46334 1.38248,2.19802 2.19867,4.39603 0.79129,6.59405 -43.00582,1.67039 -84.89686,5.94193 -123.70441,17.40829 -3.17491,-0.01 -2.89263,-2.78529 -2.63762,-5.539 z" style="fill:#0a51a1;fill-opacity:1;fill-rule:evenodd;stroke:#0a51a1;stroke-width:1px;stroke-linecap:butt;stroke-linejoin:miter;stroke-opacity:1" id="path6241" />
  <path d="m 249.77958,526.85459 c 11.62118,-29.22391 27.57701,-51.98674 65.27778,-42.3373 0.68159,2.88973 -0.30959,4.94308 -2.61111,6.34126 -33.41729,-9.56636 -46.8822,12.04287 -56.69842,39.35318 -2.7507,0.65729 -4.70948,-0.53325 -5.96825,-3.35714 z" style="fill:#0a51a1;fill-opacity:1;fill-rule:evenodd;stroke:#0a51a1;stroke-width:1px;stroke-linecap:butt;stroke-linejoin:miter;stroke-opacity:1" id="path6243" />
  <path d="m 244.37085,512.12046 c 35.34898,-18.88897 58.2337,-13.80821 80.94444,-8.39286 1.16577,2.83541 -0.12306,4.61884 -2.4246,5.96826 -23.26941,-6.77897 -47.38574,-8.58234 -74.60318,7.83333 -5.54629,-0.38933 -4.02645,-3.13404 -3.91666,-5.40873 z" style="fill:#0a51a1;fill-opacity:1;fill-rule:evenodd;stroke:#0a51a1;stroke-width:1px;stroke-linecap:butt;stroke-linejoin:miter;stroke-opacity:1" id="path6245" />
  <path d="m 285.71528,508.61163 c 29.00689,0.2456 54.44985,7.80667 70.16071,35.34412" style="fill:none;stroke:#0a51a1;stroke-width:2;stroke-linecap:round;stroke-linejoin:miter;stroke-miterlimit:4;stroke-opacity:1;stroke-dasharray:none" id="path6248" />
  <path d="m 292.5731,542.10942 c 22.59562,-12.19484 45.19123,-22.43383 67.78685,-29.01383" style="fill:none;stroke:#0a51a1;stroke-width:2;stroke-linecap:round;stroke-linejoin:miter;stroke-miterlimit:4;stroke-opacity:1;stroke-dasharray:none" id="path7219" />
  <path d="m 682.69184,3.68374 c 4.07867,0.39724 19.39376,7.33422 23.21839,14.91291 11.73091,23.245335 8.09283,46.194232 3.73082,87.25817 -3.43152,32.30443 -12.42595,77.1854 15.8446,89.59139 -27.62476,14.67109 -19.03523,57.82211 -11.61164,105.95617 2.47249,16.03142 5.77476,55.80681 -8.91832,73.35756 -4.14919,4.95618 -15.74753,11.00236 -22.34787,13.4097" style="fill:none;stroke:#f7da61;stroke-width:4.03672934;stroke-linecap:round;stroke-linejoin:round;stroke-miterlimit:4;stroke-opacity:1;stroke-dasharray:none" id="path9159" sodipodi:nodetypes="csscsss" />
  <path d="m 681.09614,396.75824 c 8.18485,0.4532 15.45281,-1.24923 15.4804,12.74814 1.28631,2.4135 -6.05562,10.37297 15.71102,12.80573 -21.10447,7.49741 -14.08588,11.12755 -14.01599,16.22484 -0.1933,14.03768 -8.63962,14.06229 -17.36896,14.22314" style="fill:none;stroke:#000000;stroke-width:4;stroke-linecap:round;stroke-linejoin:round;stroke-miterlimit:4;stroke-opacity:1;stroke-dasharray:none" id="path10131" sodipodi:nodetypes="ccccc" />
  <path d="m 680.26241,459.2937 c 8.20635,-0.12934 16.67324,-1.02058 22.28256,8.01234 7.53239,15.76691 -10.61598,36.83972 15.18025,38.89205 -24.55846,7.48097 -7.85537,14.56633 -12.66754,34.10565 -5.26736,15.2843 -16.48477,12.2507 -24.81585,13.36298" style="fill:none;stroke:#abda4e;stroke-width:4;stroke-linecap:round;stroke-linejoin:round;stroke-miterlimit:4;stroke-opacity:1;stroke-dasharray:none" id="path11103" sodipodi:nodetypes="ccccc" />
  <path d="m 524.01539,393.39513 -92.50745,50.69795 c -3.88887,-1.0317 -2.2842,-5.68776 -6.00315,-7.46151 2.62192,3.51376 -9.98303,15.76205 -12.00247,19.20091 8.88655,-1.42721 24.19108,-7.31535 31.95227,-8.42812 -3.82311,-0.32504 -7.65164,-0.65689 -12.14522,-1.82439 l 93.81033,-51.00226 c -0.55888,-1.13564 -1.72539,-1.32458 -3.10431,-1.18258 z" style="fill:#ff0000;fill-opacity:1;fill-rule:evenodd;stroke:#ff0000;stroke-width:1.03601003px;stroke-linecap:butt;stroke-linejoin:miter;stroke-opacity:1" id="path3160" inkscape:transform-center-y="18.088147" inkscape:transform-center-x="3.1241991" sodipodi:nodetypes="cccccccc" />
  <text xml:space="preserve" style="font-size:28px;font-style:normal;font-weight:normal;fill:#000000;fill-opacity:1;stroke:none;font-family:Bitstream Vera Sans" x="415.08813" y="57.053425" id="text3328"><tspan sodipodi:role="line" id="tspan3330" x="415.08813" y="57.053425" style="font-size:28px;font-style:normal;font-variant:normal;font-weight:normal;font-stretch:normal;font-family:LMSans12;-inkscape-font-specification:LMSans12">Neurotransmitter</tspan></text>
  <text xml:space="preserve" style="font-size:40px;font-style:normal;font-weight:normal;fill:#000000;fill-opacity:1;stroke:none;font-family:Bitstream Vera Sans" x="549.55676" y="156.40276" id="text3328-4"><tspan sodipodi:role="line" id="tspan3330-4" x="549.55676" y="156.40276" style="font-size:28px;font-style:normal;font-variant:normal;font-weight:normal;font-stretch:normal;text-align:center;text-anchor:middle;font-family:LMSans12;-inkscape-font-specification:LMSans12">Neurotransmitter</tspan><tspan sodipodi:role="line" x="549.55676" y="191.40276" style="font-size:28px;font-style:normal;font-variant:normal;font-weight:normal;font-stretch:normal;text-align:center;text-anchor:middle;font-family:LMSans12;-inkscape-font-specification:LMSans12" id="tspan3371">re-uptake pump</tspan></text>
  <text xml:space="preserve" style="font-size:40px;font-style:normal;font-weight:normal;fill:#000000;fill-opacity:1;stroke:none;font-family:Bitstream Vera Sans" x="587.53693" y="368.52634" id="text3328-1"><tspan sodipodi:role="line" x="587.53693" y="368.52634" style="font-size:28px;font-style:normal;font-variant:normal;font-weight:normal;font-stretch:normal;text-align:center;text-anchor:middle;font-family:LMSans12;-inkscape-font-specification:LMSans12" id="tspan3398">Neurotransmitter</tspan><tspan sodipodi:role="line" x="587.53693" y="403.52634" style="font-size:28px;font-style:normal;font-variant:normal;font-weight:normal;font-stretch:normal;text-align:center;text-anchor:middle;font-family:LMSans12;-inkscape-font-specification:LMSans12" id="tspan3400">receptors</tspan></text>
  <text xml:space="preserve" style="font-size:40px;font-style:normal;font-weight:normal;fill:#000000;fill-opacity:1;stroke:none;font-family:Bitstream Vera Sans" x="98.703125" y="229.7545" id="text3328-0"><tspan sodipodi:role="line" id="tspan3330-1" x="98.703125" y="229.7545" style="font-size:28px;font-style:normal;font-variant:normal;font-weight:normal;font-stretch:normal;text-align:center;text-anchor:middle;font-family:LMSans12;-inkscape-font-specification:LMSans12">Voltage-gated</tspan><tspan sodipodi:role="line" x="98.703125" y="264.75452" style="font-size:28px;font-style:normal;font-variant:normal;font-weight:normal;font-stretch:normal;text-align:center;text-anchor:middle;font-family:LMSans12;-inkscape-font-specification:LMSans12" id="tspan3453">calcium</tspan><tspan sodipodi:role="line" x="98.703125" y="299.75452" style="font-size:28px;font-style:normal;font-variant:normal;font-weight:normal;font-stretch:normal;text-align:center;text-anchor:middle;font-family:LMSans12;-inkscape-font-specification:LMSans12" id="tspan3455">channel</tspan></text>
  <text xml:space="preserve" style="font-size:40px;font-style:normal;font-weight:normal;text-align:center;text-anchor:middle;fill:#000000;fill-opacity:1;stroke:none;font-family:Bitstream Vera Sans" x="819.08942" y="185.66847" id="text3328-14"><tspan sodipodi:role="line" x="819.08942" y="185.66847" style="font-size:28px;font-style:normal;font-variant:normal;font-weight:normal;font-stretch:normal;text-align:center;text-anchor:middle;font-family:LMSans12;-inkscape-font-specification:LMSans12" id="tspan3482">Axon terminal</tspan><tspan sodipodi:role="line" x="819.08942" y="220.66847" style="font-size:28px;font-style:normal;font-variant:normal;font-weight:normal;font-stretch:normal;text-align:center;text-anchor:middle;font-family:LMSans12;-inkscape-font-specification:LMSans12" id="tspan3484">(presynaptic)</tspan></text>
  <text xml:space="preserve" style="font-size:40px;font-style:normal;font-weight:normal;text-align:center;text-anchor:middle;fill:#000000;fill-opacity:1;stroke:none;font-family:Bitstream Vera Sans" x="812.13959" y="428.96902" id="text3328-14-2"><tspan sodipodi:role="line" x="812.13959" y="428.96902" style="font-size:28;font-style:normal;font-variant:normal;font-weight:normal;font-stretch:normal;text-align:center;text-anchor:middle;font-family:LMSans12;-inkscape-font-specification:LMSans12" id="tspan3484-8">Synaptic cleft</tspan></text>
  <text xml:space="preserve" style="font-size:40px;font-style:normal;font-weight:normal;text-align:center;text-anchor:middle;fill:#000000;fill-opacity:1;stroke:none;font-family:Bitstream Vera Sans" x="821.7868" y="493.7865" id="text3328-14-2-9"><tspan sodipodi:role="line" x="821.7868" y="493.7865" style="font-size:28;font-style:normal;font-variant:normal;font-weight:normal;font-stretch:normal;text-align:center;text-anchor:middle;font-family:LMSans12;-inkscape-font-specification:LMSans12" id="tspan3484-8-5">Dendritic spine</tspan><tspan sodipodi:role="line" x="821.7868" y="533.7865" style="font-size:28;font-style:normal;font-variant:normal;font-weight:normal;font-stretch:normal;text-align:center;text-anchor:middle;font-family:LMSans12;-inkscape-font-specification:LMSans12" id="tspan3547">(postsynaptic)</tspan></text>
</svg>
