<?xml version="1.0" encoding="UTF-8" standalone="no"?>
<!-- Created with Inkscape (http://www.inkscape.org/) -->

<svg xmlns:dc="http://purl.org/dc/elements/1.1/" xmlns:cc="http://creativecommons.org/ns#" xmlns:rdf="http://www.w3.org/1999/02/22-rdf-syntax-ns#" xmlns:svg="http://www.w3.org/2000/svg" xmlns="http://www.w3.org/2000/svg" xmlns:sodipodi="http://sodipodi.sourceforge.net/DTD/sodipodi-0.dtd" xmlns:inkscape="http://www.inkscape.org/namespaces/inkscape" width="276.3895" height="218.16002" id="svg2" version="1.1" inkscape:version="0.47 r22583" sodipodi:docname="New document 1">
  <defs id="defs4">
    <inkscape:perspective sodipodi:type="inkscape:persp3d" inkscape:vp_x="0 : 526.18109 : 1" inkscape:vp_y="0 : 1000 : 0" inkscape:vp_z="744.09448 : 526.18109 : 1" inkscape:persp3d-origin="372.04724 : 350.78739 : 1" id="perspective10" />
    <clipPath id="clipPath3630" clipPathUnits="userSpaceOnUse">
      <path id="path3632" d="m 134.989,569.529 90.136,0 0,53.888 -90.136,0 0,-53.888 z" />
    </clipPath>
    <clipPath id="clipPath3198" clipPathUnits="userSpaceOnUse">
      <path id="path3200" d="m 115.483,723.458 348.888,0 0,-306.312 -348.888,0 0,306.312 z" />
    </clipPath>
    <clipPath id="clipPath3174" clipPathUnits="userSpaceOnUse">
      <path id="path3176" d="m 115.483,723.458 348.888,0 0,-306.312 -348.888,0 0,306.312 z" />
    </clipPath>
    <clipPath id="clipPath3160" clipPathUnits="userSpaceOnUse">
      <path id="path3162" d="m 115.483,723.458 348.888,0 0,-306.312 -348.888,0 0,306.312 z" />
    </clipPath>
    <inkscape:perspective id="perspective2824" inkscape:persp3d-origin="0.5 : 0.33333333 : 1" inkscape:vp_z="1 : 0.5 : 1" inkscape:vp_y="0 : 1000 : 0" inkscape:vp_x="0 : 0.5 : 1" sodipodi:type="inkscape:persp3d" />
  </defs>
  <sodipodi:namedview id="base" pagecolor="#ffffff" bordercolor="#666666" borderopacity="1.0" inkscape:pageopacity="0.0" inkscape:pageshadow="2" inkscape:zoom="1.4" inkscape:cx="111.23508" inkscape:cy="101.0917" inkscape:document-units="px" inkscape:current-layer="layer1" showgrid="false" inkscape:window-width="1920" inkscape:window-height="1032" inkscape:window-x="0" inkscape:window-y="0" inkscape:window-maximized="1" />
  <metadata id="metadata7">
    <rdf:RDF>
      <cc:Work rdf:about="">
        <dc:format>image/svg+xml</dc:format>
        <dc:type rdf:resource="http://purl.org/dc/dcmitype/StillImage" />
        <dc:title></dc:title>
      </cc:Work>
    </rdf:RDF>
  </metadata>
  <g inkscape:label="Layer 1" inkscape:groupmode="layer" id="layer1" transform="translate(-263.76492,-134.07555)">
    <path id="path3154" style="fill:#b6b5b5;fill-opacity:1;fill-rule:nonzero;stroke:none" d="m 452.79443,318.5893 0.0375,-4.8025 39.44,1.92125 47.37375,1.3875 -0.12375,1.35" />
    <path d="m 313.64818,183.58305 8.535,0 0,-48.65375 -8.535,0 0,48.65375 z" style="fill:none;stroke:#3b3839;stroke-width:1.7075001;stroke-linecap:butt;stroke-linejoin:miter;stroke-miterlimit:4;stroke-opacity:1;stroke-dasharray:none" id="path3164" />
    <path id="path3168" style="fill:none;stroke:#231f20;stroke-width:0.85375005;stroke-linecap:butt;stroke-linejoin:round;stroke-miterlimit:10;stroke-opacity:1;stroke-dasharray:none" d="m 286.33318,270.5768 166.8725,0 0.14125,-21.55375 0.7825,1.0675 0.78375,0.99625 0.78125,0.92375 0.7825,0.925 0.8525,0.85375 0.78375,0.85375 0.78125,0.78125 0.7825,0.7125 0.85375,0.71125 0.78375,0.64 m 0,0 0.78125,0.64 0.7825,0.64 0.8525,0.56875 0.78375,0.57 0.7825,0.49875 0.78125,0.4975 0.78375,0.4975 0.85375,0.42625 0.7825,0.4275 0.78125,0.42625 0.78375,0.35625 0.8525,0.355 0.7825,0.35625 0.78125,0.355 0.78375,0.285 0.855,0.35625 0.78125,0.28375 0.7825,0.21375 0.7825,0.28375 0.7825,0.285 0.85375,0.21375 0.7825,0.21375 0.7825,0.2125 0.78125,0.21375 0.85375,0.21375 0.7825,0.14125 0.78375,0.21375 0.78125,0.1425 0.855,0.1425 0.78125,0.1425 0.78375,0.14125 0.78125,0.1425 0.7825,0.1425 0.8525,0.1425 0.78375,0.0712 0.7825,0.14125 0.78125,0.0713 0.85375,0.1425 0.78375,0.0713 0.7825,0.0712 0.78125,0.0713 0.85375,0.1425 0.7825,0.07 0.7825,0.0725 0.78125,0.07 0.78375,0.0712 0.855,0.0713 0.78125,0 0.7825,0.0712 0.78375,0.0713 0.8525,0.0713 0.78125,0 0.7825,0.07 0.78375,0.0725 0.85375,0 0.78125,0.0713 0.7825,0 0.78375,0.07 0.78125,0 0.85375,0.0725 0.78125,0 0.78375,0.07 1.63625,0 0.78125,0.0713 0.78375,0 0.7825,0.0712 2.4175,0 0.7825,0.0713 2.41875,0 0.7825,0.0713 3.2,0 0.7825,0.0712 4.83875,0 0.7825,0.07 7.965,0 0.8525,0.0725 0.0725,0 m -253.36625,48.0825 31.9375,0 0,-31.08375 1.63625,0.71125 0.7825,0.35625 0.7825,0.28375 0.8525,0.285 0.7825,0.28375 0.78375,0.285 0.78125,0.28375 0.7825,0.285 0.8525,0.285 0.78375,0.28375 0.7825,0.285 0.78125,0.285 0.855,0.28375 0.78125,0.285 0.78125,0.21375 0.7825,0.285 0.85375,0.28375 0.78375,0.21375 0.7825,0.28375 0.78125,0.21375 0.78375,0.28375 0.85375,0.285 0.7825,0.21375 0.78125,0.2125 0.7825,0.285 0.85375,0.21375 0.7825,0.21375 0.7825,0.28375 0.7825,0.21375 0.855,0.21375 0.78125,0.2125 0.7825,0.285 0.78375,0.21375 0.78125,0.21375 0.8525,0.2125 0.7825,0.21375 0.78375,0.21375 0.78125,0.2125 0.855,0.21375 0.78125,0.21375 0.78375,0.21375 0.78125,0.1425 0.85375,0.2125 0.78125,0.21375 0.78375,0.21375 0.7825,0.14125 0.85375,0.21375 0.78125,0.1425 0.78375,0.2125 0.7825,0.21375 1.03125,0.26625 0.16,3.04125 1.22625,0.25 0.7825,0.14125 0.78125,0.1425 0.855,0.1425 0.78375,0.1425 0.78125,0.1425 0.7825,0.14125 0.8525,0.1425 0.78375,0.1425 0.78125,0.1425 0.7825,0.14125 0.78375,0.1425 0.85375,0.1425 0.78125,0.1425 0.7825,0.1425 0.78375,0.07 0.8525,0.1425 0.7825,0.1425 0.78125,0.1425 0.78375,0.14125 0.85375,0.0725 0.7825,0.14125 0.78125,0.1425 0.78375,0.0713 0.7825,0.1425 0.85375,0.1425 0.78125,0.07 m 0,0.001 0.7825,0.1425 0.7825,0.1425 0.85375,0.07 0.7825,0.1425 0.7825,0.0712 0.7825,0.1425 0.85375,0.1425 0.7825,0.07 0.78375,0.1425 0.78125,0.0713 0.7825,0.0713 0.8525,0.1425 0.78375,0.0713 0.78125,0.14125 0.7825,0.0713 0.85375,0.1425 0.78375,0.0713 0.78125,0.0713 0.7825,0.1425 0.8525,0.0712 0.78375,0.0713 0.7825,0.14125 0.78125,0.0725 0.78375,0.07 0.85375,0.1425 0.7825,0.0713 0.78125,0.0713 0.78375,0.0712 0.8525,0.14125 0.7825,0.0725 0.78125,0.07 0.78375,0.0713 0.855,0.0713 0.78125,0.14125 0.7825,0.0725 0.7825,0.0712 0.7825,0.07 0.8525,0.0725 0.7825,0.0712 0.78375,0.07 0.78125,0.0713 0.85375,0.1425 0.7825,0.07 0.78375,0.0725 0.78125,0.0713 0.85375,0.07 0.78125,0.0713 0.78375,0.0713 0.7825,0.0712 0.78125,0.0713 0.85375,0.0712 0.78375,0.07 0.7825,0.0725 0.78125,0.0712 0.85375,0.07 0.7825,0.0725 0.7825,0 0.78125,0.07 0.855,0.0712 0.78375,0.0713 0.78125,0.0713 0.7825,0.0712 0.7825,0.07 0.855,0.0725 0.78125,0.0712 0.7825,0 0.7825,0.07 0.85375,0.0713 0.78125,0.0713 0.7825,0.0712 0.78375,0.0713 0.85375,0 0.78125,0.0713 0.7825,0.0712 0.78375,0.0713 0.78125,0 0.85375,0.0712 0.78125,0.07 0.78375,0.0725 0.7825,0 0.85375,0.07 0.78125,0.0713 0.78375,0.07 0.7825,0 0.8525,0.0725 0.7825,0.0712 0.7825,0 0.7825,0.07 0.85375,0.0725 0.7825,0 0.78375,0.0712 0.78125,0.07 0.7825,0 0.8525,0.0713 0.78375,0.0713 0.78125,0 0.7825,0.0712 0.85375,0 0.78375,0.0713 m 0,0.001 0.78125,0.0712 0.7825,0 0.8525,0.0713 0.78375,0 0.7825,0.0712 0.78125,0.07 0.78375,0 0.85375,0.0712 0.7825,0 0.78125,0.0713 0.78375,0 0.8525,0.0713 0.7825,0 0.78125,0.0712 0.78375,0.0713 0.855,0 0.78125,0.0712 0.7825,0 0.7825,0.0713 0.7825,0 0.85375,0.0713 0.7825,0 0.7825,0.0712 1.635,0 0.7825,0.0713 0.78375,0 0.78125,0.07 0.855,0 0.78125,0.0713 0.78375,0 0.78125,0.0725 0.7825,0 0.8525,0.07 1.56625,0 0.78125,0.0713 0.85375,0 0.78375,0.07 1.56375,0 0.85375,0.0725 0.7825,0 0.7825,0.07 1.565,0 0.855,0.0713 0.78125,0 0.7825,0.0725 1.63625,0 0.78125,0.07 1.56625,0 0.85375,0.0713 1.56375,0 0.78375,0.0712 1.635,0 0.78125,0.0713 1.56625,0 0.85375,0.0713 1.565,0 0.7825,0.0712 1.63375,0 0.78375,0.07 2.41875,0 0.7825,0.0713 1.565,0 0.8525,0.0725 2.3475,0 0.85375,0.07 2.3475,0 0.78375,0.0713 2.4175,0 0.7825,0.0713 2.4175,0 0.7825,0.0712 2.41875,0 0.7825,0.0713 0.925,0 m -253.36625,34.785 32.79125,0 0.7825,-0.0725 1.565,0 0.8525,-0.0725 2.3475,0 0.7825,-0.0688 2.41875,0 0.78125,-0.0725 2.4175,0 0.7825,-0.0725 2.42,0 0.78125,-0.0687 2.42,0 0.78125,-0.0725 2.41875,0 0.7825,-0.0712 3.20125,0 0.78375,-0.07 3.2,0 0.78125,-0.0725 3.20125,0 0.85375,-0.07 3.9825,0 0.78375,-0.0712 3.9825,0 0.78125,-0.0713 4.83875,0 0.78125,-0.0713 5.62,0 0.7825,-0.07 6.4025,0 0.78125,-0.0725 m 0,0 7.18625,0 0.78125,-0.0713 7.18375,0 0.8525,-0.07 8.74875,0 0.78375,-0.0712 10.385,0 0.85375,-0.0725 11.16875,0 0.78125,-0.07 14.36875,0 0.7825,-0.0712 6.40125,0 0.85375,-0.78125 0.7825,-0.71375 0.78375,-0.71125 0.78125,-0.64 0.7825,-0.64 0.8525,-0.56875 0.78375,-0.49875 0.78125,-0.49625 0.7825,-0.49875 0.85375,-0.4975 0.78375,-0.4275 m 0,0 0.78125,-0.355 0.7825,-0.42625 0.8525,-0.355 0.78375,-0.28625 0.7825,-0.355 0.78125,-0.285 0.78375,-0.285 0.85375,-0.28375 0.7825,-0.2125 0.78125,-0.21375 0.78375,-0.2125 0.8525,-0.21375 0.7825,-0.21375 0.78125,-0.21375 0.78375,-0.1425 0.855,-0.21375 0.78125,-0.14125 0.7825,-0.1425 0.7825,-0.14375 0.7825,-0.07 0.85375,-0.14375 0.7825,-0.14125 0.7825,-0.0713 0.78125,-0.14125 0.85375,-0.0725 0.7825,-0.07 0.78375,-0.14375 0.78125,-0.0687 0.855,-0.0725 0.78125,-0.0713 0.78375,-0.07 0.78125,-0.0725 0.7825,-0.0713 0.8525,0 0.78375,-0.07 0.7825,-0.0725 0.78125,0 0.85375,-0.07 0.78375,-0.0713 0.7825,0 0.78125,-0.0725 0.85375,0 0.7825,-0.07 0.7825,0 0.78125,-0.0713 1.63875,0 0.78125,-0.07 1.56625,0 0.8525,-0.0725 1.56375,0 0.78375,-0.07 3.20125,0 0.78125,-0.0713 4.055,0 0.78125,-0.0725 5.5475,0 0.855,-0.07 11.95,0 0.7825,-0.0713 7.32625,0" />
    <path id="path3180" style="fill:none;stroke:#a8a6a7;stroke-width:2.56124997;stroke-linecap:butt;stroke-linejoin:round;stroke-miterlimit:10;stroke-opacity:1;stroke-dasharray:none" d="m 394.30818,179.4218 0,-15.07875 m -38.62375,15.07875 0,-15.07875 m -37.12875,15.07875 0,-15.07875 m -28.96875,15.07875 0,-15.07875" />
    <path id="path3184" style="fill:none;stroke:#706d6e;stroke-width:2.56124997;stroke-linecap:butt;stroke-linejoin:round;stroke-miterlimit:10;stroke-opacity:1;stroke-dasharray:none" d="m 360.16693,154.3493 0,-15.08 m -15.365,15.08 0,-15.08 m -26.88625,15.08 0,-15.08" />
    <path id="path3188" style="fill:none;stroke:#231f20;stroke-width:1.7075001;stroke-linecap:butt;stroke-linejoin:round;stroke-miterlimit:10;stroke-opacity:1;stroke-dasharray:none" d="m 498.62193,147.20055 40.54375,0" />
    <text id="text3190" x="504.02917" y="144.21118" style="font-size:15px">
      <tspan style="font-size:8.75px;font-variant:normal;font-weight:normal;writing-mode:lr-tb;fill:#000000;fill-opacity:1;fill-rule:nonzero;stroke:none;font-family:Helvetica;-inkscape-font-specification:Helvetica" x="504.02917 508.89417 513.75916 518.62421 521.0567 528.34546" y="144.21118" sodipodi:role="line" id="tspan3192">500 ms</tspan>
    </text>
    <path id="path3204" style="fill:none;stroke:#656263;stroke-width:2.56124997;stroke-linecap:butt;stroke-linejoin:round;stroke-miterlimit:10;stroke-opacity:1;stroke-dasharray:none" d="m 436.56068,154.3493 0,-15.08" />
    <path id="path3208" style="fill:none;stroke:#a5a3a4;stroke-width:2.56124997;stroke-linecap:butt;stroke-linejoin:round;stroke-miterlimit:10;stroke-opacity:1;stroke-dasharray:none" d="m 505.70068,179.4218 0,-15.07875" />
    <path id="path3212" style="fill:none;stroke:#231f20;stroke-width:0.625;stroke-linecap:butt;stroke-linejoin:round;stroke-miterlimit:10;stroke-opacity:1;stroke-dasharray:none" d="m 284.62568,178.99555 254.79,0 m -251.8025,-25.07375 252.22875,0" />
    <path id="path3216" style="fill:none;stroke:#231f20;stroke-width:0.85375005;stroke-linecap:butt;stroke-linejoin:round;stroke-miterlimit:10;stroke-opacity:1;stroke-dasharray:2.56125, 2.56125;stroke-dashoffset:0" d="m 320.58318,318.44555 218.93875,0" />
    <text transform="matrix(0.89631629,0.44341527,-0.44341527,0.89631629,0,0)" id="text3218" x="391.5152" y="25.76655" style="font-size:15px">
      <tspan style="font-size:8.74998093px;font-variant:normal;font-weight:normal;writing-mode:lr-tb;fill:#000000;fill-opacity:1;fill-rule:nonzero;stroke:none;font-family:Helvetica;-inkscape-font-specification:Helvetica" x="391.5152 394.42896 399.29395 405.61142 410.47641 413.39017 418.25516 420.68765 423.60138 428.46637 433.33136 435.27386 440.13885 444.51385 449.37885 454.24384 456.6763 461.54129 465.91629 468.34879 473.21378 476.12753 480.99252 483.42413 487.79913 492.66412 497.03909" y="25.76655" sodipodi:role="line" id="tspan3220">reward (delayed by 1-3 sec)</tspan>
    </text>
    <path id="path3276" style="fill:none;stroke:#231f20;stroke-width:0.85375005;stroke-linecap:butt;stroke-linejoin:round;stroke-miterlimit:10;stroke-opacity:1;stroke-dasharray:2.56125, 2.56125;stroke-dashoffset:0" d="m 453.57818,350.06305 85.98,0" />
    <text id="text3278" x="297.48767" y="345.1908" style="font-size:15px">
      <tspan style="font-size:8.75px;font-variant:normal;font-weight:normal;writing-mode:lr-tb;fill:#000000;fill-opacity:1;fill-rule:nonzero;stroke:none;font-family:Helvetica;-inkscape-font-specification:Helvetica" x="297.48767 301.86267 306.23767 311.10269 315.96768 320.83267 323.26517 325.20767 329.58267 332.01517 336.39017 338.82269 341.73642 346.60144 351.46643 356.33142 358.76392 366.06143" y="345.1908" sodipodi:role="line" id="tspan3280">synaptic strength</tspan>
    </text>
    <text id="text3286" x="300.6438" y="263.71692" style="font-size:15px">
      <tspan style="font-size:8.75px;font-variant:normal;font-weight:normal;writing-mode:lr-tb;fill:#000000;fill-opacity:1;fill-rule:nonzero;stroke:none;font-family:Helvetica;-inkscape-font-specification:Helvetica" x="300.6438 305.50879 309.88379 312.31631 315.23004 320.09506 324.47006 329.33505 331.27756 333.22006 338.08505 340.02756 344.89255 347.8063 350.23706 355.10205 359.96704 364.83206 369.69705 376.98581 378.92831 383.7933 391.09079" y="263.71692" sodipodi:role="line" id="tspan3288">extracellular dopamine</tspan>
    </text>
    <text id="text3298" x="267.56155" y="155.12292" style="font-size:15px">
      <tspan style="font-size:8.75px;font-variant:normal;font-weight:normal;writing-mode:lr-tb;fill:#000000;fill-opacity:1;fill-rule:nonzero;stroke:none;font-family:Helvetica;-inkscape-font-specification:Helvetica" x="267.56155 272.42654 275.3403" y="155.12292" sodipodi:role="line" id="tspan3300">pre</tspan>
      <tspan style="font-size:8.75px;font-variant:normal;font-weight:normal;writing-mode:lr-tb;fill:#000000;fill-opacity:1;fill-rule:nonzero;stroke:none;font-family:Helvetica;-inkscape-font-specification:Helvetica" x="263.29242 268.15744 273.02243 277.39743" y="180.44543" sodipodi:role="line" id="tspan3302">post</tspan>
    </text>
    <text id="text3336" x="350.70618" y="294.1073" style="font-size:15px">
      <tspan style="font-size:8.75px;font-variant:normal;font-weight:normal;writing-mode:lr-tb;fill:#000000;fill-opacity:1;fill-rule:nonzero;stroke:none;font-family:Helvetica;-inkscape-font-specification:Helvetica" x="350.70618 355.57117 357.51367 359.45618 364.32117 366.26367 371.12869 373.07117 375.01367 376.95618 379.38867 383.76367 386.19714 388.62964 391.5434 396.40839 400.78339 408.0809" y="294.1073" sodipodi:role="line" id="tspan3338">eligibility trace</tspan>
    </text>
    <path id="path3346" style="fill:none;stroke:#3b3839;stroke-width:0.85375005;stroke-linecap:butt;stroke-linejoin:miter;stroke-miterlimit:4;stroke-opacity:1;stroke-dasharray:none" d="M 319.33818,190.98055 444.45443,254.4918" />
    <path id="path3350" style="fill:#3b3839;fill-opacity:1;fill-rule:nonzero;stroke:none" d="m 449.06193,256.7918 c -2.56875,-0.2775 -5.94625,-0.2475 -8.33875,0.37375 l 3.12625,-2.97625 0.49875,-4.28625 c 0.94125,2.28625 2.9475,5.0025 4.71375,6.88875" />
    <path id="path3366" style="fill:none;stroke:#231f20;stroke-width:0.85375005;stroke-linecap:butt;stroke-linejoin:miter;stroke-miterlimit:4;stroke-opacity:1;stroke-dasharray:1.7075, 3.41375;stroke-dashoffset:0" d="m 318.48443,268.3718 0,15.6475 m 0,-83.365 0,53.49 m 134.615,68.73 0,22.4775 m 0,-73.1225 0,37.2725" />
  </g>
</svg>
