<?xml version="1.0" encoding="UTF-8" standalone="no"?>
<!-- Created with Inkscape (http://www.inkscape.org/) -->

<svg xmlns:dc="http://purl.org/dc/elements/1.1/" xmlns:cc="http://creativecommons.org/ns#" xmlns:rdf="http://www.w3.org/1999/02/22-rdf-syntax-ns#" xmlns:svg="http://www.w3.org/2000/svg" xmlns="http://www.w3.org/2000/svg" xmlns:sodipodi="http://sodipodi.sourceforge.net/DTD/sodipodi-0.dtd" xmlns:inkscape="http://www.inkscape.org/namespaces/inkscape" width="568.36414" height="157.10001" id="svg2" version="1.1" inkscape:version="0.47 r22583" sodipodi:docname="New document 1">
  <defs id="defs4">
    <inkscape:perspective sodipodi:type="inkscape:persp3d" inkscape:vp_x="0 : 526.18109 : 1" inkscape:vp_y="0 : 1000 : 0" inkscape:vp_z="744.09448 : 526.18109 : 1" inkscape:persp3d-origin="372.04724 : 350.78739 : 1" id="perspective10" />
    <inkscape:perspective id="perspective2824" inkscape:persp3d-origin="0.5 : 0.33333333 : 1" inkscape:vp_z="1 : 0.5 : 1" inkscape:vp_y="0 : 1000 : 0" inkscape:vp_x="0 : 0.5 : 1" sodipodi:type="inkscape:persp3d" />
  </defs>
  <sodipodi:namedview id="base" pagecolor="#ffffff" bordercolor="#666666" borderopacity="1.0" inkscape:pageopacity="0.0" inkscape:pageshadow="2" inkscape:zoom="1.979899" inkscape:cx="286.501" inkscape:cy="148.31503" inkscape:document-units="px" inkscape:current-layer="layer1" showgrid="false" inkscape:window-width="1920" inkscape:window-height="1032" inkscape:window-x="0" inkscape:window-y="0" inkscape:window-maximized="1" />
  <metadata id="metadata7">
    <rdf:RDF>
      <cc:Work rdf:about="">
        <dc:format>image/svg+xml</dc:format>
        <dc:type rdf:resource="http://purl.org/dc/dcmitype/StillImage" />
        <dc:title></dc:title>
      </cc:Work>
    </rdf:RDF>
  </metadata>
  <g inkscape:label="Layer 1" inkscape:groupmode="layer" id="layer1" transform="translate(131.53156,-396.03547)">
    <path d="m -92.364058,396.72047 128.56625,0 0,122.03375 -128.56625,0 0,-122.03375 z" style="fill:#ffffff;fill-opacity:1;fill-rule:nonzero;stroke:none" id="path2836" />
    <path d="m -92.364058,518.75422 0,-122.03375 128.565,0 0,122.03375 -128.565,0" style="fill:none;stroke:#ffffff;stroke-width:1;stroke-linecap:butt;stroke-linejoin:round;stroke-miterlimit:10;stroke-opacity:1;stroke-dasharray:none" id="path2838" />
    <path d="m -92.364058,518.75422 128.565,0 m -128.565,-122.03375 128.565,0 m -128.565,122.03375 0,-122.03375 m 128.565,122.03375 0,-122.03375 m -128.565,122.03375 128.565,0 m -128.565,0 0,-122.03375 m 18.29375,122.03375 0,-2.4675 m 0,-119.56625 0,2.3675" style="fill:none;stroke:#000000;stroke-width:1;stroke-linecap:butt;stroke-linejoin:round;stroke-miterlimit:10;stroke-opacity:1;stroke-dasharray:none" id="path2840" />
    <path d="m -70.876558,527.58047 c -0.2425,-1.58375 -1.32875,-2.5225 -2.87375,-2.5225 -1.115,0 -2.1175,0.5175 -2.7175,1.37625 -0.62875,0.94125 -0.91625,2.13 -0.91625,3.89125 0,1.625 0.25875,2.66125 0.85875,3.5225 0.5425,0.7775 1.43,1.205 2.54625,1.205 1.93125,0 3.31625,-1.36625 3.31625,-3.26625 0,-1.80375 -1.28625,-3.0775 -3.10125,-3.0775 -1.00125,0 -1.7875,0.37125 -2.33,1.08375 0.0137,-2.36125 0.81375,-3.67 2.2575,-3.67 0.88625,0 1.50125,0.53125 1.7025,1.4575 l 1.2575,0 z m -3.045,2.195 c 1.21375,0 1.975,0.8075 1.975,2.10625 0,1.21625 -0.86,2.105 -2.01875,2.105 -1.1725,0 -2.05875,-0.92875 -2.05875,-2.1725 0,-1.2025 0.85875,-2.03875 2.1025,-2.03875" style="fill:#000000;fill-opacity:1;fill-rule:nonzero;stroke:none" id="path2842" />
    <path d="m -18.986558,518.75422 0,-2.4675 m 0,-119.56625 0,2.3675" style="fill:none;stroke:#000000;stroke-width:1;stroke-linecap:butt;stroke-linejoin:round;stroke-miterlimit:10;stroke-opacity:1;stroke-dasharray:none" id="path2844" />
    <path d="m -22.155308,532.52297 c 0.2425,1.58375 1.32875,2.53 2.875,2.53 1.115,0 2.13,-0.52 2.7175,-1.3825 0.6425,-0.9425 0.93,-2.13 0.93,-3.89125 0,-1.625 -0.25875,-2.6625 -0.85875,-3.5225 -0.55875,-0.77875 -1.445,-1.19875 -2.56,-1.19875 -1.93125,0 -3.31875,1.365 -3.31875,3.26 0,1.8025 1.2875,3.07375 3.1175,3.07375 0.96125,0 1.665,-0.32875 2.325,-1.08 -0.015,2.36125 -0.82,3.675 -2.2675,3.675 -0.8875,0 -1.50125,-0.53375 -1.70125,-1.46375 l -1.25875,0 z m 3.08875,-6.4175 c 1.17375,0 2.06,0.92875 2.06,2.185 0,1.1875 -0.8725,2.035 -2.10375,2.035 -1.215,0 -1.97625,-0.805 -1.97625,-2.10375 0,-1.22875 0.86,-2.11625 2.02,-2.11625" style="fill:#000000;fill-opacity:1;fill-rule:nonzero;stroke:none" id="path2846" />
    <path d="m 36.200942,518.75422 0,-2.4675 m 0,-119.56625 0,2.3675" style="fill:none;stroke:#000000;stroke-width:1;stroke-linecap:butt;stroke-linejoin:round;stroke-miterlimit:10;stroke-opacity:1;stroke-dasharray:none" id="path2848" />
    <path d="m 32.052192,527.84047 0,6.89875 1.255,0 0,-9.68125 -0.82625,0 c -0.445,1.485 -0.73,1.69 -2.67625,1.9225 l 0,0.86 2.2475,0 z m 11.48125,5.70875 -5.3325,0 c 0.13,-0.7925 0.5875,-1.29875 1.83125,-1.99625 l 1.43,-0.73625 c 1.41625,-0.7375 2.1425,-1.73375 2.1425,-2.92125 0,-0.80625 -0.3425,-1.5575 -0.94,-2.075 -0.60125,-0.52 -1.34625,-0.7625 -2.3025,-0.7625 -1.2875,0 -2.24625,0.43625 -2.805,1.25375 -0.3575,0.5175 -0.515,1.12 -0.5425,2.1025 l 1.25875,0 c 0.0438,-0.65625 0.12875,-1.05125 0.3,-1.365 0.3275,-0.5875 0.9875,-0.94375 1.745,-0.94375 1.14375,0 2.0025,0.77875 2.0025,1.8175 0,0.765 -0.4725,1.41875 -1.3725,1.91 l -1.315,0.71125 c -2.11875,1.1475 -2.7325,2.0625 -2.84875,4.195 l 6.74875,0 0,-1.19" style="fill:#000000;fill-opacity:1;fill-rule:nonzero;stroke:none" id="path2850" />
    <path d="m -92.364058,518.75422 2.48,0 m 126.085,0 -2.58375,0" style="fill:none;stroke:#000000;stroke-width:1;stroke-linecap:butt;stroke-linejoin:round;stroke-miterlimit:10;stroke-opacity:1;stroke-dasharray:none" id="path2852" />
    <path d="m -99.901558,514.10172 c -0.945002,0 -1.803752,0.3975 -2.332502,1.0675 -0.6575,0.84625 -0.98375,2.14375 -0.98375,3.9325 0,3.2625 1.14375,4.995 3.316252,4.995 2.14375,0 3.31625,-1.73375 3.31625,-4.9125 0,-1.88375 -0.315,-3.14125 -0.98625,-4.015 -0.52875,-0.6825 -1.3725,-1.0675 -2.33,-1.0675 z m 0,1.065 c 1.35875,0 2.0325,1.3125 2.0325,3.9075 0,2.745 -0.66,4.0275 -2.0625,4.0275 -1.328752,0 -2.002502,-1.3375 -2.002502,-3.98625 0,-2.64875 0.6725,-3.94875 2.032502,-3.94875" style="fill:#000000;fill-opacity:1;fill-rule:nonzero;stroke:none" id="path2854" />
    <path d="m -92.364058,469.92172 2.48,0 m 126.085,0 -2.58375,0" style="fill:none;stroke:#000000;stroke-width:1;stroke-linecap:butt;stroke-linejoin:round;stroke-miterlimit:10;stroke-opacity:1;stroke-dasharray:none" id="path2856" />
    <path d="m -104.55406,473.76047 -5.3375,0 c 0.13,-0.79125 0.5875,-1.295 1.83125,-1.99 l 1.43,-0.73625 c 1.41625,-0.7375 2.14875,-1.735 2.14875,-2.9225 0,-0.80625 -0.345,-1.55625 -0.9475,-2.075 -0.6,-0.51875 -1.34375,-0.76875 -2.3025,-0.76875 -1.2875,0 -2.245,0.43875 -2.8025,1.26 -0.3575,0.51875 -0.515,1.11875 -0.54375,2.1025 l 1.25875,0 c 0.0412,-0.65625 0.1275,-1.05125 0.3,-1.365 0.32875,-0.5875 0.9875,-0.94875 1.745,-0.94875 1.14375,0 2.0075,0.78125 2.0075,1.8225 0,0.765 -0.47375,1.42 -1.37875,1.91125 l -1.31625,0.71 c -2.11625,1.14625 -2.7325,2.06125 -2.845,4.18875 l 6.7525,0 0,-1.18875 z m 4.646252,-8.4925 c -0.943752,0 -1.802502,0.39875 -2.331252,1.06875 -0.6575,0.84625 -0.9875,2.14375 -0.9875,3.9325 0,3.2625 1.14375,4.99375 3.318752,4.99375 2.14625,0 3.3125,-1.7325 3.3125,-4.9125 0,-1.885 -0.3125,-3.14 -0.98125,-4.01375 -0.52875,-0.6825 -1.3725,-1.06875 -2.33125,-1.06875 z m 0,1.06625 c 1.36,0 2.03,1.31125 2.03,3.9075 0,2.745 -0.65875,4.0275 -2.05875,4.0275 -1.330002,0 -2.006252,-1.3375 -2.006252,-3.98625 0,-2.64875 0.67375,-3.94875 2.035002,-3.94875" style="fill:#000000;fill-opacity:1;fill-rule:nonzero;stroke:none" id="path2858" />
    <path d="m -92.364058,421.08797 2.48,0 m 126.085,0 -2.58375,0" style="fill:none;stroke:#000000;stroke-width:1;stroke-linecap:butt;stroke-linejoin:round;stroke-miterlimit:10;stroke-opacity:1;stroke-dasharray:none" id="path2860" />
    <path d="m -107.11406,423.79922 0,2.31875 1.255,0 0,-2.31875 1.5025,0 0,-1.07375 -1.5025,0 0,-6.29 -0.9275,0 -4.60625,6.0925 0,1.27125 4.27875,0 z m 0,-1.07375 -3.1775,0 3.1775,-4.2375 0,4.2375 z m 7.206252,-6.29 c -0.943752,0 -1.802502,0.3975 -2.331252,1.0675 -0.6575,0.8475 -0.9875,2.145 -0.9875,3.9325 0,3.26375 1.14375,4.99625 3.318752,4.99625 2.14625,0 3.3125,-1.73375 3.3125,-4.91375 0,-1.885 -0.3125,-3.14 -0.98125,-4.015 -0.52875,-0.68125 -1.3725,-1.0675 -2.33125,-1.0675 z m 0,1.06625 c 1.36,0 2.03,1.31125 2.03,3.9075 0,2.74375 -0.65875,4.0275 -2.05875,4.0275 -1.330002,0 -2.006252,-1.3375 -2.006252,-3.9875 0,-2.6475 0.67375,-3.9475 2.035002,-3.9475" style="fill:#000000;fill-opacity:1;fill-rule:nonzero;stroke:none" id="path2862" />
    <path d="m -92.364058,518.75422 128.565,0 m -128.565,-122.03375 128.565,0 m -128.565,122.03375 0,-122.03375 m 128.565,122.03375 0,-122.03375" style="fill:none;stroke:#000000;stroke-width:1;stroke-linecap:butt;stroke-linejoin:round;stroke-miterlimit:10;stroke-opacity:1;stroke-dasharray:none" id="path2864" />
    <path d="m -18.572808,417.04297 0.1025,2.0725 0.2075,1.9725 0.205,1.87375 0.415,3.75 0.1025,1.87375 0.2075,1.77625 0.205,1.775 0.2075,1.6775 0.1025,1.67625 0.2075,1.6775 0.2075,1.57875 0.205,1.57875 0.20875,1.5775 0.1025,1.48 0.41375,2.96 0.20625,1.48 0.105,1.38125 0.205,1.38 0.2075,1.38125 0.2075,1.2825 0.205,1.28375 0.105,1.28125 0.205,1.2825 0.415,2.3675 0.1025,1.18375 0.2075,1.18375 0.205,1.08625 0.415,2.17 0.1025,1.085 0.2075,1.08625 0.205,0.98625 0.2075,0.985 0.1025,0.9875 0.2075,0.98625 0.2075,0.8875 0.205,0.98625 0.2075,0.88875 0.1025,0.8875 0.2075,0.8875 0.2075,0.79 0.205,0.8875 0.105,0.79 0.2050005,0.78875 0.415,1.57875 0.20625,0.69 0.105,0.79 0.20375,0.69 0.20875,0.79 0.20625,0.69 0.10375,0.69 0.2075,0.59125 0.205,0.6925 0.2075,0.69 0.20625,0.59125 0.10375,0.5925 0.20625,0.59125 0.20625,0.5925 0.2075,0.59125 0.1025,0.5925 0.2075,0.59125 0.20625,0.49375 0.20625,0.5925 0.2075,0.4925 0.1025,0.49375 0.2075,0.49375 0.20625,0.4925 0.20625,0.49375 0.10375,0.49375 0.20625,0.4925 0.2075,0.49375 0.20625,0.39375 0.20625,0.49375 0.10375,0.39375 0.20625,0.395 0.2075,0.395 0.20625,0.49375 0.10375,0.39375 0.20625,0.39375 0.20625,0.29625 0.2075,0.395 0.10375,0.395 0.2075,0.39375 0.20625,0.29625 0.205,0.39625 0.20875,0.295 0.1025,0.39375 0.2075,0.29625 0.4125,0.5925 0.10375,0.29625 0.20625,0.295 0.20749997,0.29625 0.20625,0.29625 0.20625,0.29625 0.10375,0.295 0.20625,0.29625 0.2075,0.29625 0.20625,0.1975 0.10375,0.29625 0.20625,0.19625 0.20625,0.29625 0.20750003,0.1975 0.20625,0.29625 0.1025,0.1975 0.2075,0.19625 0.20625,0.29625 0.20625,0.1975 0.10375,0.1975 0.41375,0.39375 0.20625,0.19875 0.20625,0.19625 0.10375,0.1975 0.20625,0.1975 0.2075,0.1975 0.20625,0.1975 0.10375,0.1975 0.2075,0.0987 0.205,0.1975 0.20875,0.19625 0.20625,0.1975 0.10375,0.0975 0.20625,0.1975 0.20625,0.0987 0.2075,0.1975 0.1025,0.0987 0.2075,0.1975 0.20625,0.0987 0.20625,0.1975 0.2075,0.0987 0.1025,0.1975 0.2075,0.0975 0.20625,0.1 0.20625,0.19625 0.10375,0.1 0.20625,0.0975 0.2075,0.0987 0.20625,0.1 0.20625,0.19625 0.10375,0.0987 0.20625,0.0987 0.2075,0.0987 0.20625,0.0987 0.10375,0.0975 0.20625,0.0987 0.20625,0.1 0.2075,0.0975 0.20625,0.0987 0.10375,0.0987 0.20625,0.0987 0.2062495,0.0987 0.2075,0.0987 0.10375,0.0987 0.2075,0.0975 0.20375,0.1 0.20875,0 0.2075,0.0987 0.1025,0.0975 0.2075,0.1 0.205,0.0975 0.2075,0 0.1025,0.0988 0.2075,0.1 0.2075,0 0.205,0.0975 0.2075,0.0987 0.1025,0 0.2075,0.0987 0.2075,0.0987 0.205,0 0.105,0.0987 0.205,0.0987 0.2075,0 0.2075,0.0987 0.205,0 0.105,0.0987 0.205,0 0.2075,0.0987 0.2075,0.0975 0.1025,0 0.2075,0.0987 0.205,0 0.2075,0.0987 0.31,0 0.2075,0.0987 0.205,0 0.2075,0.0987 0.10375,0 0.2075,0.0987 0.4125,0 0.2075,0.0987 0.1025,0 0.2075,0.0975 0.4125,0 0.105,0.1 0.4125,0 0.2075,0.0987 0.30875,0 0.20625,0.0975 0.41375,0 0.10375,0.1 0.4125,0 0.2075,0.0975 0.51625,0 0.20625,0.0987 0.5175,0 0.20625,0.1 0.51625,0 0.2075,0.0975 0.72375,0 0.2075,0.0987 0.93,0 0.20625,0.1 0.72375,0 0.20625,0.0975 1.03375,0 0.20625,0.0987 1.24,0 0.20625,0.0987 1.4475,0 0.2075,0.0987 1.86,0 0.20625,0.0987 2.37625,0 0.2075,0.0987 1.24,0" style="fill:none;stroke:#000000;stroke-width:2;stroke-linecap:butt;stroke-linejoin:round;stroke-miterlimit:10;stroke-opacity:1;stroke-dasharray:none" id="path2866" />
    <path d="m -64.149058,446.83672 0.1025,-3.5525 0.20625,1.48125 0.20625,-3.65125 0.105,1.57875 0.205,1.48 0.2075,1.48 0,-4.44 0.20625,1.48 0.20625,1.57875 0.10375,-4.34125 0.10375,1.47875 0.20625,-3.35375 0.2075,1.57875 0.2075,1.57875 0,-4.2425 0.20625,1.57875 0.205,1.67625 0.105,-3.945 0.20625,1.5775 0.10375,-3.4525 0.20625,1.6775 0.2075,1.57875 0,-4.735 0.4125,3.35375 0,-4.2425 0.2075,1.77625 0.20625,1.67625 0.10375,-4.24125 0.1025,1.775 0.2075,1.6775 0.1025,-4.53875 0.10375,1.77625 0.20625,1.77625 0.10375,-4.14375 0.20625,1.77625 0.10375,-3.74875 0.20625,1.87375 0.2075,1.77625 0.1025,1.6775 0.10375,-3.8475 0.20625,1.77625 0.2075,1.775 0,-4.735 0.20625,1.87375 0.20625,1.775 0.10375,-3.74875 0.20625,1.77625 0.10375,-3.945 0.10375,1.87375 0.20625,1.775 0.10375,-3.55125 0.20625,1.77625 0.20625,1.875 0,-4.73625 0.2075,1.87375 0.20625,1.77625 0,-4.34125 0.2075,1.87625 0.2075,1.87375 0,-4.6375 0.4125,3.74875 0.10375,-3.55125 0.20625,1.97375 0.2075,1.775 0.1025,-3.4525 0.20625,1.87375 0.10375,1.875 0.10375,-4.2425 0.20625,1.875 0.10375,-3.255 0.20625,1.97125 0.20625,1.87625 0.10375,-3.9475 0.20625,1.97375 0.10375,1.87375 0.10375,-4.63625 0.1025,1.9725 0.2075,1.875 0.20625,1.87375 0.10375,-3.64875 0.4125,3.7475 0,-4.43875 0.2075,1.97375 0.20625,1.8725 0.10375,-4.1425 0.1025,1.875 0.2075,-3.255 0.20625,1.87375 0.10375,-3.55125 0.20625,1.9725 0.10375,1.9725 0.1025,-4.5375 0.10375,1.97375 0.20625,1.9725 0.2075,1.875 0.1025,-4.045 0.10375,1.87375 0.2075,-3.255 0.2075,1.9725 0.1025,1.875 0.1025,-3.74875 0.415,3.94625 0.1025,-4.2425 0.10375,1.9725 0.20625,1.97375 0.10375,-4.44 0.10375,1.97375 0.20625,1.9725 0.10375,-4.2425 0.20625,1.975 0.10375,1.97125 0.1025,-4.04375 0.2075,1.9725 0.20625,1.97375 0,-3.94625 0.41375,3.94625 0.1025,-3.84875 0.2075,1.975 0.1025,1.97125 0.1025,-4.5375 0.2075,1.97375 0.1025,1.9725 0.105,-4.44 0.205,2.0725 0.105,-3.15625 0.205,2.07125 0.2075,1.9725 0,-4.73625 0.2075,2.0725 0.1025,-2.86 0.2075,2.07125 0.205,-2.95875 0.2075,2.07125 0.1025,2.0725 0.105,-4.24375 0.205,2.17125 0.2075,1.9725 0,-3.8475 0.2075,2.17125 0.20625,1.9725 0.2075,2.07125 0,-4.83375 0.2075,2.07125 0.10125,1.97375 0.10375,-4.045 0.2075,2.07125 0.2075,1.97375 0,-4.53875 0.205,2.07125 0.105,2.0725 0.205,-3.65 0.105,2.07125 0.205,-3.15625 0.2075,2.07125 0.1025,1.9725 0.105,-4.34 0.205,2.07125 0.105,-3.35375 0.205,2.0725 0.2075,2.07125 0.1025,-3.55125 0.105,2.07125 0.205,-2.96 0.2075,2.0725 0.2075,-2.7625 0.1025,2.0725 0.2075,2.07125 0,-4.43875 0.205,2.16875 0.2075,2.0725 0.1025,-4.24125 0.105,2.07125 0.205,2.07125 0.105,-3.8475 0.205,2.17 0.105,-2.86125 0.205,2.07125 0.2075,2.1725 0.1025,-3.65125 0.2075,2.07125 0.20625,2.17125 0,-4.735 0.2075,2.17 0.10375,2.07125 0.20625,2.07125 0,-4.5375 0.20625,2.17 0.2075,2.0725 0.10375,-4.04625 0.20625,2.1725 0.10375,1.97125 0.20625,2.0725 0,-4.83375 0.20625,2.07125 0.2075,1.97375 0.1025,-3.355 0.2075,2.07125 0.20625,2.0725 0,-4.5375 0.20625,2.07125 0.10375,-2.96 0.20625,2.17 0.2075,1.97375 0.1025,-3.45375 0.2075,2.0725 0.1025,-3.5525 0.2075,2.0725 0.20625,-2.86 0.10375,2.17 0.20625,2.07125 0.10375,-3.8475 0.4125,4.14375 0,-4.2425 0.2075,2.17125 0.20625,2.07125 0.10375,-3.25625 0.20625,2.0725 0.20625,-2.96 0.10375,2.17 0.20625,2.07125 0,-4.735 0.2075,2.0725 0.20625,2.17 0.20625,-2.95875 0.105,2.07125 0.20625,2.0725 0.10375,-3.65125 0.205,2.07125 0.20875,2.0725 0.1025,-4.045 0.10375,2.17 0.20625,-3.255 0.2075,2.07125 0.1025,2.0725 0.10375,-4.53875 0.1025,2.0725 0.2075,-2.86125 0.20625,2.17 0.20625,2.07125 0,-3.945 0.2075,2.07125 0.20625,2.07125 0,-4.5375 0.20625,2.0725 0.2075,2.07125 0.1025,-3.65125 0.2075,2.0725 0.1025,-2.86 0.2075,2.07125 0.20625,2.17 0.20625,1.97375 0.10375,-3.75 0.10375,2.07125 0.20625,2.0725 0,-4.5375 0.20625,2.07125 0.2075,-3.1575 0.1025,2.17 0.2075,2.0725 0,-4.735 0.4125,4.1425 0.10375,-4.04375 0.10375,2.07125 0.20625,2.0725 0.20625,-3.06 0.10375,2.1725 0.2075,-2.96 0.2075,2.17 0.205,2.07125 0,-4.24125 0.2075,2.07125 0.2075,2.07125 0,-4.1425 0.20625,2.07125 0.10375,-3.355 0.20625,2.17125 0.20625,2.0725 0.10375,-4.3425 0.10375,2.17 0.20625,-2.95875 0.20625,2.17125 0.10375,2.07125 0.20625,-2.7625 0.2075,2.07125 0.20625,2.17125 0,-4.34125 0.20625,2.17 0.2075,2.07125 0,-4.24125 0.4125,4.14375 0.2075,2.07125" style="fill:none;stroke:#000000;stroke-width:2;stroke-linecap:butt;stroke-linejoin:round;stroke-miterlimit:10;stroke-opacity:1;stroke-dasharray:none" id="path2868" />
    <path d="m -92.364058,516.78047 0.10375,0 0.1025,0.0975 0.41375,0 0.20625,0.1 0.31,0 0.2075,0.0987 0.4125,0 0.10375,0.0975 0.41375,0 0.20625,0.1 0.51625,0 0.2075,0.0975 0.31,0 0.20625,0.0987 0.51625,0 0.20875,0.1 0.7225,0 0.2075,0.0975 0.51625,0 0.20625,0.0987 0.93,0 0.2075,0.1 0.93,0 0.20625,0.0975 0.82625,0 0.20625,0.0987 1.345,0 0.10375,0.0987 1.55,0 0.1025,0.0987 1.86,0 0.2075,0.0987 2.58375,0 0.2075,0.0987 1.0325,0 0.10375,-4.93375 0.20625,0.0987 0.2075,0.1 0.1025,-4.835 0.2075,0.1975 0.1025,-4.735 0.2075,0.29625 0.1025,0.295 0.1025,-4.735 0.2075,0.39375 0.2075,0.29625 0.1025,-4.735 0.1025,0.49375 0.2075,-4.5375 0.1025,0.4925 0.2075,0.49375 0.1025,-4.6375 0.2075,0.5925 0.1025,-4.44 0.2075,0.69125 0.1025,-4.34125 0.2075,0.79 0.2075,-4.2425 0.205,0.8875 0.105,0.79 0.1025,-4.73625 0.2075,0.88875 0.1025,0.79 0.1025,-4.34125 0.2075,0.98625 0.2075,0.8875 0.205,-4.14375 0.105,0.9875 0.20625,0.98625 0.105,-4.24125 0.205,0.98625 0.2075,0.985 0,-4.635 0.20625,1.08375 0.20625,0.9875 0,-4.835 0.2075,1.08625 0.1025,1.18375 0.2075,-3.94625 0.2075,1.18375 0.205,1.085 0,-4.73625 0.105,1.185 0.205,1.1825 0,-4.8325 0.2075,1.2825 0.2075,1.1825 0.1025,-4.33875 0.1025,1.38 0.2075,-3.65 0.2075,1.2825 0.205,1.38125 0,-4.5375 0.2075,1.38 0.1025,-3.8475 0.2075,1.48 0.2075,1.38125 0.1025,-4.24125 0.2075,1.48" style="fill:none;stroke:#000000;stroke-width:2;stroke-linecap:butt;stroke-linejoin:round;stroke-miterlimit:10;stroke-opacity:1;stroke-dasharray:none" id="path2870" />
    <path d="m -92.364058,421.08797 128.66875,0 m -128.66875,24.3675 128.66875,0 m -128.66875,48.8325 128.66875,0" style="fill:none;stroke:#a5a5a5;stroke-width:1;stroke-linecap:butt;stroke-linejoin:round;stroke-miterlimit:10;stroke-opacity:1;stroke-dasharray:6, 3;stroke-dashoffset:0" id="path2872" />
    <path d="m -48.339058,540.93672 3.55625,0 0,-1.16375 -8.5125,0 0,1.16375 3.57,0 0,9.18875 1.38625,0 0,-9.18875 z m 4.8175,9.18875 1.2375,0 0,-7.4475 -1.2375,0 0,7.4475 z m -0.0113,-8.865 1.24875,0 0,-1.49625 -1.24875,0 0,1.49625 z m 3.36,1.41625 0,7.44875 1.24625,0 0,-4.67375 c 0,-1.08 0.82,-1.95 1.83375,-1.95 0.92125,0 1.44,0.54125 1.44,1.495 l 0,5.12875 1.24625,0 0,-4.67375 c 0,-1.08 0.82125,-1.95 1.8375,-1.95 0.90625,0 1.44625,0.555 1.44625,1.495 l 0,5.12875 1.24625,0 0,-5.58375 c 0,-1.335 -0.8025,-2.0775 -2.26125,-2.0775 -1.04125,0 -1.66625,0.29875 -2.395,1.14 -0.4625,-0.795 -1.0875,-1.14 -2.09875,-1.14 -1.04375,0 -1.72875,0.37 -2.39875,1.26875 l 0,-1.05625 -1.1425,0 z m 18.9925,4.1275 c 0,-1.1375 -0.0888,-1.82 -0.3125,-2.375 -0.505,-1.2225 -1.69625,-1.965 -3.15375,-1.965 -2.17375,0 -3.5725,1.59125 -3.5725,4.03875 0,2.4425 1.35375,3.94875 3.54125,3.94875 1.78625,0 3.02125,-0.965 3.33375,-2.585 l -1.25,0 c -0.34125,0.98 -1.04125,1.49375 -2.03875,1.49375 -0.7875,0 -1.45875,-0.3425 -1.875,-0.96875 -0.2975,-0.42375 -0.40125,-0.85 -0.4175,-1.5875 l 5.745,0 z m -5.71375,-0.9675 c 0.10375,-1.37875 0.98125,-2.28125 2.2325,-2.28125 1.21875,0 2.15625,0.96875 2.15625,2.195 0,0.0275 0,0.0575 -0.0137,0.0863 l -4.375,0 z m 14.2125,-6.06375 -2.76875,0 0,13.3625 2.76875,0 0,-1.0225 -1.53125,0 0,-11.31875 1.53125,0 0,-1.02125 z m 6.9375005,4.9825 c -0.015,-1.46375 -1.0275,-2.29125 -2.83125,-2.29125 -1.8150005,0 -2.9875005,0.89625 -2.9875005,2.2775 0,1.165 0.625,1.71875 2.4675005,2.145 l 1.16125,0.27 c 0.8625,0.19875 1.20875,0.4975 1.20875,1.03625 0,0.69625 -0.73,1.1675 -1.81875,1.1675 -0.67125,0 -1.23625,-0.18625 -1.5487505,-0.5 -0.19375,-0.2125 -0.2825,-0.425 -0.3575,-0.95125 l -1.30875,0 c 0.0587,1.71875 1.07125,2.5425 3.1112505,2.5425 1.96375,0 3.21625,-0.92375 3.21625,-2.3575 0,-1.10875 -0.6575,-1.71875 -2.205,-2.075 l -1.19125,-0.26875 c -1.0125,-0.2275 -1.4400005,-0.54 -1.4400005,-1.06625 0,-0.68125 0.6375005,-1.12875 1.6487505,-1.12875 0.9975,0 1.53375,0.41375 1.5625,1.2 l 1.3125,0 z m 1.2625,8.38 2.77,0 0,-13.3625 -2.77,0 0,1.02125 1.5325,0 0,11.31875 -1.5325,0 0,1.0225" style="fill:#000000;fill-opacity:1;fill-rule:nonzero;stroke:none" id="path2874" />
    <path d="m -123.94156,503.73297 3.25625,-1.065 0,-1.4775 -10.84625,3.63625 0,1.705 10.84625,3.69375 0,-1.40625 -3.25625,-1.09375 0,-3.9925 z m -1.16125,0.37 0,3.295 -4.94,-1.70375 4.94,-1.59125 z m -0.7575,-9.8025 c -0.76,0.0575 -1.25,0.21375 -1.6825,0.4975 -0.72875,0.51125 -1.16,1.40625 -1.16,2.44375 0,2.0025 1.66625,3.305 4.25625,3.305 2.51375,0 4.10375,-1.27625 4.10375,-3.29125 0,-1.77625 -1.115,-2.8975 -3.0175,-3.04 l 0,1.19375 c 1.25,0.19875 1.87375,0.81 1.87375,1.8175 0,1.3075 -1.11625,2.08625 -2.96,2.08625 -1.95,0 -3.1125,-0.76625 -3.1125,-2.0575 0,-0.99375 0.61,-1.61875 1.69875,-1.76125 l 0,-1.19375 z m -2.62,-4.02 0,1.22 -2.1425,0 0,1.18 2.1425,0 0,1.01 1.015,0 0,-1.01 5.89,0 c 0.79,0 1.2325,-0.51125 1.2325,-1.43375 0,-0.28375 -0.0288,-0.56875 -0.10125,-0.96625 l -1.04125,0 c 0.045,0.15625 0.0538,0.34125 0.0538,0.56875 0,0.51125 -0.1475,0.65125 -0.69375,0.65125 l -5.34,0 0,-1.22 -1.015,0 z m 0,-1.29375 7.79375,0 0,-1.18 -7.79375,0 0,1.18 z m -3.05125,0.015 1.5625,0 0,-1.19625 -1.5625,0 0,1.19625 z m 10.84625,-6.265 -7.795,-2.855 0,1.335 6.325,2.1025 -6.325,1.99 0,1.33375 7.795,-2.6125 0,-1.29375 z m -7.795,-4.005 7.79375,0 0,-1.18125 -7.79375,0 0,1.18125 z m -3.05125,0.0138 1.5625,0 0,-1.195 -1.5625,0 0,1.195 z m 3.05125,-5.825 0,1.22125 -2.1425,0 0,1.18125 2.1425,0 0,1.0075 1.015,0 0,-1.0075 5.89,0 c 0.79,0 1.2325,-0.51125 1.2325,-1.43625 0,-0.28375 -0.0288,-0.56875 -0.10125,-0.96625 l -1.04125,0 c 0.045,0.15625 0.0538,0.34125 0.0538,0.56875 0,0.51125 -0.1475,0.6525 -0.69375,0.6525 l -5.34,0 0,-1.22125 -1.015,0 z m 0,-5.8525 6.0725,2.06 -6.0725,1.90375 0,1.26375 7.82875,-2.51375 1.235,0.45375 c 0.55,0.185 0.75875,0.455 0.75875,0.9525 0,0.17 -0.03,0.36875 -0.09,0.625 l 1.11625,0 c 0.13375,-0.24125 0.1925,-0.48375 0.1925,-0.79625 0,-0.3825 -0.13375,-0.795 -0.37125,-1.1075 -0.2825,-0.37 -0.60875,-0.5825 -1.235,-0.81 l -9.435,-3.31 0,1.27875 z m 0,-9.14875 0,1.2175 -2.1425,0 0,1.18125 2.1425,0 0,1.01125 1.015,0 0,-1.01125 5.89,0 c 0.79,0 1.2325,-0.51 1.2325,-1.4325 0,-0.28375 -0.0288,-0.56875 -0.10125,-0.96625 l -1.04125,0 c 0.045,0.15625 0.0538,0.34125 0.0538,0.56875 0,0.51125 -0.1475,0.64875 -0.69375,0.64875 l -5.34,0 0,-1.2175 -1.015,0 z m 0,-1.3225 7.795,0 0,-1.19625 -4.045,0 c -1.115,0 -1.845,-0.26875 -2.27625,-0.83375 -0.28375,-0.37 -0.3725,-0.72375 -0.3875,-1.5475 l -1.265,0 c -0.03,0.1975 -0.0437,0.2975 -0.0437,0.45375 0,0.7675 0.475,1.35 1.63625,2.0325 l -1.41375,0 0,1.09125 z m 7.07,-11.34875 c 0.0288,0.1275 0.025,0.185 0.025,0.255 0,0.4125 -0.22125,0.635 -0.60625,0.635 l -4.58375,0 c -1.38375,0 -2.1275,0.96875 -2.1275,2.80375 0,1.08 0.32625,1.97375 0.9075,2.47125 0.40125,0.34125 0.8475,0.47875 1.6225,0.5075 l 0,-1.19 c -0.9525,-0.0988 -1.38625,-0.63875 -1.38625,-1.74625 0,-1.06625 0.4175,-1.665 1.1625,-1.665 l 0.3275,0 c 0.52125,0 0.74375,0.29875 0.8625,1.23875 0.22375,1.67625 0.28375,1.9325 0.47625,2.38625 0.3725,0.86625 1.0725,1.3025 2.08375,1.3025 1.41375,0 2.30375,-0.935 2.30375,-2.43875 0,-0.9375 -0.34125,-1.69 -1.1425,-2.52875 0.78875,-0.085 1.1425,-0.455 1.1425,-1.22125 0,-0.2425 -0.0288,-0.42625 -0.13,-0.81 l -0.9375,0 z m -1.7275,2.07125 c 0.4175,0 0.67,0.11375 1.0125,0.47125 0.46125,0.48375 0.69375,1.065 0.69375,1.7625 0,0.9225 -0.46,1.46 -1.245,1.46 -0.8175,0 -1.235,-0.525 -1.42875,-1.7875 -0.1775,-1.25125 -0.2375,-1.50875 -0.43125,-1.90625 l 1.39875,0 z m -2.7225,-9.06125 c -0.76,0.0575 -1.25,0.21375 -1.6825,0.4975 -0.72875,0.51125 -1.16,1.40625 -1.16,2.44375 0,2.00375 1.66625,3.305 4.25625,3.305 2.51375,0 4.10375,-1.27625 4.10375,-3.29125 0,-1.775 -1.115,-2.8975 -3.0175,-3.04 l 0,1.19375 c 1.25,0.19875 1.87375,0.81 1.87375,1.8175 0,1.3075 -1.11625,2.08625 -2.96,2.08625 -1.95,0 -3.1125,-0.76625 -3.1125,-2.0575 0,-0.99375 0.61,-1.61875 1.69875,-1.76125 l 0,-1.19375 z m 1.69625,-7.69875 c -1.19125,0 -1.905,0.085 -2.485,0.29875 -1.28,0.4825 -2.05375,1.61875 -2.05375,3.01125 0,2.07375 1.66625,3.40875 4.22625,3.40875 2.56,0 4.13375,-1.2925 4.13375,-3.38125 0,-1.70375 -1.01125,-2.8825 -2.705,-3.18125 l 0,1.1925 c 1.02625,0.3275 1.56125,0.995 1.56125,1.9475 0,0.7525 -0.3575,1.39125 -1.01125,1.78875 -0.44625,0.285 -0.8925,0.38375 -1.66625,0.39875 l 0,-5.48375 z m -1.01375,5.455 c -1.4425,-0.1 -2.38125,-0.9375 -2.38125,-2.13125 0,-1.165 1.0125,-2.06 2.29375,-2.06 0.03,0 0.0575,0 0.0875,0.015 l 0,4.17625 z m -6.35375,-13.56625 0,2.63875 14.00875,0 0,-2.63875 -1.07,0 0,1.4575 -11.8675,0 0,-1.4575 -1.07125,0 z m 5.9075,-8.2275 4.93875,0 0,-1.32375 -10.84625,0 0,1.32375 4.68875,0 0,5.3325 -4.68875,0 0,1.31625 10.84625,0 0,-1.33125 -4.93875,0 0,-5.3175 z m -2.85625,-8.72125 0,5.555 1.08875,0 0,-4.14875 5.59375,4.4475 1.1125,0 0,-6.0525 -1.0875,0 0,4.6175 -5.60625,-4.41875 -1.10125,0 z m 10.9575,-1.13625 0,-2.64375 -14.00875,0 0,2.64375 1.07125,0 0,-1.46375 11.8675,0 0,1.46375 1.07,0" style="fill:#000000;fill-opacity:1;fill-rule:nonzero;stroke:none" id="path2876" />
    <path d="m -18.572808,417.04297 0.1025,2.0725 0.2075,1.9725 0.205,1.87375 0.415,3.75 0.1025,1.87375 0.2075,1.77625 0.205,1.775 0.2075,1.6775 0.1025,1.67625 0.2075,1.6775 0.2075,1.57875 0.205,1.57875 0.20875,1.5775 0.1025,1.48 0.41375,2.96 0.20625,1.48 0.105,1.38125 0.205,1.38 0.2075,1.38125 0.2075,1.2825 0.205,1.28375 0.105,1.28125 0.205,1.2825 0.415,2.3675 0.1025,1.18375 0.2075,1.18375 0.205,1.08625 0.415,2.17 0.1025,1.085 0.2075,1.08625 0.205,0.98625 0.2075,0.985 0.1025,0.9875 0.2075,0.98625 0.2075,0.8875 0.205,0.98625 0.2075,0.88875 0.1025,0.8875 0.2075,0.8875 0.2075,0.79 0.205,0.8875 0.105,0.79 0.2050005,0.78875 0.415,1.57875 0.20625,0.69 0.105,0.79 0.20375,0.69 0.20875,0.79 0.20625,0.69 0.10375,0.69 0.2075,0.59125 0.205,0.6925 0.2075,0.69 0.20625,0.59125 0.10375,0.5925 0.20625,0.59125 0.20625,0.5925 0.2075,0.59125 0.1025,0.5925 0.2075,0.59125 0.20625,0.49375 0.20625,0.5925 0.2075,0.4925 0.1025,0.49375 0.2075,0.49375 0.20625,0.4925 0.20625,0.49375 0.10375,0.49375 0.20625,0.4925 0.2075,0.49375 0.20625,0.39375 0.20625,0.49375 0.10375,0.39375 0.20625,0.395 0.2075,0.395 0.20625,0.49375 0.10375,0.39375 0.20625,0.39375 0.20625,0.29625 0.2075,0.395 0.10375,0.395 0.2075,0.39375 0.20625,0.29625 0.205,0.39625 0.20875,0.295 0.1025,0.39375 0.2075,0.29625 0.4125,0.5925 0.10375,0.29625 0.20625,0.295 0.20749997,0.29625 0.20625,0.29625 0.20625,0.29625 0.10375,0.295 0.20625,0.29625 0.2075,0.29625 0.20625,0.1975 0.10375,0.29625 0.20625,0.19625 0.20625,0.29625 0.20750003,0.1975 0.20625,0.29625 0.1025,0.1975 0.2075,0.19625 0.20625,0.29625 0.20625,0.1975 0.10375,0.1975 0.41375,0.39375 0.20625,0.19875 0.20625,0.19625 0.10375,0.1975 0.20625,0.1975 0.2075,0.1975 0.20625,0.1975 0.10375,0.1975 0.2075,0.0987 0.205,0.1975 0.20875,0.19625 0.20625,0.1975 0.10375,0.0975 0.20625,0.1975 0.20625,0.0987 0.2075,0.1975 0.1025,0.0987 0.2075,0.1975 0.20625,0.0987 0.20625,0.1975 0.2075,0.0987 0.1025,0.1975 0.2075,0.0975 0.20625,0.1 0.20625,0.19625 0.10375,0.1 0.20625,0.0975 0.2075,0.0987 0.20625,0.1 0.20625,0.19625 0.10375,0.0987 0.20625,0.0987 0.2075,0.0987 0.20625,0.0987 0.10375,0.0975 0.20625,0.0987 0.20625,0.1 0.2075,0.0975 0.20625,0.0987 0.10375,0.0987 0.20625,0.0987 0.2062495,0.0987 0.2075,0.0987 0.10375,0.0987 0.2075,0.0975 0.20375,0.1 0.20875,0 0.2075,0.0987 0.1025,0.0975 0.2075,0.1 0.205,0.0975 0.2075,0 0.1025,0.0988 0.2075,0.1 0.2075,0 0.205,0.0975 0.2075,0.0987 0.1025,0 0.2075,0.0987 0.2075,0.0987 0.205,0 0.105,0.0987 0.205,0.0987 0.2075,0 0.2075,0.0987 0.205,0 0.105,0.0987 0.205,0 0.2075,0.0987 0.2075,0.0975 0.1025,0 0.2075,0.0987 0.205,0 0.2075,0.0987 0.31,0 0.2075,0.0987 0.205,0 0.2075,0.0987 0.10375,0 0.2075,0.0987 0.4125,0 0.2075,0.0987 0.1025,0 0.2075,0.0975 0.4125,0 0.105,0.1 0.4125,0 0.2075,0.0987 0.30875,0 0.20625,0.0975 0.41375,0 0.10375,0.1 0.4125,0 0.2075,0.0975 0.51625,0 0.20625,0.0987 0.5175,0 0.20625,0.1 0.51625,0 0.2075,0.0975 0.72375,0 0.2075,0.0987 0.93,0 0.20625,0.1 0.72375,0 0.20625,0.0975 1.03375,0 0.20625,0.0987 1.24,0 0.20625,0.0987 1.4475,0 0.2075,0.0987 1.86,0 0.20625,0.0987 2.37625,0 0.2075,0.0987 1.24,0" style="fill:none;stroke:#000000;stroke-width:2;stroke-linecap:butt;stroke-linejoin:round;stroke-miterlimit:10;stroke-opacity:1;stroke-dasharray:none" id="path2878" />
    <path d="m -64.149058,446.83672 0.1025,-3.5525 0.20625,1.48125 0.20625,-3.65125 0.105,1.57875 0.205,1.48 0.2075,1.48 0,-4.44 0.20625,1.48 0.20625,1.57875 0.10375,-4.34125 0.10375,1.47875 0.20625,-3.35375 0.2075,1.57875 0.2075,1.57875 0,-4.2425 0.20625,1.57875 0.205,1.67625 0.105,-3.945 0.20625,1.5775 0.10375,-3.4525 0.20625,1.6775 0.2075,1.57875 0,-4.735 0.4125,3.35375 0,-4.2425 0.2075,1.77625 0.20625,1.67625 0.10375,-4.24125 0.1025,1.775 0.2075,1.6775 0.1025,-4.53875 0.10375,1.77625 0.20625,1.77625 0.10375,-4.14375 0.20625,1.77625 0.10375,-3.74875 0.20625,1.87375 0.2075,1.77625 0.1025,1.6775 0.10375,-3.8475 0.20625,1.77625 0.2075,1.775 0,-4.735 0.20625,1.87375 0.20625,1.775 0.10375,-3.74875 0.20625,1.77625 0.10375,-3.945 0.10375,1.87375 0.20625,1.775 0.10375,-3.55125 0.20625,1.77625 0.20625,1.875 0,-4.73625 0.2075,1.87375 0.20625,1.77625 0,-4.34125 0.2075,1.87625 0.2075,1.87375 0,-4.6375 0.4125,3.74875 0.10375,-3.55125 0.20625,1.97375 0.2075,1.775 0.1025,-3.4525 0.20625,1.87375 0.10375,1.875 0.10375,-4.2425 0.20625,1.875 0.10375,-3.255 0.20625,1.97125 0.20625,1.87625 0.10375,-3.9475 0.20625,1.97375 0.10375,1.87375 0.10375,-4.63625 0.1025,1.9725 0.2075,1.875 0.20625,1.87375 0.10375,-3.64875 0.4125,3.7475 0,-4.43875 0.2075,1.97375 0.20625,1.8725 0.10375,-4.1425 0.1025,1.875 0.2075,-3.255 0.20625,1.87375 0.10375,-3.55125 0.20625,1.9725 0.10375,1.9725 0.1025,-4.5375 0.10375,1.97375 0.20625,1.9725 0.2075,1.875 0.1025,-4.045 0.10375,1.87375 0.2075,-3.255 0.2075,1.9725 0.1025,1.875 0.1025,-3.74875 0.415,3.94625 0.1025,-4.2425 0.10375,1.9725 0.20625,1.97375 0.10375,-4.44 0.10375,1.97375 0.20625,1.9725 0.10375,-4.2425 0.20625,1.975 0.10375,1.97125 0.1025,-4.04375 0.2075,1.9725 0.20625,1.97375 0,-3.94625 0.41375,3.94625 0.1025,-3.84875 0.2075,1.975 0.1025,1.97125 0.1025,-4.5375 0.2075,1.97375 0.1025,1.9725 0.105,-4.44 0.205,2.0725 0.105,-3.15625 0.205,2.07125 0.2075,1.9725 0,-4.73625 0.2075,2.0725 0.1025,-2.86 0.2075,2.07125 0.205,-2.95875 0.2075,2.07125 0.1025,2.0725 0.105,-4.24375 0.205,2.17125 0.2075,1.9725 0,-3.8475 0.2075,2.17125 0.20625,1.9725 0.2075,2.07125 0,-4.83375 0.2075,2.07125 0.10125,1.97375 0.10375,-4.045 0.2075,2.07125 0.2075,1.97375 0,-4.53875 0.205,2.07125 0.105,2.0725 0.205,-3.65 0.105,2.07125 0.205,-3.15625 0.2075,2.07125 0.1025,1.9725 0.105,-4.34 0.205,2.07125 0.105,-3.35375 0.205,2.0725 0.2075,2.07125 0.1025,-3.55125 0.105,2.07125 0.205,-2.96 0.2075,2.0725 0.2075,-2.7625 0.1025,2.0725 0.2075,2.07125 0,-4.43875 0.205,2.16875 0.2075,2.0725 0.1025,-4.24125 0.105,2.07125 0.205,2.07125 0.105,-3.8475 0.205,2.17 0.105,-2.86125 0.205,2.07125 0.2075,2.1725 0.1025,-3.65125 0.2075,2.07125 0.20625,2.17125 0,-4.735 0.2075,2.17 0.10375,2.07125 0.20625,2.07125 0,-4.5375 0.20625,2.17 0.2075,2.0725 0.10375,-4.04625 0.20625,2.1725 0.10375,1.97125 0.20625,2.0725 0,-4.83375 0.20625,2.07125 0.2075,1.97375 0.1025,-3.355 0.2075,2.07125 0.20625,2.0725 0,-4.5375 0.20625,2.07125 0.10375,-2.96 0.20625,2.17 0.2075,1.97375 0.1025,-3.45375 0.2075,2.0725 0.1025,-3.5525 0.2075,2.0725 0.20625,-2.86 0.10375,2.17 0.20625,2.07125 0.10375,-3.8475 0.4125,4.14375 0,-4.2425 0.2075,2.17125 0.20625,2.07125 0.10375,-3.25625 0.20625,2.0725 0.20625,-2.96 0.10375,2.17 0.20625,2.07125 0,-4.735 0.2075,2.0725 0.20625,2.17 0.20625,-2.95875 0.105,2.07125 0.20625,2.0725 0.10375,-3.65125 0.205,2.07125 0.20875,2.0725 0.1025,-4.045 0.10375,2.17 0.20625,-3.255 0.2075,2.07125 0.1025,2.0725 0.10375,-4.53875 0.1025,2.0725 0.2075,-2.86125 0.20625,2.17 0.20625,2.07125 0,-3.945 0.2075,2.07125 0.20625,2.07125 0,-4.5375 0.20625,2.0725 0.2075,2.07125 0.1025,-3.65125 0.2075,2.0725 0.1025,-2.86 0.2075,2.07125 0.20625,2.17 0.20625,1.97375 0.10375,-3.75 0.10375,2.07125 0.20625,2.0725 0,-4.5375 0.20625,2.07125 0.2075,-3.1575 0.1025,2.17 0.2075,2.0725 0,-4.735 0.4125,4.1425 0.10375,-4.04375 0.10375,2.07125 0.20625,2.0725 0.20625,-3.06 0.10375,2.1725 0.2075,-2.96 0.2075,2.17 0.205,2.07125 0,-4.24125 0.2075,2.07125 0.2075,2.07125 0,-4.1425 0.20625,2.07125 0.10375,-3.355 0.20625,2.17125 0.20625,2.0725 0.10375,-4.3425 0.10375,2.17 0.20625,-2.95875 0.20625,2.17125 0.10375,2.07125 0.20625,-2.7625 0.2075,2.07125 0.20625,2.17125 0,-4.34125 0.20625,2.17 0.2075,2.07125 0,-4.24125 0.4125,4.14375 0.2075,2.07125" style="fill:none;stroke:#000000;stroke-width:2;stroke-linecap:butt;stroke-linejoin:round;stroke-miterlimit:10;stroke-opacity:1;stroke-dasharray:none" id="path2880" />
    <path d="m -92.364058,516.78047 0.10375,0 0.1025,0.0975 0.41375,0 0.20625,0.1 0.31,0 0.2075,0.0987 0.4125,0 0.10375,0.0975 0.41375,0 0.20625,0.1 0.51625,0 0.2075,0.0975 0.31,0 0.20625,0.0987 0.51625,0 0.20875,0.1 0.7225,0 0.2075,0.0975 0.51625,0 0.20625,0.0987 0.93,0 0.2075,0.1 0.93,0 0.20625,0.0975 0.82625,0 0.20625,0.0987 1.345,0 0.10375,0.0987 1.55,0 0.1025,0.0987 1.86,0 0.2075,0.0987 2.58375,0 0.2075,0.0987 1.0325,0 0.10375,-4.93375 0.20625,0.0987 0.2075,0.1 0.1025,-4.835 0.2075,0.1975 0.1025,-4.735 0.2075,0.29625 0.1025,0.295 0.1025,-4.735 0.2075,0.39375 0.2075,0.29625 0.1025,-4.735 0.1025,0.49375 0.2075,-4.5375 0.1025,0.4925 0.2075,0.49375 0.1025,-4.6375 0.2075,0.5925 0.1025,-4.44 0.2075,0.69125 0.1025,-4.34125 0.2075,0.79 0.2075,-4.2425 0.205,0.8875 0.105,0.79 0.1025,-4.73625 0.2075,0.88875 0.1025,0.79 0.1025,-4.34125 0.2075,0.98625 0.2075,0.8875 0.205,-4.14375 0.105,0.9875 0.20625,0.98625 0.105,-4.24125 0.205,0.98625 0.2075,0.985 0,-4.635 0.20625,1.08375 0.20625,0.9875 0,-4.835 0.2075,1.08625 0.1025,1.18375 0.2075,-3.94625 0.2075,1.18375 0.205,1.085 0,-4.73625 0.105,1.185 0.205,1.1825 0,-4.8325 0.2075,1.2825 0.2075,1.1825 0.1025,-4.33875 0.1025,1.38 0.2075,-3.65 0.2075,1.2825 0.205,1.38125 0,-4.5375 0.2075,1.38 0.1025,-3.8475 0.2075,1.48 0.2075,1.38125 0.1025,-4.24125 0.2075,1.48" style="fill:none;stroke:#000000;stroke-width:2;stroke-linecap:butt;stroke-linejoin:round;stroke-miterlimit:10;stroke-opacity:1;stroke-dasharray:none" id="path2882" />
    <path d="m -92.364058,421.08797 128.66875,0 m -128.66875,24.3675 128.66875,0 m -128.66875,48.8325 128.66875,0" style="fill:none;stroke:#a5a5a5;stroke-width:1;stroke-linecap:butt;stroke-linejoin:round;stroke-miterlimit:10;stroke-opacity:1;stroke-dasharray:6, 3;stroke-dashoffset:0" id="path2884" />
    <path d="m 93.673796,396.53547 304.670004,0 0,122.0325 -304.670004,0 0,-122.0325 z" style="fill:#ffffff;fill-opacity:1;fill-rule:nonzero;stroke:none" id="path2886" />
    <path d="m 93.673796,518.56797 0,-122.0325 304.670004,0 0,122.0325 -304.670004,0" style="fill:none;stroke:#ffffff;stroke-width:1;stroke-linecap:butt;stroke-linejoin:round;stroke-miterlimit:10;stroke-opacity:1;stroke-dasharray:none" id="path2888" />
    <path d="m 93.673796,518.56797 304.670004,0 m -304.670004,0 0,-122.0325 m 22.218754,122.0325 0,-2.46625" style="fill:none;stroke:#000000;stroke-width:1;stroke-linecap:butt;stroke-linejoin:round;stroke-miterlimit:10;stroke-opacity:1;stroke-dasharray:none" id="path2890" />
    <path d="m 115.1263,530.11047 0.1575,0 0.53,-0.015 c 1.3875,0 2.10375,0.60375 2.10375,1.76375 0,1.215 -0.78875,1.93875 -2.10375,1.93875 -1.37375,0 -2.04375,-0.655 -2.13,-2.06125 l -1.26,0 c 0.0575,0.77875 0.2,1.2825 0.44375,1.72 0.51375,0.93 1.51625,1.40625 2.9025,1.40625 2.08875,0 3.43,-1.1875 3.43,-3.0175 0,-1.22875 -0.5,-1.91125 -1.71375,-2.3075 0.945,-0.35375 1.41625,-1.03625 1.41625,-2.0075 0,-1.665 -1.15875,-2.6625 -3.08875,-2.6625 -2.045,0 -3.1275,1.065 -3.17,3.12875 l 1.255,0 c 0.0138,-0.5875 0.07,-0.91625 0.22625,-1.215 0.28625,-0.53375 0.91625,-0.86625 1.70375,-0.86625 1.11375,0 1.79,0.63 1.79,1.6575 0,0.6825 -0.2575,1.09125 -0.8175,1.31 -0.34375,0.13625 -0.78875,0.19125 -1.675,0.20625 l 0,1.02125" style="fill:#000000;fill-opacity:1;fill-rule:nonzero;stroke:none" id="path2892" />
    <path d="m 182.55255,518.56797 0,-2.46625" style="fill:none;stroke:#000000;stroke-width:1;stroke-linecap:butt;stroke-linejoin:round;stroke-miterlimit:10;stroke-opacity:1;stroke-dasharray:none" id="path2894" />
    <path d="m 185.7488,527.39047 c -0.24375,-1.58125 -1.33,-2.5225 -2.875,-2.5225 -1.11625,0 -2.1175,0.52 -2.7175,1.38 -0.63,0.9425 -0.915,2.13 -0.915,3.89125 0,1.62375 0.25625,2.6625 0.85875,3.5225 0.5425,0.77875 1.42875,1.20125 2.54375,1.20125 1.93125,0 3.32125,-1.365 3.32125,-3.2625 0,-1.8025 -1.28875,-3.07125 -3.10625,-3.07125 -1.0025,0 -1.79125,0.36875 -2.33375,1.0775 0.0138,-2.36125 0.815,-3.67375 2.26375,-3.67375 0.88625,0 1.50125,0.5325 1.7,1.4575 l 1.26,0 z m -3.04625,2.205 c 1.215,0 1.97875,0.80375 1.97875,2.1 0,1.215 -0.86,2.1025 -2.0225,2.1025 -1.1725,0 -2.06,-0.92875 -2.06,-2.17 0,-1.20125 0.85875,-2.0325 2.10375,-2.0325" style="fill:#000000;fill-opacity:1;fill-rule:nonzero;stroke:none" id="path2896" />
    <path d="m 249.3163,518.56797 0,-2.46625" style="fill:none;stroke:#000000;stroke-width:1;stroke-linecap:butt;stroke-linejoin:round;stroke-miterlimit:10;stroke-opacity:1;stroke-dasharray:none" id="path2898" />
    <path d="m 246.1463,532.33797 c 0.2425,1.5825 1.33125,2.525 2.87375,2.525 1.1175,0 2.13375,-0.5175 2.71875,-1.38 0.645,-0.94 0.92875,-2.12875 0.92875,-3.88875 0,-1.62625 -0.25625,-2.6625 -0.8575,-3.52375 -0.55625,-0.7775 -1.44375,-1.2025 -2.56,-1.2025 -1.93,0 -3.31875,1.36625 -3.31875,3.26375 0,1.8025 1.2875,3.07 3.11875,3.07 0.96,0 1.6625,-0.3275 2.3225,-1.07625 -0.015,2.3625 -0.8175,3.6725 -2.26375,3.6725 -0.8875,0 -1.5025,-0.5325 -1.70375,-1.46 l -1.25875,0 z m 3.08875,-6.4225 c 1.17375,0 2.06125,0.93125 2.06125,2.18875 0,1.18875 -0.8725,2.03125 -2.1025,2.03125 -1.2175,0 -1.97875,-0.80375 -1.97875,-2.0975 0,-1.23 0.86,-2.1225 2.02,-2.1225" style="fill:#000000;fill-opacity:1;fill-rule:nonzero;stroke:none" id="path2900" />
    <path d="m 315.9763,518.56797 0,-2.46625" style="fill:none;stroke:#000000;stroke-width:1;stroke-linecap:butt;stroke-linejoin:round;stroke-miterlimit:10;stroke-opacity:1;stroke-dasharray:none" id="path2902" />
    <path d="m 311.8313,527.65422 0,6.895 1.25625,0 0,-9.68125 -0.83375,0 c -0.4425,1.48875 -0.72875,1.69375 -2.6725,1.92625 l 0,0.86 2.25,0 z m 11.48,5.70625 -5.335,0 c 0.1275,-0.79125 0.585,-1.2975 1.83,-1.99125 l 1.43125,-0.73875 c 1.41625,-0.7375 2.14625,-1.73375 2.14625,-2.92125 0,-0.80625 -0.34375,-1.55625 -0.945,-2.075 -0.6025,-0.51875 -1.34375,-0.76625 -2.30375,-0.76625 -1.28625,0 -2.24625,0.4375 -2.8025,1.25625 -0.3575,0.51875 -0.515,1.12125 -0.545,2.10375 l 1.26,0 c 0.0425,-0.655 0.12875,-1.0525 0.29875,-1.36625 0.33125,-0.58625 0.9875,-0.94625 1.74625,-0.94625 1.145,0 2.0075,0.78 2.0075,1.82 0,0.76625 -0.47375,1.42 -1.3775,1.9125 l -1.31625,0.70875 c -2.11625,1.1475 -2.7325,2.06375 -2.84625,4.1925 l 6.75125,0 0,-1.18875" style="fill:#000000;fill-opacity:1;fill-rule:nonzero;stroke:none" id="path2904" />
    <path d="m 382.7388,518.56797 0,-2.46625" style="fill:none;stroke:#000000;stroke-width:1;stroke-linecap:butt;stroke-linejoin:round;stroke-miterlimit:10;stroke-opacity:1;stroke-dasharray:none" id="path2906" />
    <path d="m 378.58755,527.65422 0,6.895 1.25625,0 0,-9.68125 -0.82625,0 c -0.44375,1.48875 -0.72875,1.69375 -2.67375,1.92625 l 0,0.86 2.24375,0 z m 11.06,-2.78625 -5.2375,0 -0.7575,5.27125 1.1575,0 c 0.58625,-0.66875 1.07375,-0.89875 1.86,-0.89875 1.35875,0 2.22375,0.88625 2.22375,2.31875 0,1.3925 -0.8475,2.23875 -2.22375,2.23875 -1.10125,0 -1.7725,-0.5325 -2.07375,-1.625 l -1.2575,0 c 0.17,0.7925 0.31375,1.175 0.61375,1.53 0.5725,0.7375 1.60125,1.16 2.74625,1.16 2.045,0 3.4775,-1.41875 3.4775,-3.4675 0,-1.91125 -1.33125,-3.22125 -3.27875,-3.22125 -0.71375,0 -1.28625,0.1775 -1.8725,0.58625 l 0.39875,-2.7025 4.22375,0 0,-1.19" style="fill:#000000;fill-opacity:1;fill-rule:nonzero;stroke:none" id="path2908" />
    <path d="m 93.673796,518.56797 2.48,0" style="fill:none;stroke:#000000;stroke-width:1;stroke-linecap:butt;stroke-linejoin:round;stroke-miterlimit:10;stroke-opacity:1;stroke-dasharray:none" id="path2910" />
    <path d="m 86.135046,513.92172 c -0.945,0 -1.8025,0.395 -2.33125,1.0625 -0.6575,0.84625 -0.98125,2.1425 -0.98125,3.93125 0,3.26375 1.1425,5.00125 3.3125,5.00125 2.145,0 3.32,-1.73625 3.32,-4.92 0,-1.88375 -0.315,-3.13875 -0.98875,-4.0125 -0.53,-0.68375 -1.37375,-1.0625 -2.33125,-1.0625 z m 0,1.065 c 1.35875,0 2.03625,1.30875 2.03625,3.90125 0,2.745 -0.66,4.03375 -2.065,4.03375 -1.33,0 -2,-1.34 -2,-3.99125 0,-2.65 0.67125,-3.94375 2.02875,-3.94375" style="fill:#000000;fill-opacity:1;fill-rule:nonzero;stroke:none" id="path2912" />
    <path d="m 93.673796,461.74422 2.48,0" style="fill:none;stroke:#000000;stroke-width:1;stroke-linecap:butt;stroke-linejoin:round;stroke-miterlimit:10;stroke-opacity:1;stroke-dasharray:none" id="path2914" />
    <path d="m 81.476296,465.58797 -5.33,0 c 0.12875,-0.7925 0.58625,-1.2975 1.83,-1.99375 l 1.43125,-0.7375 c 1.415,-0.7375 2.14125,-1.735 2.14125,-2.9225 0,-0.80375 -0.3425,-1.55625 -0.94,-2.075 -0.60125,-0.5175 -1.345,-0.76125 -2.30375,-0.76125 -1.2875,0 -2.245,0.435 -2.8025,1.25375 -0.3575,0.51875 -0.515,1.11875 -0.54375,2.10125 l 1.26,0 c 0.04125,-0.65375 0.1275,-1.05 0.29875,-1.36375 0.33,-0.5875 0.9875,-0.94375 1.745,-0.94375 1.145,0 2.0025,0.77875 2.0025,1.8175 0,0.76375 -0.47125,1.41875 -1.37375,1.91125 l -1.315,0.70875 c -2.1175,1.14875 -2.7325,2.06375 -2.84625,4.19625 l 6.74625,0 0,-1.19125 z m 4.65375,-8.49 c -0.945,0 -1.8025,0.395 -2.33125,1.0625 -0.6575,0.84625 -0.985,2.1425 -0.985,3.93125 0,3.26375 1.14375,5.00125 3.31625,5.00125 2.145,0 3.31625,-1.73625 3.31625,-4.92 0,-1.88375 -0.315,-3.13875 -0.985,-4.0125 -0.53,-0.68375 -1.3725,-1.0625 -2.33125,-1.0625 z m 0,1.065 c 1.35875,0 2.0325,1.30875 2.0325,3.90125 0,2.745 -0.65875,4.03375 -2.06125,4.03375 -1.33,0 -2.005,-1.34 -2.005,-3.99125 0,-2.65 0.67375,-3.94375 2.03375,-3.94375" style="fill:#000000;fill-opacity:1;fill-rule:nonzero;stroke:none" id="path2916" />
    <path d="m 93.673796,405.01922 2.48,0" style="fill:none;stroke:#000000;stroke-width:1;stroke-linecap:butt;stroke-linejoin:round;stroke-miterlimit:10;stroke-opacity:1;stroke-dasharray:none" id="path2918" />
    <path d="m 78.925046,407.72672 0,2.325 1.2575,0 0,-2.325 1.49875,0 0,-1.07625 -1.49875,0 0,-6.28 -0.9325,0 -4.60625,6.08875 0,1.2675 4.28125,0 z m 0,-1.07625 -3.18,0 3.18,-4.2325 0,4.2325 z m 7.205,-6.28 c -0.945,0 -1.8025,0.395 -2.33125,1.06375 -0.6575,0.8475 -0.985,2.145 -0.985,3.93375 0,3.2625 1.14375,4.9975 3.31625,4.9975 2.145,0 3.31625,-1.73375 3.31625,-4.91625 0,-1.88375 -0.315,-3.14 -0.985,-4.015 -0.53,-0.68125 -1.3725,-1.06375 -2.33125,-1.06375 z m 0,1.065 c 1.35875,0 2.0325,1.31125 2.0325,3.905 0,2.745 -0.65875,4.03125 -2.06125,4.03125 -1.33,0 -2.005,-1.33875 -2.005,-3.99 0,-2.64875 0.67375,-3.94625 2.03375,-3.94625" style="fill:#000000;fill-opacity:1;fill-rule:nonzero;stroke:none" id="path2920" />
    <path d="m 93.673796,503.47297 2.17,-0.39375 2.27375,0.5925 2.170004,1.5775 2.2725,1.3825 2.17125,1.28125 2.275,1.085 2.17,0.98625 2.2725,0.395 2.17125,-3.35375 2.2725,-0.0987 2.17,-5.7225 2.275,-9.7675 2.17,-11.14625 2.27375,-9.27375 2.17,-5.82 2.27375,-5.2275 2.17,-5.13125 2.275,-3.55125 2.17,-4.2425 2.2725,-4.635 2.17125,-4.145 2.27375,-3.4525 2.16875,-0.49375 2.275,-0.49125 2.17125,-2.1725 2.2725,-1.9725 2.17,-1.38 2.27375,-2.7625 2.27375,-2.86125 2.17125,-2.76125 2.2725,-0.6925 2.17,-1.97125 2.27375,0.69 2.17125,-0.1 2.27375,-0.8875 2.17,-0.4925 2.27375,-0.5925 2.17,1.185 2.27375,-0.19875 2.17,-1.67625 2.27375,1.48 2.17125,4.93125 2.2725,6.9075 2.17,6.41125 2.27375,5.91875 2.17125,8.18875 2.27375,7.30125 2.17,6.51125 2.27375,5.9175 2.17,2.36875 2.27375,2.465 2.17,2.7625 2.275,0.0987 2.17,1.185 2.27375,4.24125 2.2725,0.8875 2.17,-0.295 2.275,0.39375 2.17,-1.875 2.27375,2.17125 2.17,3.15625 2.27375,0.88875 2.17,1.87375 2.27375,1.2825 2.17,0.2975 2.27375,0.39375 2.17125,1.5775 2.2725,0.59125 2.17,0 2.275,2.1725 2.17,-4.34125 2.2725,-8.09 2.17125,-8.485 2.27375,-5.03 2.17,-5.82125 2.275,-6.11625 2.17,-4.735 2.2725,-3.15625 2.17125,-3.05875 2.2725,-1.57875 2.17,-3.05875 2.275,-3.15625 2.27375,-3.355 2.17,-3.945 2.27375,-1.875 2.17,-2.2675 2.275,-2.4675 2.17,-0.98625 2.2725,-1.3825 2.17125,-0.68875 2.2725,-2.0725 2.17,-0.88875 2.275,-0.68875 2.17,-1.58 2.27375,-0.8875 2.17125,-1.47875 2.2725,0 2.17,0.4925 2.27375,-0.1975 2.17125,-0.395 2.2725,2.86125 2.17,7.39875 2.27375,6.01875 2.17,5.72125 2.275,2.86125 2.17,6.0175 2.27375,5.7225 2.17125,5.03125 2.2725,5.3275 2.27375,3.4525 2.17125,2.86125 2.2725,1.87375 2.17,0.295 2.27375,3.05875 2.17,0.29625 2.275,2.3675 2.17125,1.6775 2.2725,0.69125 2.17,1.9725 2.27375,2.56375 2.17,0.9875 2.27375,-0.78875 2.17125,1.9725 2.2725,0.395 2.17,-0.59125 2.27375,0.19625 2.17,-1.38125 2.275,2.66375 2.17125,-1.47875 2.2725,-2.36875 2.17,-4.2425 2.27375,-6.61 2.17,-6.905 2.27375,-7.99125 2.17125,-4.4375 2.2725,-5.23 2.27375,-4.34125 0.10375,-0.19625" style="fill:none;stroke:#000000;stroke-width:2;stroke-linecap:butt;stroke-linejoin:round;stroke-miterlimit:10;stroke-opacity:1;stroke-dasharray:none" id="path2922" />
    <path d="m 93.673796,492.42422 2.17,2.36875 2.27375,6.01625 2.170004,7.00625 2.2725,4.24125 2.17125,2.565 2.275,1.48 2.17,0.98625 2.2725,-1.87375 2.17125,-14.5025 2.2725,2.46625 2.17,-21.7025 2.275,-29.49875 2.17,-26.4375 2.27375,-12.92375 2.17,1.47875 2.27375,0.5925 2.17,-1.18375 2.275,3.0575 2.17,-2.46625 2.2725,-4.1425 2.17125,-3.0575 2.27375,-0.1 2.16875,9.275 2.275,5.32625 2.17125,-3.4525 2.2725,-1.975 2.17,0.19875 2.27375,-5.92 2.27375,-4.5375 2.17125,-3.74875 2.2725,4.735 2.17,-2.17 2.27375,7.4 2.17125,1.97125 2.27375,-1.97125 2.17,0.295 2.27375,-0.1975 2.17,5.82 2.27375,-1.5775 2.17,-5.82125 2.27375,8.485 2.17125,17.65875 2.2725,20.61875 2.17,12.035 2.27375,9.075 2.17125,15.88375 2.27375,9.57 2.17,5.82 2.27375,3.4525 2.17,-8.58375 2.27375,-3.945 2.17,-0.69125 2.275,-8.38625 2.17,-1.47875 2.27375,11.05 2.2725,-4.2425 2.17,-6.8075 2.275,-1.5775 2.17,-9.56875 2.27375,9.76625 2.17,9.76625 2.27375,-1.18375 2.17,2.3675 2.27375,1.38125 2.17,-3.25625 2.27375,-1.28125 2.17125,3.45125 2.2725,-0.19625 2.17,-2.56625 2.275,6.71 2.17,-20.52 2.2725,-27.42625 2.17125,-21.0125 2.27375,-3.255 2.17,-7.30125 2.275,-7.3 2.17,-1.47875 2.2725,2.76125 2.17125,1.18375 2.2725,4.83375 2.17,-3.55125 2.275,-3.64875 2.27375,-3.84875 2.17,-5.91875 2.27375,2.3675 2.17,-0.59125 2.275,-1.77625 2.17,3.0575 2.2725,-0.0987 2.17125,2.36875 2.2725,-4.34125 2.17,1.48 2.275,0.8875 2.17,-2.86 2.27375,0.4925 2.17125,-2.96 2.2725,3.65125 2.17,3.945 2.27375,-0.0975 2.17125,-1.085 2.2725,12.62625 2.17,25.0575 2.27375,12.43125 2.17,9.17375 2.275,-2.96 2.17,10.95125 2.27375,8.68125 2.17125,3.5525 2.2725,6.115 2.27375,-0.8875 2.17125,-2.46625 2.2725,-3.15625 2.17,-7.4 2.27375,5.91875 2.17,-5.03 2.275,3.94625 2.17125,0.5925 2.2725,-1.185 2.17,3.25625 2.27375,4.735 2.17,-1.58 2.27375,-6.90375 2.17125,5.425 2.2725,-2.17 2.17,-4.14375 2.27375,-0.295 2.17,-5.62375 2.275,11.5425 2.17125,-9.07625 2.2725,-8.2875 2.17,-14.40125 2.27375,-18.055 2.17,-14.79625 2.27375,-15.68625 2.17125,0.69 2.2725,-4.14375 2.27375,-1.38125 0.10375,0" style="fill:none;stroke:#000000;stroke-width:2;stroke-linecap:butt;stroke-linejoin:round;stroke-miterlimit:10;stroke-opacity:1;stroke-dasharray:6, 3;stroke-dashoffset:0" id="path2924" />
    <path d="m 60.686296,483.37172 0,-3.41125 c 0,-1.18 0.59375,-1.70375 1.93125,-1.70375 l 0.96625,0.01 c 0.67,0 1.325,-0.11375 1.77125,-0.295 l 0,-1.605 -0.3425,0 c -0.35625,0.49625 -0.74375,0.59625 -2.1875,0.625 -1.785,0.015 -2.32125,0.28375 -2.8275,1.40625 -0.595,-1.165 -1.35375,-1.63125 -2.58875,-1.63125 -1.87625,0 -2.89875,1.12125 -2.89875,3.15125 l 0,4.7775 10.845,0 0,-1.32375 -4.66875,0 z m -1.21875,0 -3.74,0 0,-3.1975 c 0,-0.73875 0.11875,-1.165 0.41625,-1.4925 0.3125,-0.355 0.80375,-0.53875 1.45875,-0.53875 1.27875,0 1.865,0.625 1.865,2.03125 l 0,3.1975 z m 5.15875,-15.21625 c 0.03,0.1275 0.03,0.185 0.03,0.25625 0,0.4125 -0.22375,0.63875 -0.61125,0.63875 l -4.58375,0 c -1.3825,0 -2.12375,0.96625 -2.12375,2.79875 0,1.08 0.32625,1.975 0.90375,2.47125 0.4025,0.3425 0.84875,0.485 1.6225,0.51125 l 0,-1.1925 c -0.9525,-0.1 -1.3825,-0.64 -1.3825,-1.7475 0,-1.06625 0.41625,-1.65875 1.16,-1.65875 l 0.32625,0 c 0.52125,0 0.745,0.2975 0.86375,1.2325 0.2225,1.67625 0.2825,1.9325 0.47625,2.38625 0.37125,0.86625 1.07125,1.3075 2.08375,1.3075 1.41375,0 2.30625,-0.9375 2.30625,-2.44375 0,-0.9375 -0.3425,-1.69125 -1.14625,-2.52875 0.79,-0.085 1.14625,-0.455 1.14625,-1.22125 0,-0.24125 -0.03,-0.42625 -0.13375,-0.81 l -0.9375,0 z m -1.72625,2.0775 c 0.41625,0 0.67,0.1125 1.01125,0.46625 0.4625,0.48125 0.6975,1.065 0.6975,1.76125 0,0.9225 -0.46,1.465 -1.2475,1.465 -0.81875,0 -1.235,-0.52625 -1.42875,-1.7925 -0.17875,-1.24875 -0.2375,-1.50375 -0.43125,-1.9 l 1.39875,0 z m -5.34,-5.985 0,1.225 -2.14625,0 0,1.18 2.14625,0 0,1.005 1.01375,0 0,-1.005 5.88875,0 c 0.78875,0 1.235,-0.5125 1.235,-1.4375 0,-0.285 -0.03,-0.56875 -0.10375,-0.9675 l -1.0425,0 c 0.045,0.15625 0.0575,0.3425 0.0575,0.57 0,0.51125 -0.14875,0.655 -0.6975,0.655 l -5.3375,0 0,-1.225 -1.01375,0 z m 4.3175,-7.6275 c -1.19375,0 -1.90875,0.085 -2.49,0.2975 -1.28,0.48375 -2.05,1.62 -2.05,3.0125 0,2.075 1.66625,3.40875 4.2225,3.40875 2.56,0 4.1375,-1.29125 4.1375,-3.38 0,-1.705 -1.01125,-2.885 -2.70875,-3.1825 l 0,1.19375 c 1.0275,0.32625 1.56375,0.99375 1.56375,1.94625 0,0.7525 -0.35625,1.39125 -1.0125,1.78875 -0.445,0.285 -0.8925,0.38375 -1.6625,0.39875 l 0,-5.48375 z m -1.01625,5.455 c -1.4425,-0.1 -2.38,-0.9375 -2.38,-2.13125 0,-1.165 1.01125,-2.05875 2.29,-2.05875 0.03125,0 0.06125,0 0.09,0.0125 l 0,4.1775 z m -6.35125,-13.56625 0,2.6425 13.9975,0 0,-2.6425 -1.06875,0 0,1.4625 -11.85875,0 0,-1.4625 -1.07,0 z m 5.90625,-8.225 4.93875,0 0,-1.3225 -10.845,0 0,1.3225 4.68875,0 0,5.3325 -4.68875,0 0,1.3175 10.845,0 0,-1.3325 -4.93875,0 0,-5.3175 z m -2.85625,-8.72375 0,5.555 1.0875,0 0,-4.1475 5.59125,4.44625 1.11625,0 0,-6.05125 -1.08875,0 0,4.61625 -5.6075,-4.41875 -1.09875,0 z m 10.9475,-1.13625 0,-2.64125 -13.9975,0 0,2.64125 1.07,0 0,-1.46 11.85875,0 0,1.46 1.06875,0" style="fill:#000000;fill-opacity:1;fill-rule:nonzero;stroke:none" id="path2926" />
    <path d="m 225.74755,540.74672 3.56,0 0,-1.16375 -8.5125,0 0,1.16375 3.56625,0 0,9.18875 1.38625,0 0,-9.18875 z m 4.8275,9.18875 1.2375,0 0,-7.44 -1.2375,0 0,7.44 z m -0.0175,-8.86125 1.255,0 0,-1.49125 -1.255,0 0,1.49125 z m 3.365,1.42125 0,7.44 1.24625,0 0,-4.67 c 0,-1.08 0.82125,-1.945 1.83375,-1.945 0.9225,0 1.44125,0.54 1.44125,1.49 l 0,5.125 1.24625,0 0,-4.67 c 0,-1.08 0.82125,-1.945 1.83625,-1.945 0.9075,0 1.4475,0.55375 1.4475,1.49 l 0,5.125 1.24625,0 0,-5.58 c 0,-1.335 -0.80375,-2.07375 -2.26125,-2.07375 -1.0425,0 -1.6675,0.2975 -2.39625,1.13625 -0.46125,-0.795 -1.08625,-1.13625 -2.09875,-1.13625 -1.0425,0 -1.7275,0.37 -2.39875,1.265 l 0,-1.05125 -1.1425,0 z m 18.98875,4.11875 c 0,-1.13625 -0.0913,-1.8175 -0.31375,-2.37125 -0.50625,-1.2225 -1.69625,-1.96125 -3.155,-1.96125 -2.1725,0 -3.57125,1.59125 -3.57125,4.035 0,2.44375 1.35375,3.94625 3.54125,3.94625 1.78625,0 3.02125,-0.965 3.33375,-2.5825 l -1.25,0 c -0.3425,0.98 -1.04125,1.49 -2.03875,1.49 -0.78875,0 -1.45875,-0.34125 -1.875,-0.965 -0.2975,-0.425 -0.40125,-0.85125 -0.41625,-1.59125 l 5.745,0 z m -5.71625,-0.96625 c 0.10375,-1.3775 0.98375,-2.27375 2.23375,-2.27375 1.21875,0 2.15625,0.96625 2.15625,2.18875 0,0.03 0,0.0563 -0.015,0.085 l -4.375,0 z m 14.21375,-6.065 -2.77125,0 0,13.3625 2.77125,0 0,-1.02125 -1.535,0 0,-11.32 1.535,0 0,-1.02125 z m 6.9325,4.98625 c -0.0138,-1.46375 -1.02625,-2.2875 -2.825,-2.2875 -1.81625,0 -2.99125,0.895 -2.99125,2.27375 0,1.16375 0.62375,1.71875 2.47,2.14375 l 1.16,0.27 c 0.86375,0.19875 1.205,0.49875 1.205,1.0375 0,0.69625 -0.72875,1.16375 -1.815,1.16375 -0.67,0 -1.235,-0.185 -1.5475,-0.49625 -0.19375,-0.2125 -0.28375,-0.425 -0.35625,-0.95125 l -1.31,0 c 0.0587,1.71875 1.07,2.54 3.11,2.54 1.96375,0 3.2125,-0.9225 3.2125,-2.35625 0,-1.1075 -0.65375,-1.71875 -2.2,-2.07375 l -1.19125,-0.27 c -1.0125,-0.22625 -1.445,-0.53875 -1.445,-1.065 0,-0.68125 0.64,-1.12375 1.65375,-1.12375 0.99625,0 1.5325,0.4125 1.5625,1.195 l 1.3075,0 z m 1.26625,8.37625 2.7675,0 0,-13.3625 -2.7675,0 0,1.02125 1.53125,0 0,11.32 -1.53125,0 0,1.02125" style="fill:#000000;fill-opacity:1;fill-rule:nonzero;stroke:none" id="path2928" />
    <path d="m 93.673796,503.47297 2.17,-0.39375 2.27375,0.5925 2.170004,1.5775 2.2725,1.3825 2.17125,1.28125 2.275,1.085 2.17,0.98625 2.2725,0.395 2.17125,-3.35375 2.2725,-0.0987 2.17,-5.7225 2.275,-9.7675 2.17,-11.14625 2.27375,-9.27375 2.17,-5.82 2.27375,-5.2275 2.17,-5.13125 2.275,-3.55125 2.17,-4.2425 2.2725,-4.635 2.17125,-4.145 2.27375,-3.4525 2.16875,-0.49375 2.275,-0.49125 2.17125,-2.1725 2.2725,-1.9725 2.17,-1.38 2.27375,-2.7625 2.27375,-2.86125 2.17125,-2.76125 2.2725,-0.6925 2.17,-1.97125 2.27375,0.69 2.17125,-0.1 2.27375,-0.8875 2.17,-0.4925 2.27375,-0.5925 2.17,1.185 2.27375,-0.19875 2.17,-1.67625 2.27375,1.48 2.17125,4.93125 2.2725,6.9075 2.17,6.41125 2.27375,5.91875 2.17125,8.18875 2.27375,7.30125 2.17,6.51125 2.27375,5.9175 2.17,2.36875 2.27375,2.465 2.17,2.7625 2.275,0.0987 2.17,1.185 2.27375,4.24125 2.2725,0.8875 2.17,-0.295 2.275,0.39375 2.17,-1.875 2.27375,2.17125 2.17,3.15625 2.27375,0.88875 2.17,1.87375 2.27375,1.2825 2.17,0.2975 2.27375,0.39375 2.17125,1.5775 2.2725,0.59125 2.17,0 2.275,2.1725 2.17,-4.34125 2.2725,-8.09 2.17125,-8.485 2.27375,-5.03 2.17,-5.82125 2.275,-6.11625 2.17,-4.735 2.2725,-3.15625 2.17125,-3.05875 2.2725,-1.57875 2.17,-3.05875 2.275,-3.15625 2.27375,-3.355 2.17,-3.945 2.27375,-1.875 2.17,-2.2675 2.275,-2.4675 2.17,-0.98625 2.2725,-1.3825 2.17125,-0.68875 2.2725,-2.0725 2.17,-0.88875 2.275,-0.68875 2.17,-1.58 2.27375,-0.8875 2.17125,-1.47875 2.2725,0 2.17,0.4925 2.27375,-0.1975 2.17125,-0.395 2.2725,2.86125 2.17,7.39875 2.27375,6.01875 2.17,5.72125 2.275,2.86125 2.17,6.0175 2.27375,5.7225 2.17125,5.03125 2.2725,5.3275 2.27375,3.4525 2.17125,2.86125 2.2725,1.87375 2.17,0.295 2.27375,3.05875 2.17,0.29625 2.275,2.3675 2.17125,1.6775 2.2725,0.69125 2.17,1.9725 2.27375,2.56375 2.17,0.9875 2.27375,-0.78875 2.17125,1.9725 2.2725,0.395 2.17,-0.59125 2.27375,0.19625 2.17,-1.38125 2.275,2.66375 2.17125,-1.47875 2.2725,-2.36875 2.17,-4.2425 2.27375,-6.61 2.17,-6.905 2.27375,-7.99125 2.17125,-4.4375 2.2725,-5.23 2.27375,-4.34125 0.10375,-0.19625" style="fill:none;stroke:#000000;stroke-width:2;stroke-linecap:butt;stroke-linejoin:round;stroke-miterlimit:10;stroke-opacity:1;stroke-dasharray:none" id="path2930" />
    <path d="m 93.673796,492.42422 2.17,2.36875 2.27375,6.01625 2.170004,7.00625 2.2725,4.24125 2.17125,2.565 2.275,1.48 2.17,0.98625 2.2725,-1.87375 2.17125,-14.5025 2.2725,2.46625 2.17,-21.7025 2.275,-29.49875 2.17,-26.4375 2.27375,-12.92375 2.17,1.47875 2.27375,0.5925 2.17,-1.18375 2.275,3.0575 2.17,-2.46625 2.2725,-4.1425 2.17125,-3.0575 2.27375,-0.1 2.16875,9.275 2.275,5.32625 2.17125,-3.4525 2.2725,-1.975 2.17,0.19875 2.27375,-5.92 2.27375,-4.5375 2.17125,-3.74875 2.2725,4.735 2.17,-2.17 2.27375,7.4 2.17125,1.97125 2.27375,-1.97125 2.17,0.295 2.27375,-0.1975 2.17,5.82 2.27375,-1.5775 2.17,-5.82125 2.27375,8.485 2.17125,17.65875 2.2725,20.61875 2.17,12.035 2.27375,9.075 2.17125,15.88375 2.27375,9.57 2.17,5.82 2.27375,3.4525 2.17,-8.58375 2.27375,-3.945 2.17,-0.69125 2.275,-8.38625 2.17,-1.47875 2.27375,11.05 2.2725,-4.2425 2.17,-6.8075 2.275,-1.5775 2.17,-9.56875 2.27375,9.76625 2.17,9.76625 2.27375,-1.18375 2.17,2.3675 2.27375,1.38125 2.17,-3.25625 2.27375,-1.28125 2.17125,3.45125 2.2725,-0.19625 2.17,-2.56625 2.275,6.71 2.17,-20.52 2.2725,-27.42625 2.17125,-21.0125 2.27375,-3.255 2.17,-7.30125 2.275,-7.3 2.17,-1.47875 2.2725,2.76125 2.17125,1.18375 2.2725,4.83375 2.17,-3.55125 2.275,-3.64875 2.27375,-3.84875 2.17,-5.91875 2.27375,2.3675 2.17,-0.59125 2.275,-1.77625 2.17,3.0575 2.2725,-0.0987 2.17125,2.36875 2.2725,-4.34125 2.17,1.48 2.275,0.8875 2.17,-2.86 2.27375,0.4925 2.17125,-2.96 2.2725,3.65125 2.17,3.945 2.27375,-0.0975 2.17125,-1.085 2.2725,12.62625 2.17,25.0575 2.27375,12.43125 2.17,9.17375 2.275,-2.96 2.17,10.95125 2.27375,8.68125 2.17125,3.5525 2.2725,6.115 2.27375,-0.8875 2.17125,-2.46625 2.2725,-3.15625 2.17,-7.4 2.27375,5.91875 2.17,-5.03 2.275,3.94625 2.17125,0.5925 2.2725,-1.185 2.17,3.25625 2.27375,4.735 2.17,-1.58 2.27375,-6.90375 2.17125,5.425 2.2725,-2.17 2.17,-4.14375 2.27375,-0.295 2.17,-5.62375 2.275,11.5425 2.17125,-9.07625 2.2725,-8.2875 2.17,-14.40125 2.27375,-18.055 2.17,-14.79625 2.27375,-15.68625 2.17125,0.69 2.2725,-4.14375 2.27375,-1.38125 0.10375,0" style="fill:none;stroke:#000000;stroke-width:2;stroke-linecap:butt;stroke-linejoin:round;stroke-miterlimit:10;stroke-opacity:1;stroke-dasharray:6, 3;stroke-dashoffset:0" id="path2932" />
    <path d="m 93.673796,518.56797 304.670004,0 m 0,0 0,-122.0325 m -282.45125,122.0325 0,-2.46625" style="fill:none;stroke:#000000;stroke-width:1;stroke-linecap:butt;stroke-linejoin:round;stroke-miterlimit:10;stroke-opacity:1;stroke-dasharray:none" id="path2934" />
    <path d="m 115.1263,530.11047 0.1575,0 0.53,-0.015 c 1.3875,0 2.10375,0.60375 2.10375,1.76375 0,1.215 -0.78875,1.93875 -2.10375,1.93875 -1.37375,0 -2.04375,-0.655 -2.13,-2.06125 l -1.26,0 c 0.0575,0.77875 0.2,1.2825 0.44375,1.72 0.51375,0.93 1.51625,1.40625 2.9025,1.40625 2.08875,0 3.43,-1.1875 3.43,-3.0175 0,-1.22875 -0.5,-1.91125 -1.71375,-2.3075 0.945,-0.35375 1.41625,-1.03625 1.41625,-2.0075 0,-1.665 -1.15875,-2.6625 -3.08875,-2.6625 -2.045,0 -3.1275,1.065 -3.17,3.12875 l 1.255,0 c 0.0138,-0.5875 0.07,-0.91625 0.22625,-1.215 0.28625,-0.53375 0.91625,-0.86625 1.70375,-0.86625 1.11375,0 1.79,0.63 1.79,1.6575 0,0.6825 -0.2575,1.09125 -0.8175,1.31 -0.34375,0.13625 -0.78875,0.19125 -1.675,0.20625 l 0,1.02125" style="fill:#000000;fill-opacity:1;fill-rule:nonzero;stroke:none" id="path2936" />
    <path d="m 182.55255,518.56797 0,-2.46625" style="fill:none;stroke:#000000;stroke-width:1;stroke-linecap:butt;stroke-linejoin:round;stroke-miterlimit:10;stroke-opacity:1;stroke-dasharray:none" id="path2938" />
    <path d="m 185.7488,527.39047 c -0.24375,-1.58125 -1.33,-2.5225 -2.875,-2.5225 -1.11625,0 -2.1175,0.52 -2.7175,1.38 -0.63,0.9425 -0.915,2.13 -0.915,3.89125 0,1.62375 0.25625,2.6625 0.85875,3.5225 0.5425,0.77875 1.42875,1.20125 2.54375,1.20125 1.93125,0 3.32125,-1.365 3.32125,-3.2625 0,-1.8025 -1.28875,-3.07125 -3.10625,-3.07125 -1.0025,0 -1.79125,0.36875 -2.33375,1.0775 0.0138,-2.36125 0.815,-3.67375 2.26375,-3.67375 0.88625,0 1.50125,0.5325 1.7,1.4575 l 1.26,0 z m -3.04625,2.205 c 1.215,0 1.97875,0.80375 1.97875,2.1 0,1.215 -0.86,2.1025 -2.0225,2.1025 -1.1725,0 -2.06,-0.92875 -2.06,-2.17 0,-1.20125 0.85875,-2.0325 2.10375,-2.0325" style="fill:#000000;fill-opacity:1;fill-rule:nonzero;stroke:none" id="path2940" />
    <path d="m 249.3163,518.56797 0,-2.46625" style="fill:none;stroke:#000000;stroke-width:1;stroke-linecap:butt;stroke-linejoin:round;stroke-miterlimit:10;stroke-opacity:1;stroke-dasharray:none" id="path2942" />
    <path d="m 246.1463,532.33797 c 0.2425,1.5825 1.33125,2.525 2.87375,2.525 1.1175,0 2.13375,-0.5175 2.71875,-1.38 0.645,-0.94 0.92875,-2.12875 0.92875,-3.88875 0,-1.62625 -0.25625,-2.6625 -0.8575,-3.52375 -0.55625,-0.7775 -1.44375,-1.2025 -2.56,-1.2025 -1.93,0 -3.31875,1.36625 -3.31875,3.26375 0,1.8025 1.2875,3.07 3.11875,3.07 0.96,0 1.6625,-0.3275 2.3225,-1.07625 -0.015,2.3625 -0.8175,3.6725 -2.26375,3.6725 -0.8875,0 -1.5025,-0.5325 -1.70375,-1.46 l -1.25875,0 z m 3.08875,-6.4225 c 1.17375,0 2.06125,0.93125 2.06125,2.18875 0,1.18875 -0.8725,2.03125 -2.1025,2.03125 -1.2175,0 -1.97875,-0.80375 -1.97875,-2.0975 0,-1.23 0.86,-2.1225 2.02,-2.1225" style="fill:#000000;fill-opacity:1;fill-rule:nonzero;stroke:none" id="path2944" />
    <path d="m 315.9763,518.56797 0,-2.46625" style="fill:none;stroke:#000000;stroke-width:1;stroke-linecap:butt;stroke-linejoin:round;stroke-miterlimit:10;stroke-opacity:1;stroke-dasharray:none" id="path2946" />
    <path d="m 311.8313,527.65422 0,6.895 1.25625,0 0,-9.68125 -0.83375,0 c -0.4425,1.48875 -0.72875,1.69375 -2.6725,1.92625 l 0,0.86 2.25,0 z m 11.48,5.70625 -5.335,0 c 0.1275,-0.79125 0.585,-1.2975 1.83,-1.99125 l 1.43125,-0.73875 c 1.41625,-0.7375 2.14625,-1.73375 2.14625,-2.92125 0,-0.80625 -0.34375,-1.55625 -0.945,-2.075 -0.6025,-0.51875 -1.34375,-0.76625 -2.30375,-0.76625 -1.28625,0 -2.24625,0.4375 -2.8025,1.25625 -0.3575,0.51875 -0.515,1.12125 -0.545,2.10375 l 1.26,0 c 0.0425,-0.655 0.12875,-1.0525 0.29875,-1.36625 0.33125,-0.58625 0.9875,-0.94625 1.74625,-0.94625 1.145,0 2.0075,0.78 2.0075,1.82 0,0.76625 -0.47375,1.42 -1.3775,1.9125 l -1.31625,0.70875 c -2.11625,1.1475 -2.7325,2.06375 -2.84625,4.1925 l 6.75125,0 0,-1.18875" style="fill:#000000;fill-opacity:1;fill-rule:nonzero;stroke:none" id="path2948" />
    <path d="m 382.7388,518.56797 0,-2.46625" style="fill:none;stroke:#000000;stroke-width:1;stroke-linecap:butt;stroke-linejoin:round;stroke-miterlimit:10;stroke-opacity:1;stroke-dasharray:none" id="path2950" />
    <path d="m 378.58755,527.65422 0,6.895 1.25625,0 0,-9.68125 -0.82625,0 c -0.44375,1.48875 -0.72875,1.69375 -2.67375,1.92625 l 0,0.86 2.24375,0 z m 11.06,-2.78625 -5.2375,0 -0.7575,5.27125 1.1575,0 c 0.58625,-0.66875 1.07375,-0.89875 1.86,-0.89875 1.35875,0 2.22375,0.88625 2.22375,2.31875 0,1.3925 -0.8475,2.23875 -2.22375,2.23875 -1.10125,0 -1.7725,-0.5325 -2.07375,-1.625 l -1.2575,0 c 0.17,0.7925 0.31375,1.175 0.61375,1.53 0.5725,0.7375 1.60125,1.16 2.74625,1.16 2.045,0 3.4775,-1.41875 3.4775,-3.4675 0,-1.91125 -1.33125,-3.22125 -3.27875,-3.22125 -0.71375,0 -1.28625,0.1775 -1.8725,0.58625 l 0.39875,-2.7025 4.22375,0 0,-1.19" style="fill:#000000;fill-opacity:1;fill-rule:nonzero;stroke:none" id="path2952" />
    <path d="m 398.3438,514.62172 -2.58375,0" style="fill:none;stroke:#000000;stroke-width:1;stroke-linecap:butt;stroke-linejoin:round;stroke-miterlimit:10;stroke-opacity:1;stroke-dasharray:none" id="path2954" />
    <path d="m 405.01755,515.21172 0.1575,0 0.53,-0.015 c 1.3875,0 2.1075,0.60375 2.1075,1.76625 0,1.215 -0.78875,1.93625 -2.1075,1.93625 -1.3725,0 -2.05,-0.655 -2.135,-2.05875 l -1.25375,0 c 0.0562,0.7775 0.19875,1.28375 0.4425,1.72 0.515,0.92875 1.5175,1.405 2.90375,1.405 2.08875,0 3.43375,-1.1875 3.43375,-3.01625 0,-1.22875 -0.50125,-1.9125 -1.7175,-2.3075 0.945,-0.355 1.41,-1.03625 1.41,-2.00625 0,-1.66625 -1.15625,-2.665 -3.08375,-2.665 -2.045,0 -3.13375,1.065 -3.17625,3.13 l 1.25625,0 c 0.015,-0.5875 0.0712,-0.91625 0.2325,-1.21625 0.28625,-0.5325 0.915,-0.8675 1.7025,-0.8675 1.115,0 1.785,0.63125 1.785,1.65875 0,0.68375 -0.2575,1.09375 -0.8125,1.31 -0.3425,0.13875 -0.78625,0.1925 -1.675,0.20625 l 0,1.02 z m 8.7275,-5.24125 c -0.945,0 -1.80375,0.39625 -2.33125,1.06625 -0.66,0.8475 -0.98875,2.145 -0.98875,3.93375 0,3.2625 1.145,4.995 3.32,4.995 2.14375,0 3.3125,-1.73375 3.3125,-4.91375 0,-1.88375 -0.31375,-3.14125 -0.9825,-4.015 -0.52875,-0.68125 -1.37375,-1.06625 -2.33,-1.06625 z m 0,1.06375 c 1.3575,0 2.03,1.3125 2.03,3.90875 0,2.74375 -0.66,4.0275 -2.06,4.0275 -1.33,0 -2.005,-1.33875 -2.005,-3.9875 0,-2.64875 0.6725,-3.94875 2.035,-3.94875" style="fill:#000000;fill-opacity:1;fill-rule:nonzero;stroke:none" id="path2956" />
    <path d="m 398.3438,475.25922 -2.58375,0" style="fill:none;stroke:#000000;stroke-width:1;stroke-linecap:butt;stroke-linejoin:round;stroke-miterlimit:10;stroke-opacity:1;stroke-dasharray:none" id="path2958" />
    <path d="m 406.53755,477.96422 0,2.32625 1.25625,0 0,-2.32625 1.50125,0 0,-1.0725 -1.50125,0 0,-6.28125 -0.93,0 -4.605,6.08875 0,1.265 4.27875,0 z m 0,-1.0725 -3.1775,0 3.1775,-4.2325 0,4.2325 z m 7.2075,-6.28125 c -0.945,0 -1.80375,0.39625 -2.33125,1.065 -0.66,0.84625 -0.98875,2.14375 -0.98875,3.93125 0,3.26375 1.145,4.99875 3.32,4.99875 2.14375,0 3.3125,-1.73375 3.3125,-4.91625 0,-1.88375 -0.31375,-3.14 -0.9825,-4.01375 -0.52875,-0.6825 -1.37375,-1.065 -2.33,-1.065 z m 0,1.06625 c 1.3575,0 2.03,1.31 2.03,3.90375 0,2.74375 -0.66,4.03 -2.06,4.03 -1.33,0 -2.005,-1.33875 -2.005,-3.99 0,-2.6475 0.6725,-3.94375 2.035,-3.94375" style="fill:#000000;fill-opacity:1;fill-rule:nonzero;stroke:none" id="path2960" />
    <path d="m 398.3438,435.89797 -2.58375,0" style="fill:none;stroke:#000000;stroke-width:1;stroke-linecap:butt;stroke-linejoin:round;stroke-miterlimit:10;stroke-opacity:1;stroke-dasharray:none" id="path2962" />
    <path d="m 408.66755,431.25047 -5.23625,0 -0.75875,5.26875 1.15875,0 c 0.5875,-0.67 1.0725,-0.90625 1.86,-0.90625 1.35875,0 2.22375,0.88875 2.22375,2.32625 0,1.39125 -0.84625,2.24125 -2.22375,2.24125 -1.1025,0 -1.775,-0.5325 -2.075,-1.6275 l -1.25875,0 c 0.1725,0.7925 0.315,1.17375 0.61625,1.52875 0.57125,0.73625 1.6025,1.16375 2.74625,1.16375 2.04625,0 3.4775,-1.42125 3.4775,-3.47 0,-1.9125 -1.33125,-3.2275 -3.2775,-3.2275 -0.715,0 -1.2875,0.17875 -1.87375,0.59125 l 0.4,-2.69875 4.22125,0 0,-1.19 z m 5.0775,0 c -0.945,0 -1.80375,0.395 -2.33125,1.0625 -0.66,0.84625 -0.98875,2.14375 -0.98875,3.9325 0,3.2625 1.145,5 3.32,5 2.14375,0 3.3125,-1.735 3.3125,-4.9175 0,-1.885 -0.31375,-3.14125 -0.9825,-4.015 -0.52875,-0.68125 -1.37375,-1.0625 -2.33,-1.0625 z m 0,1.06625 c 1.3575,0 2.03,1.30875 2.03,3.9025 0,2.74375 -0.66,4.0325 -2.06,4.0325 -1.33,0 -2.005,-1.34 -2.005,-3.9925 0,-2.64875 0.6725,-3.9425 2.035,-3.9425" style="fill:#000000;fill-opacity:1;fill-rule:nonzero;stroke:none" id="path2964" />
    <path d="m 118.06255,514.52172 2.275,-1.28125 2.17,-3.65 2.27375,-4.83375 2.17,-4.83375 2.27375,-4.44 2.17,-4.43875 2.275,-2.7625 117.81625,0.19625 2.2725,-1.67625 2.17125,-2.96 2.27375,-3.74875 2.17,-4.045 2.275,-3.7475 2.17,-3.5525 2.2725,-2.36625 120.09125,-0.79 2.17,-2.565 2.27375,-2.96 2.17125,-3.4525 2.2725,-3.15625 2.27375,-2.56625" style="fill:none;stroke:#a5a5a5;stroke-width:2;stroke-linecap:butt;stroke-linejoin:round;stroke-miterlimit:10;stroke-opacity:1;stroke-dasharray:none" id="path2966" />
    <path d="m 433.5863,502.05547 -9.09375,-2.91375 9.09375,0 0,-1.25125 -10.84625,0 0,1.83375 9.4475,3.01125 -9.4475,3.07 0,1.83125 10.84625,0 0,-1.25125 -9.09375,0 9.09375,-2.93875 0,-1.39125 z m -3.48,-12.47375 c -1.19125,0 -1.90625,0.085 -2.48875,0.2975 -1.27875,0.48375 -2.04875,1.62 -2.04875,3.0125 0,2.07375 1.665,3.40875 4.2225,3.40875 2.56,0 4.13625,-1.2925 4.13625,-3.38 0,-1.705 -1.01125,-2.885 -2.70875,-3.1825 l 0,1.1925 c 1.02875,0.3275 1.56625,0.995 1.56625,1.9475 0,0.7525 -0.35875,1.39125 -1.01375,1.78875 -0.44625,0.285 -0.89125,0.38375 -1.665,0.39875 l 0,-5.48375 z m -1.0125,5.455 c -1.44375,-0.1 -2.38,-0.9375 -2.38,-2.13125 0,-1.16375 1.01,-2.05875 2.28875,-2.05875 0.0288,0 0.0613,0 0.0913,0.0138 l 0,4.17625 z m 3.76375,-13.66625 c 0.0288,0.1275 0.0288,0.185 0.0288,0.25625 0,0.41125 -0.22375,0.63625 -0.61,0.63625 l -4.58375,0 c -1.38375,0 -2.12375,0.96625 -2.12375,2.80125 0,1.08 0.325,1.975 0.9025,2.47125 0.40375,0.34125 0.84875,0.48 1.6225,0.51 l 0,-1.1925 c -0.95125,-0.0988 -1.38,-0.6375 -1.38,-1.74625 0,-1.06625 0.415,-1.6625 1.1575,-1.6625 l 0.3275,0 c 0.52,0 0.74375,0.2975 0.86375,1.23625 0.2225,1.67625 0.28125,1.9325 0.47625,2.38625 0.37125,0.8675 1.07125,1.30375 2.08375,1.30375 1.4125,0 2.305,-0.93625 2.305,-2.44 0,-0.9375 -0.34125,-1.69 -1.145,-2.5275 0.78875,-0.0863 1.145,-0.45625 1.145,-1.2225 0,-0.24125 -0.0288,-0.42625 -0.1325,-0.81 l -0.9375,0 z m -1.7275,2.07375 c 0.4175,0 0.67,0.11375 1.0125,0.46875 0.46125,0.48375 0.6975,1.065 0.6975,1.7625 0,0.9225 -0.46125,1.46125 -1.24875,1.46125 -0.8175,0 -1.235,-0.525 -1.4275,-1.78875 -0.17875,-1.25125 -0.23875,-1.5075 -0.4325,-1.90375 l 1.39875,0 z m -5.33875,-3.36625 7.795,0 0,-1.19625 -4.30125,0 c -1.5925,0 -2.6275,-0.795 -2.6275,-2.015 0,-0.9375 0.59125,-1.53 1.52625,-1.53 l 5.4025,0 0,-1.18 -5.89375,0 c -1.295,0 -2.12375,0.9225 -2.12375,2.355 0,1.11 0.445,1.82 1.5275,2.47375 l -1.305,0 0,1.0925 z m 7.795,-18.72375 -7.795,-2.1875 0,1.335 6.06875,1.4775 -6.06875,1.46375 0,1.44875 6.06875,1.42125 -6.06875,1.52 0,1.3075 7.795,-2.16 0,-1.335 -6.1175,-1.43625 6.1175,-1.505 0,-1.35 z m -3.48,-9.67375 c -1.19125,0 -1.90625,0.085 -2.48875,0.2975 -1.27875,0.48375 -2.04875,1.62 -2.04875,3.0125 0,2.07375 1.665,3.41 4.2225,3.41 2.56,0 4.13625,-1.2925 4.13625,-3.38125 0,-1.70625 -1.01125,-2.885 -2.70875,-3.1825 l 0,1.19375 c 1.02875,0.32625 1.56625,0.99375 1.56625,1.945 0,0.75375 -0.35875,1.3925 -1.01375,1.79 -0.44625,0.285 -0.89125,0.385 -1.665,0.3975 l 0,-5.4825 z m -1.0125,5.455 c -1.44375,-0.1 -2.38,-0.9375 -2.38,-2.13125 0,-1.165 1.01,-2.06 2.28875,-2.06 0.0288,0 0.0613,0 0.0913,0.0138 l 0,4.1775 z m -3.3025,-7.01375 7.79375,0 0,-1.18 -7.79375,0 0,1.18 z m -3.05125,0.01 1.55875,0 0,-1.19125 -1.55875,0 0,1.19125 z m 3.05125,-8.07 1.1275,0 c -0.9225,0.59625 -1.35,1.32125 -1.35,2.27375 0,1.89 1.725,3.1675 4.25125,3.1675 1.28125,0 2.3225,-0.3275 3.06625,-0.93625 0.655,-0.55375 1.04125,-1.35 1.04125,-2.13125 0,-0.93875 -0.41625,-1.5925 -1.39875,-2.26 l 0.4025,0 c 1.05625,0 1.69625,0.1275 2.12875,0.4275 0.46125,0.3125 0.73,0.9225 0.73,1.6475 0,0.54 -0.15,1.02375 -0.4175,1.35 -0.22375,0.26875 -0.4325,0.3825 -0.89375,0.455 l 0,1.2075 c 1.4725,-0.12875 2.35375,-1.2225 2.35375,-2.96875 0,-1.10875 -0.3725,-2.06125 -0.99875,-2.545 -0.715,-0.5675 -1.6975,-0.78125 -3.52875,-0.78125 l -6.51375,0 0,1.09375 z m 0.9225,2.14625 c 0,-1.27875 1.12875,-2.0325 3.0775,-2.0325 1.86,0 2.99375,0.7675 2.99375,2.01875 0,1.2925 -1.1475,2.07375 -3.0375,2.07375 -1.87625,0 -3.03375,-0.79625 -3.03375,-2.06 z m -3.97375,-5.185 10.84625,0 0,-1.18125 -4.30125,0 c -1.5925,0 -2.63125,-0.795 -2.63125,-2.015 0,-0.38375 0.13125,-0.7675 0.35375,-1.0525 0.25375,-0.34 0.625,-0.4825 1.17625,-0.4825 l 5.4025,0 0,-1.1825 -5.89375,0 c -1.31,0 -2.1275,0.89625 -2.1275,2.3475 0,1.05 0.34125,1.69 1.29375,2.385 l -4.11875,0 0,1.18125 z m 3.04375,-10.5125 0,1.21625 -2.13875,0 0,1.18125 2.13875,0 0,1.01125 1.0125,0 0,-1.01125 5.89625,0 c 0.79,0 1.235,-0.51125 1.235,-1.43125 0,-0.28375 -0.0288,-0.56875 -0.10375,-0.96625 l -1.04125,0 c 0.0437,0.15625 0.0575,0.34125 0.0575,0.56875 0,0.51125 -0.14875,0.6475 -0.6975,0.6475 l -5.34625,0 0,-1.21625 -1.0125,0 z m -3.04375,-7.8425 0,2.64125 14,0 0,-2.64125 -1.07,0 0,1.45875 -11.86,0 0,-1.45875 -1.07,0 z m 3.04375,-4.0625 0,1.23375 -1.21625,0 c -0.52125,0 -0.78375,-0.28375 -0.78375,-0.82125 0,-0.1 0,-0.1425 0.0163,-0.4125 l -1.0325,0 c -0.06,0.27 -0.0713,0.42625 -0.0713,0.6675 0,1.09375 0.6525,1.7475 1.7675,1.7475 l 1.32,0 0,0.995 1.0125,0 0,-0.995 6.79,0 0,-1.18125 -6.79,0 0,-1.23375 -1.0125,0 z m 0.31625,-9.68875 c -2.38125,0.4125 -3.53875,1.71875 -3.53875,3.9925 0,1.3925 0.46125,2.51375 1.3525,3.2825 1.07,0.9375 2.6175,1.445 4.375,1.445 1.785,0 3.31875,-0.525 4.37375,-1.5025 0.86375,-0.79625 1.265,-1.8175 1.265,-3.16875 0,-2.5275 -1.4275,-3.94875 -4.3,-4.26125 l 0,1.36375 c 0.745,0.11375 1.25,0.255 1.6825,0.46875 0.89125,0.42625 1.4,1.3075 1.4,2.415 0,2.06 -1.7275,3.3625 -4.43625,3.3625 -2.78375,0 -4.4925,-1.25 -4.4925,-3.2475 0,-0.83875 0.26625,-1.62 0.6825,-2.04625 0.37125,-0.385 0.8325,-0.5975 1.63625,-0.75375 l 0,-1.35 z m 10.64,-1.17875 0,-2.64625 -14,0 0,2.64625 1.07,0 0,-1.46625 11.86,0 0,1.46625 1.07,0" style="fill:#000000;fill-opacity:1;fill-rule:nonzero;stroke:none" id="path2968" />
    <path d="m 93.673796,396.53547 304.670004,0 m 0,122.0325 0,-122.0325" style="fill:none;stroke:#000000;stroke-width:1;stroke-linecap:butt;stroke-linejoin:round;stroke-miterlimit:10;stroke-opacity:1;stroke-dasharray:none" id="path2970" />
    <path d="m 13.117192,434.08047 c 0,2.2675 -0.505,3.785 -1.51375,4.5525 -0.4425,0.33625 -0.97625,0.505 -1.6,0.505 -1.5374995,0 -2.5124995,-0.99 -2.9249995,-2.9675 -0.12625,-0.625 -0.18875,-1.32125 -0.18875,-2.09 0,-1.3825 0.28,-2.52625 0.83625,-3.42875 0.5575,-0.8925 1.3175,-1.34 2.2774995,-1.34 1.24,0 2.1275,0.72 2.66625,2.16125 0.29875,0.7875 0.4475,1.65625 0.4475,2.6075 m -1.32625,-0.245 c 0,-2.295 -0.39875,-3.645 -1.19625,-4.0475 -0.17375,-0.0875 -0.37,-0.13 -0.59125,-0.13 -1.1912495,0.0475 -1.7862495,1.44 -1.7862495,4.1775 l 3.5737495,0 m 0,0.34625 -3.5737495,0 0,0.475 c 0,1.92125 0.2725,3.165 0.82125,3.73125 0.25875,0.27 0.58125,0.40375 0.9649995,0.40375 1.1825,0 1.7775,-1.325 1.7875,-3.97625 0,-0.0387 0,-0.0913 0,-0.15875 l 0,-0.475" style="fill:#000000;fill-opacity:1;fill-rule:nonzero;stroke:none" id="path2978" />
    <path d="m 13.117192,434.08047 c 0,2.2675 -0.505,3.785 -1.51375,4.5525 -0.4425,0.33625 -0.97625,0.505 -1.6,0.505 -1.5374995,0 -2.5124995,-0.99 -2.9249995,-2.9675 -0.12625,-0.625 -0.18875,-1.32125 -0.18875,-2.09 0,-1.3825 0.28,-2.52625 0.83625,-3.42875 0.5575,-0.8925 1.3175,-1.34 2.2774995,-1.34 1.24,0 2.1275,0.72 2.66625,2.16125 0.29875,0.7875 0.4475,1.65625 0.4475,2.6075 m -1.32625,-0.245 c 0,-2.295 -0.39875,-3.645 -1.19625,-4.0475 -0.17375,-0.0875 -0.37,-0.13 -0.59125,-0.13 -1.1912495,0.0475 -1.7862495,1.44 -1.7862495,4.1775 l 3.5737495,0 m 0,0.34625 -3.5737495,0 0,0.475 c 0,1.92125 0.2725,3.165 0.82125,3.73125 0.25875,0.27 0.58125,0.40375 0.9649995,0.40375 1.1825,0 1.7775,-1.325 1.7875,-3.97625 0,-0.0387 0,-0.0913 0,-0.15875 l 0,-0.475" style="fill:none;stroke:#000000;stroke-width:0.3125;stroke-linecap:butt;stroke-linejoin:miter;stroke-miterlimit:10;stroke-opacity:1;stroke-dasharray:none" id="path2980" />
    <path d="m 15.054692,440.29547 0,2.2425 -0.69875,0 0,-5.8375 0.69875,0 0,0.6425 c 0.14625,-0.2525 0.33,-0.43875 0.55125,-0.55875 0.225,-0.12375 0.49125,-0.185 0.8,-0.185 0.515,0 0.9325,0.20375 1.25,0.61125 0.3225,0.4075 0.485,0.94375 0.485,1.60875 0,0.66375 -0.1625,1.2 -0.485,1.6075 -0.3175,0.40875 -0.735,0.6125 -1.25,0.6125 -0.30875,0 -0.575,-0.06 -0.8,-0.18125 -0.22125,-0.12375 -0.405,-0.31125 -0.55125,-0.5625 m 2.36375,-1.47625 c 0,-0.51125 -0.105,-0.91125 -0.31625,-1.20125 -0.21,-0.29125 -0.4975,-0.4375 -0.865,-0.4375 -0.3675,0 -0.6575,0.14625 -0.87,0.4375 -0.20875,0.29 -0.3125,0.69 -0.3125,1.20125 0,0.51125 0.10375,0.9125 0.3125,1.205 0.2125,0.28875 0.5025,0.43375 0.87,0.43375 0.3675,0 0.655,-0.145 0.865,-0.43375 0.21125,-0.2925 0.31625,-0.69375 0.31625,-1.205" style="fill:#000000;fill-opacity:1;fill-rule:nonzero;stroke:none" id="path2982" />
    <path d="m 13.117192,485.62797 c 0,2.26625 -0.505,3.785 -1.51375,4.55375 -0.4425,0.33625 -0.97625,0.50375 -1.6,0.50375 -1.5374995,0 -2.5124995,-0.99 -2.9249995,-2.96875 -0.12625,-0.62375 -0.18875,-1.32 -0.18875,-2.08875 0,-1.3825 0.28,-2.52625 0.83625,-3.42875 0.5575,-0.89375 1.31625,-1.34 2.2774995,-1.34 1.24,0 2.1275,0.72125 2.66625,2.16125 0.29875,0.7875 0.4475,1.6575 0.4475,2.6075 m -1.32625,-0.245 c 0,-2.295 -0.39875,-3.645 -1.19625,-4.04875 -0.17375,-0.085 -0.37,-0.12875 -0.59125,-0.12875 -1.1912495,0.0475 -1.7862495,1.44 -1.7862495,4.1775 l 3.5737495,0 m 0,0.34625 -3.5737495,0 0,0.475 c 0,1.92125 0.2725,3.165 0.82125,3.7325 0.25875,0.26875 0.58125,0.4025 0.9649995,0.4025 1.1825,0 1.7775,-1.325 1.7875,-3.97625 0,-0.0375 0,-0.0913 0,-0.15875 l 0,-0.475" style="fill:#000000;fill-opacity:1;fill-rule:nonzero;stroke:none" id="path2984" />
    <path d="m 13.117192,485.62797 c 0,2.26625 -0.505,3.785 -1.51375,4.55375 -0.4425,0.33625 -0.97625,0.50375 -1.6,0.50375 -1.5374995,0 -2.5124995,-0.99 -2.9249995,-2.96875 -0.12625,-0.62375 -0.18875,-1.32 -0.18875,-2.08875 0,-1.3825 0.28,-2.52625 0.83625,-3.42875 0.5575,-0.89375 1.31625,-1.34 2.2774995,-1.34 1.24,0 2.1275,0.72125 2.66625,2.16125 0.29875,0.7875 0.4475,1.6575 0.4475,2.6075 m -1.32625,-0.245 c 0,-2.295 -0.39875,-3.645 -1.19625,-4.04875 -0.17375,-0.085 -0.37,-0.12875 -0.59125,-0.12875 -1.1912495,0.0475 -1.7862495,1.44 -1.7862495,4.1775 l 3.5737495,0 m 0,0.34625 -3.5737495,0 0,0.475 c 0,1.92125 0.2725,3.165 0.82125,3.7325 0.25875,0.26875 0.58125,0.4025 0.9649995,0.4025 1.1825,0 1.7775,-1.325 1.7875,-3.97625 0,-0.0375 0,-0.0913 0,-0.15875 l 0,-0.475" style="fill:none;stroke:#000000;stroke-width:0.3125;stroke-linecap:butt;stroke-linejoin:miter;stroke-miterlimit:10;stroke-opacity:1;stroke-dasharray:none" id="path2986" />
    <path d="m 14.690942,487.45172 0.695,0 0,5.87375 -0.695,0 0,-5.87375 z" style="fill:#000000;fill-opacity:1;fill-rule:nonzero;stroke:none" id="path2988" />
    <path d="m 13.117192,410.88422 c 0,2.2675 -0.505,3.78375 -1.51375,4.5525 -0.4425,0.33625 -0.97625,0.50375 -1.6,0.50375 -1.5374995,0 -2.5124995,-0.98875 -2.9249995,-2.9675 -0.12625,-0.62375 -0.18875,-1.32 -0.18875,-2.08875 0,-1.3825 0.28,-2.52625 0.83625,-3.42875 0.5575,-0.89375 1.31625,-1.34 2.2774995,-1.34 1.24,0 2.1275,0.72 2.66625,2.16125 0.29875,0.7875 0.4475,1.65625 0.4475,2.6075 m -1.32625,-0.245 c 0,-2.295 -0.39875,-3.645 -1.19625,-4.04875 -0.17375,-0.0863 -0.37,-0.13 -0.59125,-0.13 -1.1912495,0.0488 -1.7862495,1.44125 -1.7862495,4.17875 l 3.5737495,0 m 0,0.34625 -3.5737495,0 0,0.475 c 0,1.92125 0.2725,3.165 0.82125,3.73125 0.25875,0.26875 0.58125,0.40375 0.9649995,0.40375 1.1825,0 1.7775,-1.325 1.7875,-3.97625 0,-0.0388 0,-0.0913 0,-0.15875 l 0,-0.475" style="fill:#000000;fill-opacity:1;fill-rule:nonzero;stroke:none" id="path2990" />
    <path d="m 13.117192,410.88422 c 0,2.2675 -0.505,3.78375 -1.51375,4.5525 -0.4425,0.33625 -0.97625,0.50375 -1.6,0.50375 -1.5374995,0 -2.5124995,-0.98875 -2.9249995,-2.9675 -0.12625,-0.62375 -0.18875,-1.32 -0.18875,-2.08875 0,-1.3825 0.28,-2.52625 0.83625,-3.42875 0.5575,-0.89375 1.31625,-1.34 2.2774995,-1.34 1.24,0 2.1275,0.72 2.66625,2.16125 0.29875,0.7875 0.4475,1.65625 0.4475,2.6075 m -1.32625,-0.245 c 0,-2.295 -0.39875,-3.645 -1.19625,-4.04875 -0.17375,-0.0863 -0.37,-0.13 -0.59125,-0.13 -1.1912495,0.0488 -1.7862495,1.44125 -1.7862495,4.17875 l 3.5737495,0 m 0,0.34625 -3.5737495,0 0,0.475 c 0,1.92125 0.2725,3.165 0.82125,3.73125 0.25875,0.26875 0.58125,0.40375 0.9649995,0.40375 1.1825,0 1.7775,-1.325 1.7875,-3.97625 0,-0.0388 0,-0.0913 0,-0.15875 l 0,-0.475" style="fill:none;stroke:#000000;stroke-width:0.3125;stroke-linecap:butt;stroke-linejoin:miter;stroke-miterlimit:10;stroke-opacity:1;stroke-dasharray:none" id="path2992" />
    <path d="m 18.324692,414.27047 0,2.55125 -0.695,0 0,-2.52875 c 0,-0.40125 -0.0775,-0.7 -0.23375,-0.89875 -0.15625,-0.19875 -0.39125,-0.29875 -0.70375,-0.29875 -0.375,0 -0.67,0.12 -0.8875,0.35875 -0.21625,0.23875 -0.325,0.565 -0.325,0.97875 l 0,2.38875 -0.6975,0 0,-5.875 0.6975,0 0,2.30375 c 0.16625,-0.25375 0.36125,-0.44375 0.58625,-0.57 0.22625,-0.12625 0.4875,-0.18875 0.78125,-0.18875 0.48625,0 0.85375,0.15125 1.10375,0.4525 0.24875,0.3 0.37375,0.74125 0.37375,1.32625" style="fill:#000000;fill-opacity:1;fill-rule:nonzero;stroke:none" id="path2994" />
    <text id="text3170" x="335.66751" y="604.77173" style="font-size:15px">
      <tspan style="font-size:11.20800018px;font-style:italic;font-variant:normal;font-weight:normal;writing-mode:lr-tb;fill:#000000;fill-opacity:1;fill-rule:nonzero;stroke:none;font-family:RMTMI;-inkscape-font-specification:RMTMI" x="335.66751" y="604.77173" id="tspan3172"></tspan>
    </text>
    <text id="text3184" x="116.32722" y="618.46344" style="font-size:15px">
      <tspan style="font-size:11.20800018px;font-style:italic;font-variant:normal;font-weight:normal;writing-mode:lr-tb;fill:#000000;fill-opacity:1;fill-rule:nonzero;stroke:none;font-family:RMTMI;-inkscape-font-specification:RMTMI" x="116.32722" y="618.46344" id="tspan3186"></tspan>
    </text>
  </g>
</svg>
